<svg width="148" height="150" viewBox="0 0 148 150" fill="none" xmlns="http://www.w3.org/2000/svg">
<g id="Group">
<path id="Vector" fill-rule="evenodd" clip-rule="evenodd" d="M53.4466 67.4569C53.4466 67.1778 53.5015 66.9015 53.6083 66.6437C53.7151 66.3859 53.8716 66.1516 54.069 65.9543C54.2663 65.757 54.5005 65.6004 54.7584 65.4936C55.0162 65.3868 55.2925 65.3319 55.5716 65.3319H62.9925C63.5561 65.3319 64.0966 65.5558 64.4951 65.9543C64.8936 66.3528 65.1175 66.8933 65.1175 67.4569C65.1175 68.0205 64.8936 68.561 64.4951 68.9595C64.0966 69.358 63.5561 69.5819 62.9925 69.5819H55.5719C55.0083 69.5819 54.4678 69.358 54.0693 68.9595C53.6708 68.561 53.4466 68.0205 53.4466 67.4569ZM27.075 67.5316V67.3831C27.075 67.1041 27.13 66.8277 27.2368 66.5699C27.3435 66.3121 27.5001 66.0779 27.6974 65.8805C27.8947 65.6832 28.129 65.5267 28.3868 65.4199C28.6446 65.3131 28.9209 65.2581 29.2 65.2581C29.4791 65.2581 29.7554 65.3131 30.0132 65.4199C30.271 65.5267 30.5053 65.6832 30.7026 65.8805C30.8999 66.0779 31.0565 66.3121 31.1632 66.5699C31.27 66.8277 31.325 67.1041 31.325 67.3831V67.5312C31.325 67.8103 31.27 68.0866 31.1632 68.3445C31.0565 68.6023 30.8999 68.8365 30.7026 69.0339C30.5053 69.2312 30.271 69.3877 30.0132 69.4945C29.7554 69.6013 29.4791 69.6562 29.2 69.6562C28.9209 69.6562 28.6446 69.6013 28.3868 69.4945C28.129 69.3877 27.8947 69.2312 27.6974 69.0339C27.5001 68.8365 27.3435 68.6023 27.2368 68.3445C27.13 68.0866 27.075 67.8106 27.075 67.5316ZM19.2197 67.5316V67.3831C19.2197 66.8195 19.4436 66.279 19.8421 65.8805C20.2406 65.482 20.7811 65.2581 21.3447 65.2581C21.9083 65.2581 22.4488 65.482 22.8473 65.8805C23.2458 66.279 23.4697 66.8195 23.4697 67.3831V67.5312C23.4697 68.095 23.2457 68.6357 22.8471 69.0344C22.4484 69.4331 21.9077 69.657 21.3439 69.657C20.7801 69.657 20.2394 69.4331 19.8408 69.0344C19.4421 68.6357 19.2181 68.095 19.2181 67.5312L19.2197 67.5316ZM11.3641 67.5316V67.3831C11.3641 66.8195 11.5879 66.279 11.9865 65.8805C12.385 65.482 12.9255 65.2581 13.4891 65.2581C14.0526 65.2581 14.5931 65.482 14.9917 65.8805C15.3902 66.279 15.6141 66.8195 15.6141 67.3831V67.5312C15.6141 68.095 15.3901 68.6357 14.9914 69.0344C14.5928 69.4331 14.0521 69.657 13.4883 69.657C12.9245 69.657 12.3838 69.4331 11.9851 69.0344C11.5865 68.6357 11.3625 68.095 11.3625 67.5312L11.3641 67.5316ZM48.1509 39.2284C48.1509 39.792 47.9271 40.3325 47.5285 40.731C47.13 41.1296 46.5895 41.3534 46.0259 41.3534H38.6047C38.0411 41.3534 37.5006 41.1296 37.1021 40.731C36.7036 40.3325 36.4797 39.792 36.4797 39.2284C36.4797 38.6649 36.7036 38.1244 37.1021 37.7258C37.5006 37.3273 38.0411 37.1034 38.6047 37.1034H46.0262C46.5898 37.1034 47.1303 37.3273 47.5289 37.7258C47.9274 38.1244 48.1509 38.6649 48.1509 39.2284ZM30.8253 39.1547V39.3031C30.8253 39.8667 30.6014 40.4072 30.2029 40.8057C29.8044 41.2042 29.2639 41.4281 28.7003 41.4281C28.1367 41.4281 27.5962 41.2042 27.1977 40.8057C26.7992 40.4072 26.5753 39.8667 26.5753 39.3031V39.1544C26.5753 38.5908 26.7992 38.0503 27.1977 37.6518C27.5962 37.2533 28.1367 37.0294 28.7003 37.0294C29.2639 37.0294 29.8044 37.2533 30.2029 37.6518C30.6014 38.0503 30.8253 38.5911 30.8253 39.1547ZM22.9697 39.1547V39.3031C22.9697 39.5822 22.9147 39.8585 22.8079 40.1163C22.7011 40.3741 22.5446 40.6084 22.3473 40.8057C22.15 41.0031 21.9157 41.1596 21.6579 41.2664C21.4001 41.3732 21.1237 41.4281 20.8447 41.4281C20.5656 41.4281 20.2893 41.3732 20.0315 41.2664C19.7737 41.1596 19.5394 41.0031 19.3421 40.8057C19.1448 40.6084 18.9882 40.3741 18.8814 40.1163C18.7747 39.8585 18.7197 39.5822 18.7197 39.3031V39.1544C18.7197 38.5908 18.9436 38.0503 19.3421 37.6518C19.7406 37.2533 20.2811 37.0294 20.8447 37.0294C21.4083 37.0294 21.9488 37.2533 22.3473 37.6518C22.7458 38.0503 22.9697 38.5911 22.9697 39.1547ZM15.1178 39.1547V39.3031C15.1178 39.8667 14.8939 40.4072 14.4954 40.8057C14.0969 41.2042 13.5564 41.4281 12.9928 41.4281C12.4292 41.4281 11.8887 41.2042 11.4902 40.8057C11.0917 40.4072 10.8678 39.8667 10.8678 39.3031V39.1544C10.8678 38.5908 11.0917 38.0503 11.4902 37.6518C11.8887 37.2533 12.4292 37.0294 12.9928 37.0294C13.5564 37.0294 14.0969 37.2533 14.4954 37.6518C14.8939 38.0503 15.1178 38.5911 15.1178 39.1547ZM30.8253 10.9263V11.0747C30.8253 11.6383 30.6014 12.1788 30.2029 12.5773C29.8044 12.9758 29.2639 13.1997 28.7003 13.1997C28.1367 13.1997 27.5962 12.9758 27.1977 12.5773C26.7992 12.1788 26.5753 11.6383 26.5753 11.0747V10.9263C26.5753 10.3627 26.7992 9.82216 27.1977 9.42365C27.5962 9.02513 28.1367 8.80125 28.7003 8.80125C29.2639 8.80125 29.8044 9.02513 30.2029 9.42365C30.6014 9.82216 30.8253 10.3627 30.8253 10.9263ZM22.9697 10.9263V11.0747C22.9697 11.6383 22.7458 12.1788 22.3473 12.5773C21.9488 12.9758 21.4083 13.1997 20.8447 13.1997C20.2811 13.1997 19.7406 12.9758 19.3421 12.5773C18.9436 12.1788 18.7197 11.6383 18.7197 11.0747V10.9263C18.7197 10.3627 18.9436 9.82216 19.3421 9.42365C19.7406 9.02513 20.2811 8.80125 20.8447 8.80125C21.4083 8.80125 21.9488 9.02513 22.3473 9.42365C22.7458 9.82216 22.9697 10.3627 22.9697 10.9263ZM15.1178 10.9263V11.0747C15.1178 11.6383 14.8939 12.1788 14.4954 12.5773C14.0969 12.9758 13.5564 13.1997 12.9928 13.1997C12.4292 13.1997 11.8887 12.9758 11.4902 12.5773C11.0917 12.1788 10.8678 11.6383 10.8678 11.0747V10.9263C10.8678 10.3627 11.0917 9.82216 11.4902 9.42365C11.8887 9.02513 12.4292 8.80125 12.9928 8.80125C13.5564 8.80125 14.0969 9.02513 14.4954 9.42365C14.8939 9.82216 15.1178 10.3627 15.1178 10.9263ZM36.7006 67.4575C36.7006 67.1784 36.7556 66.9021 36.8624 66.6443C36.9692 66.3865 37.1257 66.1522 37.323 65.9549C37.5203 65.7576 37.7546 65.601 38.0124 65.4943C38.2702 65.3875 38.5466 65.3325 38.8256 65.3325H46.2469C46.8105 65.3325 47.351 65.5564 47.7495 65.9549C48.148 66.3534 48.3719 66.8939 48.3719 67.4575C48.3719 68.0211 48.148 68.5616 47.7495 68.9601C47.351 69.3586 46.8105 69.5825 46.2469 69.5825H38.8259C38.2624 69.5825 37.7219 69.3586 37.3233 68.9601C36.9248 68.5616 36.7009 68.0211 36.7009 67.4575H36.7006ZM65.9353 39.2291C65.9347 39.7924 65.7106 40.3326 65.3122 40.7309C64.9138 41.1293 64.3737 41.3534 63.8103 41.3541H56.3891C55.8255 41.3541 55.285 41.1302 54.8865 40.7317C54.4879 40.3331 54.2641 39.7926 54.2641 39.2291C54.2641 38.6655 54.4879 38.125 54.8865 37.7265C55.285 37.3279 55.8255 37.1041 56.3891 37.1041H63.8106C64.3741 37.1046 64.9143 37.3286 65.3127 37.727C65.7111 38.1254 65.9351 38.6656 65.9356 39.2291H65.9353ZM65.4953 11C65.4953 11.5636 65.2714 12.1041 64.8729 12.5026C64.4744 12.9011 63.9339 13.125 63.3703 13.125H55.9484C55.3849 13.125 54.8444 12.9011 54.4458 12.5026C54.0473 12.1041 53.8234 11.5636 53.8234 11C53.8234 10.4364 54.0473 9.89591 54.4458 9.4974C54.8444 9.09888 55.3849 8.875 55.9484 8.875H63.3697C63.9333 8.875 64.4738 9.09888 64.8723 9.4974C65.2708 9.89591 65.4947 10.4364 65.4947 11H65.4953ZM47.4097 11C47.4097 11.5636 47.1858 12.1041 46.7873 12.5026C46.3888 12.9011 45.8483 13.125 45.2847 13.125H37.8634C37.5844 13.125 37.3081 13.07 37.0502 12.9632C36.7924 12.8565 36.5582 12.6999 36.3608 12.5026C36.1635 12.3053 36.007 12.071 35.9002 11.8132C35.7934 11.5554 35.7384 11.2791 35.7384 11C35.7384 10.7209 35.7934 10.4446 35.9002 10.1868C36.007 9.92898 36.1635 9.69472 36.3608 9.4974C36.5582 9.30007 36.7924 9.14355 37.0502 9.03676C37.3081 8.92996 37.5844 8.875 37.8634 8.875H45.2847C45.8483 8.875 46.3888 9.09888 46.7873 9.4974C47.1858 9.89591 47.4097 10.4364 47.4097 11ZM120.239 8.04219C120.242 7.96103 120.275 7.88385 120.333 7.82652C120.39 7.7692 120.467 7.73611 120.548 7.73406H142.892C142.973 7.73611 143.051 7.76922 143.108 7.82659C143.166 7.88397 143.2 7.96123 143.202 8.0425V30.3891C143.199 30.4704 143.166 30.5476 143.108 30.6049C143.05 30.6622 142.973 30.6952 142.892 30.6972H120.548C120.467 30.6952 120.389 30.6621 120.332 30.6048C120.274 30.5475 120.24 30.4703 120.238 30.3891V8.04219H120.239ZM120.239 49.3053C120.242 49.2242 120.275 49.1472 120.333 49.09C120.39 49.0328 120.467 48.9998 120.548 48.9978H142.892C142.973 48.9999 143.051 49.0331 143.109 49.0905C143.166 49.148 143.2 49.2253 143.202 49.3066V71.6528C143.199 71.7342 143.166 71.8115 143.108 71.869C143.05 71.9264 142.973 71.9595 142.892 71.9616H120.548C120.467 71.9597 120.389 71.9268 120.332 71.8696C120.274 71.8124 120.24 71.7352 120.238 71.6541V49.3066L120.239 49.3053ZM70.7663 43.9719V34.4856C70.7659 33.9535 70.5544 33.4433 70.1781 33.067C69.8018 32.6908 69.2915 32.4793 68.7594 32.4791H6.80344C6.2716 32.4797 5.76171 32.6912 5.38553 33.0672C5.00935 33.4431 4.79755 33.9529 4.79656 34.4847V43.9722C4.79755 44.5041 5.00938 45.0139 5.38562 45.3899C5.76187 45.7659 6.27183 45.9775 6.80375 45.9781H68.7588C69.291 45.9778 69.8013 45.7663 70.1777 45.39C70.5541 45.0137 70.7658 44.5035 70.7663 43.9712V43.9719ZM63.26 56.4569H12.3056V50.2294H63.26V56.4569ZM70.7663 62.7134C70.7657 62.1814 70.554 61.6713 70.1777 61.2952C69.8013 60.9191 69.2911 60.7078 68.7591 60.7075H6.80344C6.27163 60.7081 5.76174 60.9195 5.38555 61.2954C5.00936 61.6713 4.79755 62.181 4.79656 62.7128V72.2003C4.79755 72.7322 5.00938 73.2421 5.38562 73.6181C5.76187 73.9941 6.27183 74.2056 6.80375 74.2063H68.7588C69.2909 74.2062 69.8012 73.9949 70.1776 73.6187C70.554 73.2426 70.7658 72.7324 70.7663 72.2003V62.7128V62.7134ZM12.3056 22H63.26V28.2275H12.3056V22ZM4.79656 15.7444C4.79772 16.2762 5.00961 16.7859 5.38583 17.1618C5.76204 17.5378 6.27191 17.7493 6.80375 17.75H68.7588C69.2909 17.7498 69.8011 17.5385 70.1775 17.1624C70.5539 16.7863 70.7657 16.2762 70.7663 15.7441V6.25688C70.7658 5.72483 70.5542 5.21471 70.1779 4.83859C69.8016 4.46247 69.2914 4.2511 68.7594 4.25094H6.80344C6.2716 4.2516 5.76171 4.46308 5.38553 4.83903C5.00935 5.21497 4.79755 5.72473 4.79656 6.25656V15.7444ZM84.5059 81.83C84.5085 81.7488 84.542 81.6717 84.5996 81.6145C84.6572 81.5573 84.7345 81.5242 84.8156 81.5222H107.161C107.242 81.5243 107.32 81.5575 107.377 81.6149C107.435 81.6723 107.468 81.7496 107.471 81.8309V104.178C107.468 104.259 107.434 104.336 107.377 104.393C107.319 104.45 107.242 104.482 107.161 104.484H84.8169C84.7358 104.482 84.6584 104.45 84.6007 104.393C84.543 104.336 84.5093 104.259 84.5066 104.178V81.83H84.5059ZM84.5059 123.094C84.5085 123.013 84.542 122.936 84.5997 122.879C84.6573 122.822 84.7346 122.789 84.8156 122.788H107.161C107.242 122.789 107.319 122.822 107.377 122.879C107.435 122.936 107.468 123.013 107.471 123.094V145.439C107.469 145.521 107.435 145.599 107.378 145.656C107.32 145.714 107.242 145.747 107.161 145.749H84.8169C84.7353 145.747 84.6576 145.714 84.5998 145.656C84.542 145.599 84.5086 145.521 84.5066 145.44V123.094L84.5059 123.094ZM120.549 34.9481H142.893C144.101 34.947 145.26 34.4664 146.116 33.6118C146.971 32.7571 147.452 31.5983 147.453 30.3894V8.0425C147.452 6.8333 146.97 5.67417 146.115 4.81946C145.26 3.96475 144.1 3.48426 142.891 3.48344H120.547C119.338 3.48443 118.178 3.9651 117.323 4.81997C116.468 5.67485 115.986 6.83413 115.985 8.04344V17.09H92.4497C91.8861 17.09 91.3456 17.3139 90.9471 17.7124C90.5486 18.1109 90.3247 18.6514 90.3247 19.215V37.7212H75.0172V34.485C75.0154 32.8259 74.3554 31.2353 73.182 30.0623C72.0087 28.8893 70.4179 28.2298 68.7588 28.2284H67.5116V22H68.7591C70.4182 21.9987 72.0089 21.3391 73.1822 20.1661C74.3555 18.9931 75.0155 17.4025 75.0172 15.7434V6.25656C75.0154 4.59745 74.3554 3.00685 73.182 1.83385C72.0087 0.660861 70.4179 0.00132344 68.7588 0H6.80375C5.14476 0.00190146 3.55424 0.661667 2.38102 1.8346C1.20779 3.00754 0.547626 4.59789 0.54531 6.25688V15.7444C0.547874 17.4031 1.20811 18.9931 2.38126 20.1658C3.5544 21.3385 5.14469 21.9981 6.80344 22H8.05344V28.2275H6.80344C5.14442 28.2295 3.5539 28.8893 2.38069 30.0623C1.20747 31.2353 0.547313 32.8257 0.544998 34.4847V43.9719C0.546983 45.6309 1.20692 47.2215 2.38006 48.3946C3.5532 49.5678 5.14375 50.2277 6.80281 50.2297H8.05281V56.4572H6.80281C5.1438 56.4592 3.55328 57.119 2.38006 58.292C1.20684 59.465 0.546688 61.0554 0.544373 62.7144V72.2012C0.546523 73.8602 1.20655 75.4505 2.37968 76.6235C3.5528 77.7964 5.14326 78.4562 6.80219 78.4581H46.7359V114.464C46.7359 115.028 46.9598 115.568 47.3583 115.967C47.7569 116.365 48.2974 116.589 48.8609 116.589H54.5913V134.268C54.5913 134.831 54.8151 135.372 55.2136 135.77C55.6122 136.169 56.1527 136.393 56.7163 136.393H80.255V145.438C80.2562 146.647 80.737 147.807 81.592 148.662C82.447 149.517 83.6063 149.999 84.8156 150H107.161C108.37 149.998 109.529 149.517 110.384 148.662C111.239 147.808 111.72 146.648 111.722 145.439V123.094C111.72 121.885 111.239 120.726 110.384 119.871C109.529 119.017 108.37 118.537 107.161 118.536H84.8169C83.6078 118.537 82.4484 119.017 81.593 119.872C80.7376 120.726 80.2562 121.885 80.2544 123.094V132.143H58.8438V95.1284H80.2566V104.177C80.2579 105.386 80.7389 106.545 81.5939 107.399C82.4489 108.254 83.6081 108.734 84.8169 108.735H107.162C108.371 108.734 109.53 108.254 110.385 107.399C111.24 106.545 111.722 105.386 111.723 104.177V81.83C111.721 80.6211 111.24 79.4623 110.385 78.6077C109.53 77.7531 108.371 77.2725 107.162 77.2713H84.8181C83.6089 77.2723 82.4495 77.753 81.5941 78.6078C80.7388 79.4626 80.2575 80.6217 80.2556 81.8309V90.8775H56.7169C56.1534 90.8779 55.6132 91.1019 55.2147 91.5004C54.8163 91.8988 54.5923 92.439 54.5919 93.0025V112.338H50.9869V78.4578H68.7591C70.4182 78.4566 72.0091 77.797 73.1824 76.6239C74.3557 75.4508 75.0156 73.8601 75.0172 72.2009V62.7134C75.0153 61.0544 74.3552 59.4639 73.1819 58.2909C72.0086 57.118 70.4178 56.4585 68.7588 56.4572H67.5116V50.2294H68.7591C70.4182 50.2281 72.009 49.5685 73.1823 48.3954C74.3556 47.2223 75.0155 45.6316 75.0172 43.9725V41.9725H90.3241V60.4791C90.3241 61.0426 90.548 61.5831 90.9465 61.9817C91.345 62.3802 91.8855 62.6041 92.4491 62.6041H115.988V71.6519C115.989 72.8608 116.471 74.0198 117.325 74.8746C118.18 75.7293 119.339 76.2102 120.548 76.2116H142.892C144.101 76.2103 145.26 75.7297 146.115 74.875C146.97 74.0203 147.451 72.8614 147.453 71.6525V49.3056C147.451 48.0965 146.97 46.9376 146.114 46.083C145.259 45.2284 144.1 44.748 142.891 44.7472H120.547C119.338 44.7482 118.178 45.2288 117.323 46.0836C116.467 46.9384 115.986 48.0976 115.984 49.3069V58.3547H94.575V21.3409H115.988V30.3894C115.99 31.5983 116.471 32.7571 117.326 33.6118C118.181 34.4664 119.34 34.947 120.549 34.9481Z" fill="#38B6FF"/>
<path id="Vector_2" fill-rule="evenodd" clip-rule="evenodd" d="M143.204 30.3894V8.04281C143.201 7.96155 143.168 7.88428 143.11 7.82691C143.053 7.76953 142.975 7.73642 142.894 7.73438H120.55C120.469 7.73642 120.392 7.76951 120.334 7.82684C120.277 7.88416 120.244 7.96134 120.241 8.0425V30.3894C120.244 30.4706 120.277 30.5478 120.335 30.6051C120.393 30.6624 120.47 30.6955 120.551 30.6975H142.895C142.976 30.6951 143.053 30.6619 143.111 30.6047C143.168 30.5474 143.201 30.4704 143.204 30.3894Z" fill="#99DAFF"/>
<path id="Vector_3" fill-rule="evenodd" clip-rule="evenodd" d="M142.893 48.9976H120.55C120.469 48.9995 120.391 49.0325 120.334 49.0897C120.276 49.1469 120.243 49.224 120.241 49.3051V71.6526C120.243 71.7337 120.277 71.8109 120.334 71.8681C120.392 71.9253 120.469 71.9582 120.551 71.9601H142.894C142.976 71.958 143.053 71.9249 143.111 71.8675C143.169 71.81 143.202 71.7327 143.205 71.6513V49.3051C143.202 49.2237 143.168 49.1465 143.11 49.0893C143.052 49.0321 142.975 48.9993 142.893 48.9976Z" fill="#99DAFF"/>
<path id="Vector_4" fill-rule="evenodd" clip-rule="evenodd" d="M107.161 81.522H84.8172C84.736 81.524 84.6587 81.557 84.6011 81.6143C84.5435 81.6715 84.51 81.7486 84.5075 81.8298V104.177C84.5102 104.258 84.5439 104.335 84.6016 104.392C84.6594 104.449 84.7367 104.482 84.8178 104.483H107.162C107.243 104.482 107.32 104.449 107.378 104.392C107.435 104.335 107.469 104.258 107.472 104.177V81.8307C107.469 81.7493 107.436 81.6718 107.378 81.6144C107.32 81.5569 107.242 81.5239 107.161 81.522Z" fill="#99DAFF"/>
</g>
</svg>
