<svg width="150" height="106" viewBox="0 0 150 106" fill="none" xmlns="http://www.w3.org/2000/svg">
<path id="Vector" fill-rule="evenodd" clip-rule="evenodd" d="M62.9181 71.9602C62.9181 72.5238 62.6942 73.0643 62.2957 73.4628C61.8972 73.8613 61.3567 74.0852 60.7931 74.0852H17.4869C16.9233 74.0852 16.3828 73.8613 15.9843 73.4628C15.5858 73.0643 15.3619 72.5238 15.3619 71.9602C15.3619 71.3966 15.5858 70.8561 15.9843 70.4576C16.3828 70.0591 16.9233 69.8352 17.4869 69.8352H60.7928C61.0719 69.8352 61.3482 69.8902 61.606 69.997C61.8638 70.1038 62.0981 70.2603 62.2954 70.4576C62.4927 70.6549 62.6493 70.8892 62.7561 71.147C62.8628 71.4048 62.9181 71.6812 62.9181 71.9602ZM65.6509 60.9896C65.6509 61.5532 65.4271 62.0937 65.0285 62.4922C64.63 62.8907 64.0895 63.1146 63.5259 63.1146H14.7541C14.1905 63.1146 13.65 62.8907 13.2515 62.4922C12.8529 62.0937 12.6291 61.5532 12.6291 60.9896C12.6291 60.426 12.8529 59.8855 13.2515 59.487C13.65 59.0885 14.1905 58.8646 14.7541 58.8646H63.5256C63.8047 58.8646 64.081 58.9196 64.3388 59.0263C64.5966 59.1331 64.8309 59.2897 65.0282 59.487C65.2256 59.6843 65.3821 59.9186 65.4889 60.1764C65.5957 60.4342 65.6509 60.7105 65.6509 60.9896ZM18.7472 33.7187H33.6166V48.5893H18.7472V33.7187ZM16.6222 52.8408H35.7425C36.3059 52.8403 36.8461 52.6163 37.2446 52.2179C37.643 51.8195 37.867 51.2793 37.8675 50.7158V31.5937C37.8671 31.0302 37.6431 30.4899 37.2446 30.0915C36.8462 29.6931 36.306 29.4691 35.7425 29.4687H16.6216C16.058 29.4687 15.5175 29.6925 15.119 30.0911C14.7204 30.4896 14.4966 31.0301 14.4966 31.5937V50.7152C14.4966 51.2788 14.7204 51.8193 15.119 52.2178C15.5175 52.6163 16.058 52.8402 16.6216 52.8402L16.6222 52.8408ZM37.7406 10.5596C38.0451 10.5597 38.3426 10.65 38.5957 10.8192C38.8488 10.9883 39.0461 11.2288 39.1626 11.51C39.279 11.7913 39.3095 12.1008 39.2501 12.3994C39.1907 12.6979 39.0441 12.9722 38.8288 13.1875C38.6135 13.4027 38.3393 13.5493 38.0407 13.6088C37.7421 13.6682 37.4326 13.6377 37.1514 13.5212C36.8701 13.4048 36.6297 13.2075 36.4605 12.9544C36.2913 12.7013 36.201 12.4037 36.2009 12.0993C36.2009 11.6909 36.3632 11.2993 36.6519 11.0106C36.9407 10.7218 37.3323 10.5596 37.7406 10.5596ZM37.7406 17.889C38.8859 17.8889 40.0053 17.5492 40.9575 16.9129C41.9097 16.2766 42.6518 15.3722 43.09 14.3142C43.5282 13.2561 43.6428 12.0918 43.4193 10.9686C43.1958 9.8454 42.6442 8.81369 41.8344 8.00396C41.0245 7.19423 39.9927 6.64283 38.8694 6.41951C37.7462 6.19618 36.582 6.31096 35.5239 6.74932C34.4659 7.18768 33.5617 7.92994 32.9255 8.88222C32.2894 9.83451 31.9499 10.9541 31.95 12.0993C31.9515 13.6345 32.5621 15.1064 33.6477 16.1919C34.7334 17.2774 36.2054 17.8877 37.7406 17.889ZM12.1063 10.5624C12.4107 10.5624 12.7083 10.6527 12.9614 10.8218C13.2146 10.991 13.4119 11.2314 13.5284 11.5126C13.6449 11.7939 13.6754 12.1034 13.6161 12.402C13.5567 12.7006 13.4101 12.9749 13.1949 13.1902C12.9796 13.4055 12.7053 13.5521 12.4068 13.6115C12.1082 13.671 11.7987 13.6405 11.5174 13.5241C11.2361 13.4076 10.9956 13.2104 10.8265 12.9572C10.6573 12.7041 10.5669 12.4065 10.5669 12.1021C10.5675 11.694 10.7299 11.3028 11.0185 11.0142C11.307 10.7256 11.6982 10.5632 12.1063 10.5624ZM12.1063 17.8918C13.2515 17.8917 14.371 17.5521 15.3232 16.9157C16.2753 16.2794 17.0174 15.3751 17.4556 14.317C17.8938 13.2589 18.0084 12.0946 17.7849 10.9714C17.5614 9.84821 17.0098 8.81651 16.2 8.00677C15.3901 7.19704 14.3583 6.64565 13.2351 6.42232C12.1118 6.199 10.9476 6.31377 9.88958 6.75213C8.83156 7.19049 7.9273 7.93275 7.29114 8.88504C6.65498 9.83732 6.3155 10.9569 6.31562 12.1021C6.31811 13.6369 6.92905 15.1081 8.01453 16.1932C9.10001 17.2782 10.5714 17.8886 12.1063 17.8905V17.8918ZM24.9231 10.5624C25.2276 10.5625 25.5251 10.6528 25.7782 10.822C26.0313 10.9911 26.2286 11.2316 26.3451 11.5128C26.4615 11.7941 26.492 12.1036 26.4326 12.4022C26.3732 12.7008 26.2266 12.975 26.0113 13.1903C25.796 13.4056 25.5218 13.5522 25.2232 13.6116C24.9246 13.671 24.6151 13.6405 24.3339 13.524C24.0526 13.4076 23.8122 13.2103 23.643 12.9572C23.4738 12.7041 23.3835 12.4065 23.3834 12.1021C23.3841 11.694 23.5465 11.3027 23.8351 11.0141C24.1237 10.7255 24.515 10.5631 24.9231 10.5624ZM24.9231 17.8918C26.0684 17.8917 27.1878 17.5521 28.14 16.9157C29.0922 16.2794 29.8343 15.3751 30.2725 14.317C30.7107 13.2589 30.8253 12.0946 30.6018 10.9714C30.3783 9.84821 29.8267 8.81651 29.0168 8.00677C28.207 7.19704 27.1752 6.64565 26.0519 6.42232C24.9287 6.199 23.7645 6.31377 22.7065 6.75213C21.6484 7.19049 20.7442 7.93275 20.108 8.88504C19.4719 9.83732 19.1324 10.9569 19.1325 12.1021C19.1346 13.6371 19.7455 15.1086 20.831 16.194C21.9165 17.2793 23.3881 17.8899 24.9231 17.8918ZM111.106 93.2758C111.309 93.2758 111.508 93.3359 111.677 93.4487C111.846 93.5615 111.977 93.7218 112.055 93.9093C112.133 94.0969 112.153 94.3033 112.113 94.5025C112.074 94.7016 111.976 94.8846 111.833 95.0282C111.689 95.1718 111.506 95.2696 111.307 95.3092C111.108 95.3488 110.901 95.3285 110.714 95.2508C110.526 95.1732 110.366 95.0416 110.253 94.8728C110.14 94.7039 110.08 94.5054 110.08 94.3024C110.08 94.0302 110.188 93.7691 110.381 93.5766C110.573 93.3841 110.834 93.2759 111.106 93.2758ZM111.106 99.5793C112.15 99.5793 113.17 99.2698 114.038 98.6899C114.906 98.11 115.582 97.2858 115.982 96.3215C116.381 95.3572 116.486 94.2961 116.282 93.2724C116.078 92.2488 115.576 91.3085 114.838 90.5704C114.1 89.8324 113.159 89.3299 112.136 89.1263C111.112 88.9227 110.051 89.0272 109.087 89.4267C108.122 89.8262 107.298 90.5026 106.718 91.3705C106.138 92.2383 105.829 93.2587 105.829 94.3024C105.83 95.7016 106.387 97.0432 107.376 98.0325C108.365 99.0219 109.707 99.5782 111.106 99.5793ZM98.5 93.2758C98.703 93.2758 98.9015 93.336 99.0703 93.4488C99.2391 93.5616 99.3707 93.722 99.4484 93.9096C99.5261 94.0971 99.5464 94.3035 99.5068 94.5027C99.4672 94.7018 99.3695 94.8847 99.2259 95.0283C99.0823 95.1719 98.8994 95.2696 98.7003 95.3092C98.5011 95.3489 98.2947 95.3285 98.1071 95.2508C97.9196 95.1731 97.7592 95.0415 97.6464 94.8727C97.5336 94.7039 97.4734 94.5054 97.4734 94.3024C97.4735 94.0302 97.5817 93.7691 97.7742 93.5766C97.9667 93.3841 98.2278 93.2759 98.5 93.2758ZM98.5 99.5793C99.5437 99.5791 100.564 99.2695 101.432 98.6896C102.299 98.1096 102.976 97.2854 103.375 96.3211C103.774 95.3568 103.879 94.2957 103.675 93.2721C103.471 92.2484 102.969 91.3082 102.231 90.5702C101.492 89.8323 100.552 89.3298 99.5285 89.1262C98.5048 88.9227 97.4438 89.0273 96.4795 89.4268C95.5153 89.8262 94.6912 90.5027 94.1114 91.3705C93.5316 92.2384 93.2221 93.2587 93.2222 94.3024C93.2234 95.7017 93.7798 97.0434 94.7694 98.0328C95.7589 99.0221 97.1007 99.5784 98.5 99.5793ZM130.318 94.3021C130.319 93.7387 130.543 93.1986 130.942 92.8002C131.34 92.4018 131.88 92.1777 132.443 92.1771H140.202C140.765 92.1771 141.306 92.401 141.704 92.7995C142.103 93.198 142.327 93.7385 142.327 94.3021C142.327 94.8657 142.103 95.4062 141.704 95.8047C141.306 96.2032 140.765 96.4271 140.202 96.4271H132.444C131.88 96.4271 131.34 96.2032 130.941 95.8047C130.543 95.4062 130.318 94.8657 130.318 94.3021ZM117.711 94.3021C117.711 94.023 117.766 93.7467 117.873 93.4889C117.98 93.2311 118.136 92.9968 118.334 92.7995C118.531 92.6022 118.765 92.4456 119.023 92.3388C119.281 92.2321 119.557 92.1771 119.836 92.1771H127.594C128.157 92.1771 128.698 92.401 129.096 92.7995C129.495 93.198 129.719 93.7385 129.719 94.3021C129.719 94.8657 129.495 95.4062 129.096 95.8047C128.698 96.2032 128.157 96.4271 127.594 96.4271H119.836C119.557 96.4271 119.281 96.3721 119.023 96.2653C118.765 96.1585 118.531 96.002 118.334 95.8047C118.136 95.6074 117.98 95.3731 117.873 95.1153C117.766 94.8575 117.711 94.5811 117.711 94.3021ZM85.2456 93.2758C85.4487 93.2758 85.6472 93.3359 85.816 93.4487C85.9849 93.5615 86.1165 93.7218 86.1943 93.9093C86.272 94.0969 86.2924 94.3033 86.2528 94.5025C86.2132 94.7016 86.1155 94.8846 85.9719 95.0282C85.8284 95.1718 85.6455 95.2696 85.4463 95.3092C85.2472 95.3488 85.0408 95.3285 84.8532 95.2508C84.6656 95.1732 84.5052 95.0416 84.3924 94.8728C84.2796 94.7039 84.2194 94.5054 84.2194 94.3024C84.22 94.0304 84.3283 93.7696 84.5206 93.5773C84.7129 93.3849 84.9736 93.2765 85.2456 93.2758ZM85.2456 99.5793C86.2894 99.5793 87.3097 99.2699 88.1776 98.69C89.0455 98.1102 89.7219 97.286 90.1214 96.3217C90.5208 95.3574 90.6254 94.2963 90.4217 93.2726C90.2181 92.2489 89.7155 91.3086 88.9775 90.5705C88.2394 89.8325 87.2991 89.3299 86.2754 89.1263C85.2517 88.9227 84.1906 89.0272 83.2263 89.4267C82.262 89.8261 81.4378 90.5026 80.858 91.3704C80.2781 92.2383 79.9687 93.2586 79.9688 94.3024C79.9699 95.7017 80.5263 97.0433 81.5158 98.0327C82.5053 99.022 83.847 99.5783 85.2462 99.5793H85.2456ZM98.5 63.7624C98.7029 63.7625 98.9011 63.8228 99.0697 63.9355C99.2383 64.0483 99.3697 64.2085 99.4473 64.396C99.5249 64.5834 99.5452 64.7896 99.5056 64.9885C99.466 65.1875 99.3683 65.3702 99.2249 65.5137C99.0815 65.6571 98.8988 65.7549 98.6999 65.7945C98.5009 65.8341 98.2947 65.8139 98.1073 65.7364C97.9198 65.6589 97.7596 65.5275 97.6468 65.3589C97.5339 65.1904 97.4736 64.9921 97.4734 64.7893C97.4734 64.6544 97.4998 64.5209 97.5514 64.3963C97.603 64.2717 97.6786 64.1585 97.7739 64.0631C97.8692 63.9677 97.9824 63.8921 98.107 63.8405C98.2316 63.7889 98.3652 63.7624 98.5 63.7624ZM98.5 70.0652C99.5437 70.065 100.564 69.7554 101.432 69.1754C102.299 68.5954 102.975 67.7711 103.375 66.8068C103.774 65.8426 103.878 64.7815 103.674 63.7579C103.471 62.7344 102.968 61.7942 102.23 61.0564C101.492 60.3185 100.551 59.8161 99.5276 59.6127C98.504 59.4093 97.443 59.5139 96.4788 59.9135C95.5147 60.3131 94.6907 60.9896 94.111 61.8574C93.5313 62.7253 93.222 63.7456 93.2222 64.7893C93.2236 66.1884 93.7802 67.5299 94.7697 68.519C95.7592 69.5082 97.1008 70.0643 98.5 70.0652ZM130.318 64.7893C130.319 64.2258 130.543 63.6856 130.941 63.2871C131.34 62.8887 131.88 62.6647 132.443 62.6643H140.202C140.765 62.6643 141.306 62.8882 141.704 63.2867C142.103 63.6852 142.327 64.2257 142.327 64.7893C142.327 65.3529 142.103 65.8934 141.704 66.2919C141.306 66.6904 140.765 66.9143 140.202 66.9143H132.444C131.88 66.9143 131.34 66.6904 130.941 66.2919C130.543 65.8934 130.318 65.3529 130.318 64.7893ZM117.711 64.7893C117.711 64.5102 117.766 64.2339 117.873 63.9761C117.98 63.7183 118.136 63.484 118.334 63.2867C118.531 63.0893 118.765 62.9328 119.023 62.826C119.281 62.7192 119.557 62.6643 119.836 62.6643H127.594C128.157 62.6643 128.698 62.8882 129.096 63.2867C129.495 63.6852 129.719 64.2257 129.719 64.7893C129.719 65.3529 129.495 65.8934 129.096 66.2919C128.698 66.6904 128.157 66.9143 127.594 66.9143H119.836C119.557 66.9145 119.281 66.8597 119.023 66.753C118.765 66.6463 118.53 66.4898 118.333 66.2924C118.136 66.0951 117.979 65.8607 117.873 65.6028C117.766 65.3448 117.711 65.0684 117.711 64.7893ZM105.104 64.7893C105.104 64.2257 105.328 63.6852 105.727 63.2867C106.125 62.8882 106.666 62.6643 107.229 62.6643H114.988C115.551 62.6643 116.092 62.8882 116.49 63.2867C116.889 63.6852 117.113 64.2257 117.113 64.7893C117.113 65.3529 116.889 65.8934 116.49 66.2919C116.092 66.6904 115.551 66.9143 114.988 66.9143H107.229C106.95 66.9146 106.673 66.8598 106.416 66.7531C106.158 66.6464 105.923 66.4899 105.726 66.2925C105.528 66.0951 105.372 65.8608 105.265 65.6028C105.159 65.3449 105.104 65.0684 105.104 64.7893H105.104ZM85.2456 63.7624C85.4485 63.7625 85.6468 63.8227 85.8154 63.9354C85.9841 64.0481 86.1155 64.2083 86.1932 64.3957C86.2708 64.5831 86.2911 64.7894 86.2516 64.9883C86.212 65.1873 86.1144 65.3701 85.971 65.5136C85.8276 65.6571 85.6449 65.7548 85.4459 65.7945C85.247 65.8341 85.0407 65.8139 84.8533 65.7364C84.6658 65.6589 84.5055 65.5276 84.3927 65.359C84.2799 65.1904 84.2196 64.9921 84.2194 64.7893C84.2197 64.5172 84.3279 64.2562 84.5203 64.0638C84.7127 63.8713 84.9735 63.7629 85.2456 63.7624ZM85.2456 70.0652C86.2893 70.0652 87.3096 69.7557 88.1774 69.1758C89.0452 68.596 89.7215 67.7718 90.1209 66.8075C90.5203 65.8432 90.6247 64.7822 90.421 63.7585C90.2174 62.7349 89.7147 61.7946 88.9766 61.0567C88.2385 60.3188 87.2982 59.8163 86.2745 59.6128C85.2508 59.4092 84.1898 59.5139 83.2256 59.9134C82.2614 60.313 81.4373 60.9894 80.8576 61.8573C80.2779 62.7252 79.9686 63.7456 79.9688 64.7893C79.9702 66.1884 80.5267 67.5298 81.5161 68.5189C82.5056 69.5081 83.8471 70.0642 85.2462 70.0652H85.2456ZM130.318 35.2743C130.318 34.7107 130.542 34.1702 130.94 33.7717C131.339 33.3732 131.879 33.1493 132.443 33.1493H140.201C140.765 33.1493 141.305 33.3732 141.704 33.7717C142.102 34.1702 142.326 34.7107 142.326 35.2743C142.326 35.8379 142.102 36.3784 141.704 36.7769C141.305 37.1754 140.765 37.3993 140.201 37.3993H132.444C131.88 37.3988 131.34 37.1747 130.942 36.7763C130.543 36.3779 130.319 35.8377 130.319 35.2743H130.318ZM117.711 35.2743C117.711 34.7107 117.935 34.1702 118.333 33.7717C118.732 33.3732 119.272 33.1493 119.836 33.1493H127.594C128.157 33.1493 128.698 33.3732 129.096 33.7717C129.495 34.1702 129.719 34.7107 129.719 35.2743C129.719 35.8379 129.495 36.3784 129.096 36.7769C128.698 37.1754 128.157 37.3993 127.594 37.3993H119.836C119.557 37.3993 119.281 37.3443 119.023 37.2375C118.765 37.1307 118.531 36.9742 118.334 36.7769C118.136 36.5796 117.98 36.3453 117.873 36.0875C117.766 35.8297 117.711 35.5533 117.711 35.2743H117.711ZM105.104 35.2743C105.104 34.7107 105.328 34.1702 105.726 33.7717C106.125 33.3732 106.665 33.1493 107.229 33.1493H114.987C115.551 33.1493 116.091 33.3732 116.49 33.7717C116.888 34.1702 117.112 34.7107 117.112 35.2743C117.112 35.8379 116.888 36.3784 116.49 36.7769C116.091 37.1754 115.551 37.3993 114.987 37.3993H107.229C106.665 37.3993 106.125 37.1754 105.726 36.7769C105.328 36.3784 105.104 35.8379 105.104 35.2743H105.104ZM92.4966 35.2743C92.4966 34.7107 92.7205 34.1702 93.119 33.7717C93.5175 33.3732 94.058 33.1493 94.6216 33.1493H102.38C102.943 33.1493 103.484 33.3732 103.882 33.7717C104.281 34.1702 104.505 34.7107 104.505 35.2743C104.505 35.8379 104.281 36.3784 103.882 36.7769C103.484 37.1754 102.943 37.3993 102.38 37.3993H94.6219C94.0583 37.3993 93.5178 37.1754 93.1193 36.7769C92.7208 36.3784 92.4966 35.8379 92.4966 35.2743ZM85.2466 34.2477C85.4497 34.2476 85.6483 34.3077 85.8172 34.4205C85.9861 34.5332 86.1179 34.6935 86.1957 34.8811C86.2735 35.0687 86.294 35.2752 86.2544 35.4744C86.2149 35.6737 86.1172 35.8567 85.9736 36.0004C85.8301 36.1441 85.6471 36.2419 85.4479 36.2817C85.2487 36.3214 85.0423 36.3011 84.8546 36.2235C84.6669 36.1458 84.5065 36.0142 84.3936 35.8454C84.2807 35.6766 84.2204 35.478 84.2203 35.2749C84.2206 35.0027 84.3288 34.7418 84.5212 34.5493C84.7136 34.3567 84.9744 34.2483 85.2466 34.2477ZM85.2466 40.5521C86.2904 40.552 87.3107 40.2425 88.1785 39.6625C89.0464 39.0826 89.7228 38.2583 90.1221 37.2939C90.5215 36.3296 90.626 35.2684 90.4223 34.2447C90.2186 33.221 89.7159 32.2806 88.9778 31.5426C88.2397 30.8046 87.2993 30.302 86.2755 30.0984C85.2518 29.8949 84.1907 29.9994 83.2263 30.3989C82.262 30.7984 81.4378 31.4749 80.858 32.3428C80.2781 33.2107 79.9687 34.2311 79.9688 35.2749C79.9706 36.674 80.5272 38.0153 81.5165 39.0045C82.5059 39.9938 83.8472 40.5504 85.2462 40.5521H85.2466ZM137.903 53.384H84.4341V46.679H137.903V53.384ZM145.75 59.8293C145.749 59.2474 145.518 58.6895 145.106 58.2781C144.695 57.8667 144.137 57.6354 143.555 57.6349H78.7737C78.1924 57.6358 77.6351 57.8673 77.2242 58.2786C76.8133 58.6898 76.5823 59.2473 76.5819 59.8287V69.7499C76.5827 70.3311 76.814 70.8883 77.225 71.2992C77.636 71.7102 78.1932 71.9413 78.7744 71.9421H143.553C144.135 71.9422 144.693 71.7114 145.105 71.3004C145.517 70.8894 145.749 70.3317 145.75 69.7499V59.8293ZM137.9 82.8971H84.4312V76.1927H137.9V82.8971ZM145.75 89.3437C145.749 88.7618 145.518 88.204 145.106 87.7926C144.695 87.3811 144.137 87.1496 143.555 87.1487H78.7737C78.1923 87.1501 77.6352 87.382 77.2244 87.7934C76.8136 88.2048 76.5825 88.7622 76.5819 89.3437V99.264C76.5827 99.8452 76.814 100.402 77.225 100.813C77.636 101.224 78.1932 101.455 78.7744 101.456H143.553C144.135 101.456 144.693 101.225 145.105 100.814C145.516 100.403 145.748 99.8451 145.749 99.2633V89.3437H145.75ZM4.25 78.8012C4.25232 80.536 4.94266 82.1991 6.16959 83.4256C7.39651 84.6521 9.05984 85.3419 10.7947 85.3437H73.7322C74.3336 84.5815 75.0998 83.9654 75.9732 83.5415C76.8467 83.1177 77.8048 82.897 78.7756 82.8961H80.1819V76.1927H78.7756C77.0672 76.1911 75.4293 75.5118 74.2211 74.3039C73.013 73.0961 72.3333 71.4583 72.3313 69.7499V59.8296C72.3331 58.121 73.0124 56.483 74.2204 55.2746C75.4283 54.0663 77.0661 53.3864 78.7747 53.384H80.1809V46.679H78.7747C77.0663 46.6767 75.4284 45.997 74.2205 44.7888C73.0126 43.5807 72.3332 41.9427 72.3313 40.2343V30.3152C72.333 28.6066 73.0123 26.9685 74.2203 25.7602C75.4282 24.5518 77.0661 23.8719 78.7747 23.8696H101.982V23.7427H4.25V78.8012ZM10.7947 4.54335C9.05948 4.5455 7.39597 5.2358 6.16905 6.46284C4.94213 7.68988 4.25198 9.35346 4.25 11.0887V19.4912H101.982V11.089C101.98 9.35347 101.29 7.68962 100.063 6.46249C98.8354 5.23536 97.1714 4.54517 95.4359 4.54335H10.7947ZM145.75 30.3152C145.749 29.7333 145.518 29.1753 145.106 28.7639C144.695 28.3524 144.137 28.121 143.555 28.1205H78.7737C78.1923 28.1215 77.635 28.3531 77.2241 28.7645C76.8132 29.1759 76.5822 29.7335 76.5819 30.3149V40.2343C76.5825 40.8157 76.8136 41.3732 77.2246 41.7844C77.6356 42.1957 78.193 42.4271 78.7744 42.428H143.553C144.135 42.4276 144.693 42.1963 145.105 41.7849C145.517 41.3735 145.748 40.8156 145.749 40.2337V30.3152H145.75ZM143.555 46.679C145.264 46.6772 146.902 45.9977 148.11 44.7896C149.318 43.5814 149.998 41.9433 150 40.2346V30.3152C149.998 28.6062 149.318 26.9677 148.11 25.7594C146.901 24.551 145.262 23.8715 143.553 23.8699H106.233V11.0887C106.229 8.22617 105.091 5.48192 103.066 3.45798C101.042 1.43404 98.2978 0.295702 95.4353 0.292725H10.7947C7.9326 0.296364 5.18881 1.43504 3.16516 3.45899C1.14151 5.48293 0.00322495 8.22689 0 11.089V78.8012C0.00347317 81.663 1.14184 84.4066 3.16542 86.4302C5.18899 88.4538 7.93257 89.5923 10.7944 89.5958H72.3313V99.2637C72.3332 100.972 73.0125 102.61 74.2204 103.818C75.4282 105.026 77.0658 105.705 78.7741 105.707H143.555C145.264 105.706 146.902 105.026 148.11 103.818C149.318 102.61 149.998 100.972 150 99.2637V89.3437C149.998 87.6346 149.318 85.9962 148.109 84.7878C146.901 83.5794 145.262 82.8997 143.553 82.8977H142.151V76.1927H143.554C145.263 76.1913 146.901 75.5122 148.109 74.3043C149.318 73.0964 149.998 71.4585 150 69.7499V59.8293C149.998 58.1203 149.318 56.4818 148.11 55.2735C146.901 54.0652 145.262 53.3858 143.553 53.3843H142.151V46.679H143.555ZM52.0447 10.4462H89.7787C90.1955 10.4462 90.5953 10.6117 90.89 10.9065C91.1847 11.2012 91.3503 11.6009 91.3503 12.0177C91.3503 12.4345 91.1847 12.8343 90.89 13.129C90.5953 13.4237 90.1955 13.5893 89.7787 13.5893H52.0447C51.6279 13.5893 51.2281 13.4237 50.9334 13.129C50.6387 12.8343 50.4731 12.4345 50.4731 12.0177C50.4731 11.6009 50.6387 11.2012 50.9334 10.9065C51.2281 10.6117 51.6279 10.4462 52.0447 10.4462ZM52.0447 17.8399C50.5005 17.8399 49.0197 17.2265 47.9278 16.1346C46.8359 15.0428 46.2225 13.5619 46.2225 12.0177C46.2225 10.4736 46.8359 8.99269 47.9278 7.90082C49.0197 6.80894 50.5005 6.19554 52.0447 6.19554H89.7784C91.3226 6.19554 92.8035 6.80894 93.8953 7.90082C94.9872 8.99269 95.6006 10.4736 95.6006 12.0177C95.6006 13.5619 94.9872 15.0428 93.8953 16.1346C92.8035 17.2265 91.3226 17.8399 89.7784 17.8399H52.0447Z" fill="#38B6FF"/>
</svg>
