<svg width="150" height="150" viewBox="0 0 150 150" fill="none" xmlns="http://www.w3.org/2000/svg">
<g id="Group">
<path id="Vector" fill-rule="evenodd" clip-rule="evenodd" d="M150 74.9999C149.999 89.833 145.6 104.333 137.359 116.666C129.118 128.999 117.405 138.611 103.701 144.288C89.9968 149.964 74.9173 151.449 60.3692 148.555C45.8211 145.662 32.4577 138.519 21.9688 128.031C14.9825 121.083 9.44355 112.819 5.67261 103.716C1.90167 94.6132 -0.0263857 84.8528 2.35298e-05 74.9999C2.35417e-05 74.4363 0.223907 73.8958 0.622422 73.4973C1.02094 73.0988 1.56144 72.8749 2.12502 72.8749C2.68861 72.8749 3.22911 73.0988 3.62763 73.4973C4.02614 73.8958 4.25002 74.4363 4.25002 74.9999C4.25002 114.012 35.9866 145.75 75 145.75C114.013 145.75 145.75 114.012 145.75 74.9999C145.75 35.9877 114.012 4.25146 75 4.25146C64.2428 4.26048 53.6287 6.7184 43.9625 11.4389C34.2962 16.1594 25.8315 23.0186 19.21 31.4965L28.1228 29.9415C28.3978 29.8934 28.6795 29.9 28.9519 29.9608C29.2244 30.0216 29.4821 30.1355 29.7105 30.2959C29.9389 30.4564 30.1335 30.6602 30.2831 30.8959C30.4327 31.1315 30.5345 31.3943 30.5825 31.6693C30.6306 31.9442 30.624 32.226 30.5632 32.4984C30.5024 32.7708 30.3885 33.0285 30.228 33.257C30.0676 33.4854 29.8637 33.6799 29.6281 33.8295C29.3925 33.9792 29.1297 34.0809 28.8547 34.129L14.6856 36.6005C14.3989 36.6505 14.1049 36.641 13.8219 36.5727C13.5389 36.5043 13.273 36.3786 13.0407 36.2032C12.8083 36.0279 12.6144 35.8066 12.4711 35.5532C12.3278 35.2998 12.2381 35.0197 12.2075 34.7302L10.6925 20.2971C10.6601 20.0179 10.6833 19.735 10.7609 19.4649C10.8385 19.1947 10.969 18.9426 11.1447 18.7232C11.3204 18.5039 11.5379 18.3215 11.7845 18.1867C12.0312 18.052 12.3022 17.9675 12.5817 17.9382C12.8613 17.9089 13.1439 17.9353 13.4131 18.016C13.6824 18.0967 13.933 18.2299 14.1503 18.4081C14.3677 18.5863 14.5476 18.8058 14.6796 19.054C14.8115 19.3022 14.8929 19.5741 14.9191 19.854L15.8666 28.8665C25.4742 16.5514 38.687 7.54313 53.6609 3.09905C68.6348 -1.34503 84.6226 -1.00319 99.3929 4.07685C114.163 9.15689 126.979 18.7216 136.051 31.4361C145.124 44.1506 150 59.3804 150 74.9999ZM83.8613 22.9874V66.1386H127.012C125.931 42.8321 107.168 24.0686 83.8613 22.9874ZM129.188 70.3902C129.751 70.3902 130.292 70.1663 130.69 69.7678C131.089 69.3693 131.313 68.8288 131.313 68.2652C131.313 40.929 109.072 18.6883 81.736 18.6883C81.1724 18.6883 80.6319 18.9122 80.2334 19.3107C79.8349 19.7092 79.611 20.2497 79.611 20.8133V68.2646C79.6117 68.8279 79.8358 69.368 80.2342 69.7664C80.6325 70.1647 81.1726 70.3888 81.736 70.3896L129.188 70.3902ZM101.769 112.234C108.887 104.443 113.053 94.4046 113.543 83.8624H73.3966L101.768 112.234H101.769ZM29.7066 105.535C33.2001 111.205 37.9014 116.035 43.4753 119.679C49.0492 123.324 55.3586 125.695 61.9536 126.621C68.5486 127.548 75.2669 127.009 81.6295 125.042C87.9922 123.074 93.8425 119.728 98.7635 115.24L67.8957 84.3724L29.7082 105.535H29.7066ZM66.1391 36.458C42.1278 37.573 22.9394 57.4537 22.9391 81.7352C22.9305 88.7024 24.5386 95.5765 27.6369 101.817L66.1391 80.484V36.458ZM68.2641 32.1583C40.9282 32.1583 18.6872 54.399 18.6872 81.7352C18.6872 109.071 40.9285 131.312 68.2644 131.312C95.6003 131.312 117.841 109.072 117.841 81.7355C117.841 81.1719 117.617 80.6314 117.219 80.2329C116.82 79.8344 116.28 79.6105 115.716 79.6105H70.3903V34.284C70.3904 34.0048 70.3355 33.7283 70.2287 33.4704C70.1219 33.2125 69.9653 32.9781 69.7679 32.7807C69.5705 32.5833 69.3362 32.4268 69.0783 32.32C68.8203 32.2132 68.5439 32.1582 68.2647 32.1583H68.2641Z" fill="#38B6FF"/>
<g id="Group_2">
<path id="Vector_2" fill-rule="evenodd" clip-rule="evenodd" d="M83.8613 22.9873V66.1386H127.012C125.931 42.8323 107.168 24.0686 83.8613 22.9873Z" fill="#99DAFF"/>
<path id="Vector_3" fill-rule="evenodd" clip-rule="evenodd" d="M98.762 115.239L67.8942 84.3708L29.7067 105.534C33.2002 111.204 37.9014 116.033 43.4754 119.678C49.0493 123.323 55.3587 125.693 61.9537 126.62C68.5487 127.547 75.267 127.007 81.6296 125.04C87.9922 123.073 93.8426 119.726 98.7635 115.239H98.762Z" fill="#99DAFF"/>
<path id="Vector_4" fill-rule="evenodd" clip-rule="evenodd" d="M66.1391 80.4839V36.458C42.1279 37.573 22.9394 57.4536 22.9391 81.7352C22.9305 88.7023 24.5386 95.5765 27.6369 101.817L66.1391 80.4839Z" fill="#99DAFF"/>
</g>
</g>
</svg>
