<svg width="35" height="21" viewBox="0 0 35 21" fill="none" xmlns="http://www.w3.org/2000/svg">
<g id="AUSTRALIA_2_">
<g id="Group">
<g id="Group_2">
<g id="Clip path group">
<mask id="mask0_2232_62507" style="mask-type:luminance" maskUnits="userSpaceOnUse" x="0" y="0" width="35" height="21">
<g id="SVGID_00000123402007188672039330000004463701757295784598_">
<path id="Vector" d="M34.3091 0.823975H0.746094V20.403H34.3091V0.823975Z" fill="white"/>
</g>
</mask>
<g mask="url(#mask0_2232_62507)">
<path id="Vector_2" d="M34.3091 0.823975H0.746094V20.403H34.3091V0.823975Z" fill="#180087"/>
</g>
</g>
<g id="Clip path group_2">
<mask id="mask1_2232_62507" style="mask-type:luminance" maskUnits="userSpaceOnUse" x="0" y="0" width="35" height="21">
<g id="SVGID_00000123402007188672039330000004463701757295784598__2">
<path id="Vector_3" d="M34.3091 0.823975H0.746094V20.403H34.3091V0.823975Z" fill="white"/>
</g>
</mask>
<g mask="url(#mask1_2232_62507)">
<path id="Vector_4" d="M9.5722 12.8188L10.0882 14.4099L11.6462 13.8178L10.7272 15.2078L12.1582 16.0598L10.4982 16.2038L10.7272 17.8548L9.5722 16.6478L8.42816 17.8548L8.65619 16.2038L6.99219 16.0598L8.42816 15.2078L7.50421 13.8178L9.06616 14.4099L9.5722 12.8188Z" fill="white"/>
</g>
</g>
<g id="Clip path group_3">
<mask id="mask2_2232_62507" style="mask-type:luminance" maskUnits="userSpaceOnUse" x="0" y="0" width="35" height="21">
<g id="SVGID_00000123402007188672039330000004463701757295784598__3">
<path id="Vector_5" d="M34.3091 0.823975H0.746094V20.403H34.3091V0.823975Z" fill="white"/>
</g>
</mask>
<g mask="url(#mask2_2232_62507)">
<path id="Vector_6" d="M27.2311 15.679L27.4791 16.436L28.2211 16.155L27.7831 16.817L28.4651 17.223L27.6701 17.291L27.7831 18.077L27.2311 17.501L26.6881 18.077L26.7971 17.291L26.0061 17.223L26.6881 16.817L26.2501 16.155L26.9921 16.436L27.2311 15.679Z" fill="white"/>
</g>
</g>
<g id="Clip path group_4">
<mask id="mask3_2232_62507" style="mask-type:luminance" maskUnits="userSpaceOnUse" x="0" y="0" width="35" height="21">
<g id="SVGID_00000123402007188672039330000004463701757295784598__4">
<path id="Vector_7" d="M34.3091 0.823975H0.746094V20.403H34.3091V0.823975Z" fill="white"/>
</g>
</mask>
<g mask="url(#mask3_2232_62507)">
<path id="Vector_8" d="M22.8201 8.68896L23.063 9.44498L23.8051 9.16296L23.3671 9.82697L24.0491 10.232L23.2581 10.299L23.3671 11.087L22.8201 10.511L22.2711 11.087L22.381 10.299L21.5901 10.232L22.2711 9.82697L21.834 9.16296L22.576 9.44498L22.8201 8.68896Z" fill="white"/>
</g>
</g>
<g id="Clip path group_5">
<mask id="mask4_2232_62507" style="mask-type:luminance" maskUnits="userSpaceOnUse" x="0" y="0" width="35" height="21">
<g id="SVGID_00000123402007188672039330000004463701757295784598__5">
<path id="Vector_9" d="M34.3091 0.823975H0.746094V20.403H34.3091V0.823975Z" fill="white"/>
</g>
</mask>
<g mask="url(#mask4_2232_62507)">
<path id="Vector_10" d="M27.2311 3.90601L27.4791 4.66299L28.2211 4.383L27.7831 5.043L28.4651 5.44901L27.6701 5.519L27.7831 6.304L27.2311 5.73L26.6881 6.304L26.7971 5.519L26.0061 5.44901L26.6881 5.043L26.2501 4.383L26.9921 4.66299L27.2311 3.90601Z" fill="white"/>
</g>
</g>
<g id="Clip path group_6">
<mask id="mask5_2232_62507" style="mask-type:luminance" maskUnits="userSpaceOnUse" x="0" y="0" width="35" height="21">
<g id="SVGID_00000123402007188672039330000004463701757295784598__6">
<path id="Vector_11" d="M34.3091 0.823975H0.746094V20.403H34.3091V0.823975Z" fill="white"/>
</g>
</mask>
<g mask="url(#mask5_2232_62507)">
<path id="Vector_12" d="M31.1602 7.51294L31.4002 8.26894L32.1482 7.98694L31.7052 8.64894L32.3912 9.05293L31.5962 9.12294L31.7092 9.91093L31.1602 9.33394L30.6132 9.91093L30.7232 9.12294L29.9302 9.05293L30.6132 8.64894L30.1762 7.98694L30.9182 8.26894L31.1602 7.51294Z" fill="white"/>
</g>
</g>
<g id="Clip path group_7">
<mask id="mask6_2232_62507" style="mask-type:luminance" maskUnits="userSpaceOnUse" x="0" y="0" width="35" height="21">
<g id="SVGID_00000123402007188672039330000004463701757295784598__7">
<path id="Vector_13" d="M34.3091 0.823975H0.746094V20.403H34.3091V0.823975Z" fill="white"/>
</g>
</mask>
<g mask="url(#mask6_2232_62507)">
<path id="Vector_14" d="M29.0002 11.054L29.1932 11.5249L29.6992 11.563L29.3132 11.891L29.4323 12.386L29.0002 12.116L28.5703 12.386L28.6902 11.891L28.3013 11.563L28.8093 11.5249L29.0002 11.054Z" fill="white"/>
</g>
</g>
<g id="Clip path group_8">
<mask id="mask7_2232_62507" style="mask-type:luminance" maskUnits="userSpaceOnUse" x="0" y="0" width="35" height="21">
<g id="SVGID_00000123402007188672039330000004463701757295784598__8">
<path id="Vector_15" d="M34.3091 0.823975H0.746094V20.403H34.3091V0.823975Z" fill="white"/>
</g>
</mask>
<g mask="url(#mask7_2232_62507)">
<path id="Vector_16" d="M8.10614 0.823975V3.76897H0.746094V6.71198H8.10614V9.65497H11.0451V6.71198H18.4081V3.76897H11.0451V0.823975H8.10614Z" fill="white"/>
</g>
</g>
<g id="Clip path group_9">
<mask id="mask8_2232_62507" style="mask-type:luminance" maskUnits="userSpaceOnUse" x="0" y="0" width="35" height="21">
<g id="SVGID_00000123402007188672039330000004463701757295784598__9">
<path id="Vector_17" d="M34.3091 0.823975H0.746094V20.403H34.3091V0.823975Z" fill="white"/>
</g>
</mask>
<g mask="url(#mask8_2232_62507)">
<path id="Vector_18" d="M0.746094 0.823975V1.81097L16.4321 9.65497H18.4041V8.66797L2.72113 0.823975H0.746094Z" fill="white"/>
</g>
</g>
<g id="Clip path group_10">
<mask id="mask9_2232_62507" style="mask-type:luminance" maskUnits="userSpaceOnUse" x="0" y="0" width="35" height="21">
<g id="SVGID_00000123402007188672039330000004463701757295784598__10">
<path id="Vector_19" d="M34.3091 0.823975H0.746094V20.403H34.3091V0.823975Z" fill="white"/>
</g>
</mask>
<g mask="url(#mask9_2232_62507)">
<path id="Vector_20" d="M16.4321 0.823975L0.746094 8.66797V9.65497H2.72113L18.4041 1.81097V0.823975H16.4321Z" fill="white"/>
</g>
</g>
<g id="Clip path group_11">
<mask id="mask10_2232_62507" style="mask-type:luminance" maskUnits="userSpaceOnUse" x="0" y="0" width="35" height="21">
<g id="SVGID_00000123402007188672039330000004463701757295784598__11">
<path id="Vector_21" d="M34.3091 0.823975H0.746094V20.403H34.3091V0.823975Z" fill="white"/>
</g>
</mask>
<g mask="url(#mask10_2232_62507)">
<path id="Vector_22" d="M8.6911 0.823975V4.35597H0.746094V6.12297H8.6911V9.65497H10.4571V6.12297H18.4041V4.35597H10.4571V0.823975H8.6911Z" fill="#EA0020"/>
</g>
</g>
<g id="Clip path group_12">
<mask id="mask11_2232_62507" style="mask-type:luminance" maskUnits="userSpaceOnUse" x="0" y="0" width="35" height="21">
<g id="SVGID_00000123402007188672039330000004463701757295784598__12">
<path id="Vector_23" d="M34.3091 0.823975H0.746094V20.403H34.3091V0.823975Z" fill="white"/>
</g>
</mask>
<g mask="url(#mask11_2232_62507)">
<path id="Vector_24" d="M0.746094 0.823975V1.48297L5.31213 3.76797H6.63214L0.746094 0.823975ZM17.0881 0.823975L11.2031 3.76797H12.5191L18.4041 0.823975H17.0881Z" fill="#EA0020"/>
</g>
</g>
<g id="Clip path group_13">
<mask id="mask12_2232_62507" style="mask-type:luminance" maskUnits="userSpaceOnUse" x="0" y="0" width="35" height="21">
<g id="SVGID_00000123402007188672039330000004463701757295784598__13">
<path id="Vector_25" d="M34.3091 0.823975H0.746094V20.403H34.3091V0.823975Z" fill="white"/>
</g>
</mask>
<g mask="url(#mask12_2232_62507)">
<path id="Vector_26" d="M6.63312 6.71191L0.746094 9.65491H2.06213L7.9491 6.71191H6.63312ZM12.5191 6.71191L18.4081 9.65491V8.9969L13.8361 6.71191H12.5191Z" fill="#EA0020"/>
</g>
</g>
</g>
</g>
</g>
</svg>
