<svg width="35" height="20" viewBox="0 0 35 20" fill="none" xmlns="http://www.w3.org/2000/svg">
<g id="CANADA_2_">
<g id="Group">
<g id="Group_2">
<g id="Clip path group">
<mask id="mask0_2232_43372" style="mask-type:luminance" maskUnits="userSpaceOnUse" x="0" y="0" width="35" height="20">
<g id="SVGID_00000007412665403631271880000017313914514663039650_">
<path id="Vector" d="M34.0781 0.10498H0.515137V19.683H34.0781V0.10498Z" fill="white"/>
</g>
</mask>
<g mask="url(#mask0_2232_43372)">
<path id="Vector_2" d="M8.41114 0.10498H0.515137V19.683H8.41114V0.10498Z" fill="#EA0020"/>
</g>
</g>
<g id="Clip path group_2">
<mask id="mask1_2232_43372" style="mask-type:luminance" maskUnits="userSpaceOnUse" x="0" y="0" width="35" height="20">
<g id="SVGID_00000007412665403631271880000017313914514663039650__2">
<path id="Vector_3" d="M34.0781 0.10498H0.515137V19.683H34.0781V0.10498Z" fill="white"/>
</g>
</mask>
<g mask="url(#mask1_2232_43372)">
<path id="Vector_4" d="M34.0771 0.10498H26.1821V19.683H34.0771V0.10498Z" fill="#EA0020"/>
</g>
</g>
<g id="Clip path group_3">
<mask id="mask2_2232_43372" style="mask-type:luminance" maskUnits="userSpaceOnUse" x="0" y="0" width="35" height="20">
<g id="SVGID_00000007412665403631271880000017313914514663039650__3">
<path id="Vector_5" d="M34.0781 0.10498H0.515137V19.683H34.0781V0.10498Z" fill="white"/>
</g>
</mask>
<g mask="url(#mask2_2232_43372)">
<path id="Vector_6" d="M26.1812 0.10498H8.41016V19.683H26.1812V0.10498Z" fill="white"/>
</g>
</g>
<g id="Clip path group_4">
<mask id="mask3_2232_43372" style="mask-type:luminance" maskUnits="userSpaceOnUse" x="0" y="0" width="35" height="20">
<g id="SVGID_00000007412665403631271880000017313914514663039650__4">
<path id="Vector_7" d="M34.0781 0.10498H0.515137V19.683H34.0781V0.10498Z" fill="white"/>
</g>
</mask>
<g mask="url(#mask3_2232_43372)">
<g id="Group_3">
<g id="Clip path group_5">
<mask id="mask4_2232_43372" style="mask-type:luminance" maskUnits="userSpaceOnUse" x="0" y="0" width="35" height="20">
<g id="SVGID_00000116927155514219881680000014891254825377363596_">
<path id="Vector_8" d="M34.0781 0.10498H0.515137V19.683H34.0781V0.10498Z" fill="white"/>
</g>
</mask>
<g mask="url(#mask4_2232_43372)">
<path id="Vector_9" d="M17.2963 2.64404L16.1313 4.90604C15.9993 5.15204 15.7633 5.12703 15.5263 4.99103L14.6823 4.53503L15.3113 8.01202C15.4443 8.64802 15.0193 8.64802 14.8103 8.37302L13.3393 6.65704L13.1003 7.52704C13.0743 7.64004 12.9533 7.76203 12.7703 7.73303L10.9113 7.32404L11.3993 9.17502C11.5053 9.58802 11.5853 9.75904 11.2943 9.86703L10.6313 10.191L13.8343 12.901C13.9593 13.005 14.0253 13.186 13.9783 13.354L13.6993 14.313C14.8003 14.181 15.7913 14.06 16.8903 13.927C16.9883 13.927 17.1523 14.014 17.1513 14.131L17.0053 17.641H17.5423L17.4563 14.139C17.4563 14.025 17.6043 13.927 17.7003 13.927C18.8043 14.06 19.7923 14.181 20.8943 14.313L20.6123 13.354C20.5693 13.186 20.6333 13.004 20.7583 12.901L23.9603 10.191L23.2973 9.86703C23.0053 9.75904 23.0873 9.58802 23.1923 9.17502L23.6813 7.32404L21.8213 7.73303C21.6383 7.76203 21.5183 7.64004 21.4913 7.52704L21.2533 6.65704L19.7813 8.37302C19.5723 8.64702 19.1483 8.64702 19.2813 8.01202L19.9083 4.53503L19.0673 4.99103C18.8293 5.12703 18.5913 5.15204 18.4623 4.90604L17.2963 2.64404Z" fill="#EA0020"/>
</g>
</g>
</g>
</g>
</g>
</g>
</g>
</g>
</svg>
