<svg width="34" height="21" viewBox="0 0 34 21" fill="none" xmlns="http://www.w3.org/2000/svg">
<g id="SINGAPORE_3_">
<g id="Group">
<g id="Group_2">
<g id="Clip path group">
<mask id="mask0_2232_22175" style="mask-type:luminance" maskUnits="userSpaceOnUse" x="0" y="0" width="34" height="21">
<g id="SVGID_00000183957639532157466360000008934447643963252411_">
<path id="Vector" d="M33.6968 0.664062H0.133789V20.2461H33.6968V0.664062Z" fill="white"/>
</g>
</mask>
<g mask="url(#mask0_2232_22175)">
<path id="Vector_2" d="M33.6968 0.664062H0.133789V10.4571H33.6968V0.664062Z" fill="#DA1841"/>
</g>
</g>
<g id="Clip path group_2">
<mask id="mask1_2232_22175" style="mask-type:luminance" maskUnits="userSpaceOnUse" x="0" y="0" width="34" height="21">
<g id="SVGID_00000183957639532157466360000008934447643963252411__2">
<path id="Vector_3" d="M33.6968 0.664062H0.133789V20.2461H33.6968V0.664062Z" fill="white"/>
</g>
</mask>
<g mask="url(#mask1_2232_22175)">
<path id="Vector_4" d="M33.6968 10.457H0.133789V20.246H33.6968V10.457Z" fill="white"/>
</g>
</g>
<g id="Clip path group_3">
<mask id="mask2_2232_22175" style="mask-type:luminance" maskUnits="userSpaceOnUse" x="0" y="0" width="34" height="21">
<g id="SVGID_00000183957639532157466360000008934447643963252411__3">
<path id="Vector_5" d="M33.6968 0.664062H0.133789V20.2461H33.6968V0.664062Z" fill="white"/>
</g>
</mask>
<g mask="url(#mask2_2232_22175)">
<g id="Group_3">
<g id="Clip path group_4">
<mask id="mask3_2232_22175" style="mask-type:luminance" maskUnits="userSpaceOnUse" x="0" y="0" width="34" height="21">
<g id="SVGID_00000114062369100748434600000010439676938435333555_">
<path id="Vector_6" d="M33.6968 0.664062H0.133789V20.2461H33.6968V0.664062Z" fill="white"/>
</g>
</mask>
<g mask="url(#mask3_2232_22175)">
<path id="Vector_7" d="M10.2048 5.55914C10.2048 7.59414 8.55777 9.24316 6.52377 9.24316C4.49177 9.24316 2.8418 7.59514 2.8418 5.55914C2.8418 3.52814 4.49077 1.87915 6.52377 1.87915C8.55777 1.87915 10.2048 3.52714 10.2048 5.55914Z" fill="white"/>
</g>
</g>
<g id="Clip path group_5">
<mask id="mask4_2232_22175" style="mask-type:luminance" maskUnits="userSpaceOnUse" x="0" y="0" width="34" height="21">
<g id="SVGID_00000114062369100748434600000010439676938435333555__2">
<path id="Vector_8" d="M33.6968 0.664062H0.133789V20.2461H33.6968V0.664062Z" fill="white"/>
</g>
</mask>
<g mask="url(#mask4_2232_22175)">
<path id="Vector_9" d="M11.3618 5.55902C11.3618 7.48502 9.80582 9.03903 7.88382 9.03903C5.96382 9.03903 4.40381 7.48402 4.40381 5.55902C4.40381 3.64102 5.96382 2.08203 7.88382 2.08203C9.80682 2.08203 11.3618 3.64102 11.3618 5.55902Z" fill="#DA1841"/>
</g>
</g>
<g id="Clip path group_6">
<mask id="mask5_2232_22175" style="mask-type:luminance" maskUnits="userSpaceOnUse" x="0" y="0" width="34" height="21">
<g id="SVGID_00000114062369100748434600000010439676938435333555__3">
<path id="Vector_10" d="M33.6968 0.664062H0.133789V20.2461H33.6968V0.664062Z" fill="white"/>
</g>
</mask>
<g mask="url(#mask5_2232_22175)">
<path id="Vector_11" d="M6.97891 5.64801L6.47992 5.26599L5.97791 5.64801L6.17191 5.03101L5.6709 4.64801L6.28992 4.65201L6.47992 4.03101L6.67191 4.65201L7.28891 4.64801L6.7869 5.03101L6.97891 5.64801Z" fill="white"/>
</g>
</g>
<g id="Clip path group_7">
<mask id="mask6_2232_22175" style="mask-type:luminance" maskUnits="userSpaceOnUse" x="0" y="0" width="34" height="21">
<g id="SVGID_00000114062369100748434600000010439676938435333555__4">
<path id="Vector_12" d="M33.6968 0.664062H0.133789V20.2461H33.6968V0.664062Z" fill="white"/>
</g>
</mask>
<g mask="url(#mask6_2232_22175)">
<path id="Vector_13" d="M10.9037 5.64801L10.4028 5.26599L9.90375 5.64801L10.0967 5.03101L9.59375 4.64801L10.2137 4.65201L10.4028 4.03101L10.5938 4.65201L11.2128 4.64801L10.7118 5.03101L10.9037 5.64801Z" fill="white"/>
</g>
</g>
<g id="Clip path group_8">
<mask id="mask7_2232_22175" style="mask-type:luminance" maskUnits="userSpaceOnUse" x="0" y="0" width="34" height="21">
<g id="SVGID_00000114062369100748434600000010439676938435333555__5">
<path id="Vector_14" d="M33.6968 0.664062H0.133789V20.2461H33.6968V0.664062Z" fill="white"/>
</g>
</mask>
<g mask="url(#mask7_2232_22175)">
<path id="Vector_15" d="M8.94177 4.19498L8.44278 3.80896L7.94379 4.19498L8.1348 3.57397L7.63379 3.19498H8.25278L8.44278 2.57397L8.6348 3.19498L9.25378 3.19098L8.7518 3.57397L8.94177 4.19498Z" fill="white"/>
</g>
</g>
<g id="Clip path group_9">
<mask id="mask8_2232_22175" style="mask-type:luminance" maskUnits="userSpaceOnUse" x="0" y="0" width="34" height="21">
<g id="SVGID_00000114062369100748434600000010439676938435333555__6">
<path id="Vector_16" d="M33.6968 0.664062H0.133789V20.2461H33.6968V0.664062Z" fill="white"/>
</g>
</mask>
<g mask="url(#mask8_2232_22175)">
<path id="Vector_17" d="M7.71481 7.98013L7.21283 7.59811L6.71381 7.98013L6.90582 7.35913L6.40381 6.98013H7.02283L7.21283 6.35913L7.40283 6.98013H8.02182L7.52081 7.35913L7.71481 7.98013Z" fill="white"/>
</g>
</g>
<g id="Clip path group_10">
<mask id="mask9_2232_22175" style="mask-type:luminance" maskUnits="userSpaceOnUse" x="0" y="0" width="34" height="21">
<g id="SVGID_00000114062369100748434600000010439676938435333555__7">
<path id="Vector_18" d="M33.6968 0.664062H0.133789V20.2461H33.6968V0.664062Z" fill="white"/>
</g>
</mask>
<g mask="url(#mask9_2232_22175)">
<path id="Vector_19" d="M10.1699 7.98013L9.66785 7.59811L9.16885 7.98013L9.36185 7.35913L8.86084 6.98013H9.47986L9.66785 6.35913L9.85886 6.98013H10.4768L9.97684 7.35913L10.1699 7.98013Z" fill="white"/>
</g>
</g>
</g>
</g>
</g>
</g>
</g>
</g>
</svg>
