<svg width="35" height="21" viewBox="0 0 35 21" fill="none" xmlns="http://www.w3.org/2000/svg">
<g id="USA_5_">
<g id="Group">
<g id="Group_2">
<g id="Clip path group">
<mask id="mask0_2232_61989" style="mask-type:luminance" maskUnits="userSpaceOnUse" x="0" y="0" width="35" height="21">
<g id="SVGID_00000048497127292166519320000002427616922020711845_">
<path id="Vector" d="M34.4331 0.823975H0.869141V20.402H34.4331V0.823975Z" fill="white"/>
</g>
</mask>
<g mask="url(#mask0_2232_61989)">
<path id="Vector_2" d="M34.4331 18.896H0.869141V20.402H34.4331V18.896Z" fill="#CB001C"/>
</g>
</g>
<g id="Clip path group_2">
<mask id="mask1_2232_61989" style="mask-type:luminance" maskUnits="userSpaceOnUse" x="0" y="0" width="35" height="21">
<g id="SVGID_00000048497127292166519320000002427616922020711845__2">
<path id="Vector_3" d="M34.4331 0.823975H0.869141V20.402H34.4331V0.823975Z" fill="white"/>
</g>
</mask>
<g mask="url(#mask1_2232_61989)">
<path id="Vector_4" d="M34.4331 17.3909H0.869141V18.8969H34.4331V17.3909Z" fill="white"/>
</g>
</g>
<g id="Clip path group_3">
<mask id="mask2_2232_61989" style="mask-type:luminance" maskUnits="userSpaceOnUse" x="0" y="0" width="35" height="21">
<g id="SVGID_00000048497127292166519320000002427616922020711845__3">
<path id="Vector_5" d="M34.4331 0.823975H0.869141V20.402H34.4331V0.823975Z" fill="white"/>
</g>
</mask>
<g mask="url(#mask2_2232_61989)">
<path id="Vector_6" d="M34.4331 15.886H0.869141V17.391H34.4331V15.886Z" fill="#CB001C"/>
</g>
</g>
<g id="Clip path group_4">
<mask id="mask3_2232_61989" style="mask-type:luminance" maskUnits="userSpaceOnUse" x="0" y="0" width="35" height="21">
<g id="SVGID_00000048497127292166519320000002427616922020711845__4">
<path id="Vector_7" d="M34.4331 0.823975H0.869141V20.402H34.4331V0.823975Z" fill="white"/>
</g>
</mask>
<g mask="url(#mask3_2232_61989)">
<path id="Vector_8" d="M34.4331 14.3799H0.869141V15.8859H34.4331V14.3799Z" fill="white"/>
</g>
</g>
<g id="Clip path group_5">
<mask id="mask4_2232_61989" style="mask-type:luminance" maskUnits="userSpaceOnUse" x="0" y="0" width="35" height="21">
<g id="SVGID_00000048497127292166519320000002427616922020711845__5">
<path id="Vector_9" d="M34.4331 0.823975H0.869141V20.402H34.4331V0.823975Z" fill="white"/>
</g>
</mask>
<g mask="url(#mask4_2232_61989)">
<path id="Vector_10" d="M34.4331 12.873H0.869141V14.3801H34.4331V12.873Z" fill="#CB001C"/>
</g>
</g>
<g id="Clip path group_6">
<mask id="mask5_2232_61989" style="mask-type:luminance" maskUnits="userSpaceOnUse" x="0" y="0" width="35" height="21">
<g id="SVGID_00000048497127292166519320000002427616922020711845__6">
<path id="Vector_11" d="M34.4331 0.823975H0.869141V20.402H34.4331V0.823975Z" fill="white"/>
</g>
</mask>
<g mask="url(#mask5_2232_61989)">
<path id="Vector_12" d="M34.4331 11.3679H0.869141V12.8729H34.4331V11.3679Z" fill="white"/>
</g>
</g>
<g id="Clip path group_7">
<mask id="mask6_2232_61989" style="mask-type:luminance" maskUnits="userSpaceOnUse" x="0" y="0" width="35" height="21">
<g id="SVGID_00000048497127292166519320000002427616922020711845__7">
<path id="Vector_13" d="M34.4331 0.823975H0.869141V20.402H34.4331V0.823975Z" fill="white"/>
</g>
</mask>
<g mask="url(#mask6_2232_61989)">
<path id="Vector_14" d="M34.4331 9.85986H0.869141V11.3679H34.4331V9.85986Z" fill="#CB001C"/>
</g>
</g>
<g id="Clip path group_8">
<mask id="mask7_2232_61989" style="mask-type:luminance" maskUnits="userSpaceOnUse" x="0" y="0" width="35" height="21">
<g id="SVGID_00000048497127292166519320000002427616922020711845__8">
<path id="Vector_15" d="M34.4331 0.823975H0.869141V20.402H34.4331V0.823975Z" fill="white"/>
</g>
</mask>
<g mask="url(#mask7_2232_61989)">
<path id="Vector_16" d="M34.4331 8.35498H0.869141V9.85999H34.4331V8.35498Z" fill="white"/>
</g>
</g>
<g id="Clip path group_9">
<mask id="mask8_2232_61989" style="mask-type:luminance" maskUnits="userSpaceOnUse" x="0" y="0" width="35" height="21">
<g id="SVGID_00000048497127292166519320000002427616922020711845__9">
<path id="Vector_17" d="M34.4331 0.823975H0.869141V20.402H34.4331V0.823975Z" fill="white"/>
</g>
</mask>
<g mask="url(#mask8_2232_61989)">
<path id="Vector_18" d="M34.4331 6.8501H0.869141V8.35609H34.4331V6.8501Z" fill="#CB001C"/>
</g>
</g>
<g id="Clip path group_10">
<mask id="mask9_2232_61989" style="mask-type:luminance" maskUnits="userSpaceOnUse" x="0" y="0" width="35" height="21">
<g id="SVGID_00000048497127292166519320000002427616922020711845__10">
<path id="Vector_19" d="M34.4331 0.823975H0.869141V20.402H34.4331V0.823975Z" fill="white"/>
</g>
</mask>
<g mask="url(#mask9_2232_61989)">
<path id="Vector_20" d="M34.4331 5.34302H0.869141V6.85002H34.4331V5.34302Z" fill="white"/>
</g>
</g>
<g id="Clip path group_11">
<mask id="mask10_2232_61989" style="mask-type:luminance" maskUnits="userSpaceOnUse" x="0" y="0" width="35" height="21">
<g id="SVGID_00000048497127292166519320000002427616922020711845__11">
<path id="Vector_21" d="M34.4331 0.823975H0.869141V20.402H34.4331V0.823975Z" fill="white"/>
</g>
</mask>
<g mask="url(#mask10_2232_61989)">
<path id="Vector_22" d="M34.4331 3.83691H0.869141V5.34291H34.4331V3.83691Z" fill="#CB001C"/>
</g>
</g>
<g id="Clip path group_12">
<mask id="mask11_2232_61989" style="mask-type:luminance" maskUnits="userSpaceOnUse" x="0" y="0" width="35" height="21">
<g id="SVGID_00000048497127292166519320000002427616922020711845__12">
<path id="Vector_23" d="M34.4331 0.823975H0.869141V20.402H34.4331V0.823975Z" fill="white"/>
</g>
</mask>
<g mask="url(#mask11_2232_61989)">
<path id="Vector_24" d="M34.4331 2.33105H0.869141V3.83707H34.4331V2.33105Z" fill="white"/>
</g>
</g>
<g id="Clip path group_13">
<mask id="mask12_2232_61989" style="mask-type:luminance" maskUnits="userSpaceOnUse" x="0" y="0" width="35" height="21">
<g id="SVGID_00000048497127292166519320000002427616922020711845__13">
<path id="Vector_25" d="M34.4331 0.823975H0.869141V20.402H34.4331V0.823975Z" fill="white"/>
</g>
</mask>
<g mask="url(#mask12_2232_61989)">
<path id="Vector_26" d="M34.4331 0.823975H0.869141V2.33096H34.4331V0.823975Z" fill="#CB001C"/>
</g>
</g>
<g id="Clip path group_14">
<mask id="mask13_2232_61989" style="mask-type:luminance" maskUnits="userSpaceOnUse" x="0" y="0" width="35" height="21">
<g id="SVGID_00000048497127292166519320000002427616922020711845__14">
<path id="Vector_27" d="M34.4331 0.823975H0.869141V20.402H34.4331V0.823975Z" fill="white"/>
</g>
</mask>
<g mask="url(#mask13_2232_61989)">
<path id="Vector_28" d="M16.1971 0.823975H0.869141V11.368H16.1971V0.823975Z" fill="#2A3560"/>
</g>
</g>
<g id="Clip path group_15">
<mask id="mask14_2232_61989" style="mask-type:luminance" maskUnits="userSpaceOnUse" x="0" y="0" width="35" height="21">
<g id="SVGID_00000048497127292166519320000002427616922020711845__15">
<path id="Vector_29" d="M34.4331 0.823975H0.869141V20.402H34.4331V0.823975Z" fill="white"/>
</g>
</mask>
<g mask="url(#mask14_2232_61989)">
<path id="Vector_30" d="M2.25409 1.98584L2.38507 2.38585H2.80505L2.46509 2.63185L2.59406 3.02985L2.25409 2.78384L1.91406 3.02985L2.04706 2.63185L1.70703 2.38585H2.12305L2.25409 1.98584Z" fill="white"/>
</g>
</g>
<g id="Clip path group_16">
<mask id="mask15_2232_61989" style="mask-type:luminance" maskUnits="userSpaceOnUse" x="0" y="0" width="35" height="21">
<g id="SVGID_00000048497127292166519320000002427616922020711845__16">
<path id="Vector_31" d="M34.4331 0.823975H0.869141V20.402H34.4331V0.823975Z" fill="white"/>
</g>
</mask>
<g mask="url(#mask15_2232_61989)">
<path id="Vector_32" d="M2.25409 3.74707L2.38507 4.14508H2.80505L2.46509 4.39008L2.59406 4.79007L2.25409 4.54308L1.91406 4.79007L2.04706 4.39008L1.70703 4.14508H2.12305L2.25409 3.74707Z" fill="white"/>
</g>
</g>
<g id="Clip path group_17">
<mask id="mask16_2232_61989" style="mask-type:luminance" maskUnits="userSpaceOnUse" x="0" y="0" width="35" height="21">
<g id="SVGID_00000048497127292166519320000002427616922020711845__17">
<path id="Vector_33" d="M34.4331 0.823975H0.869141V20.402H34.4331V0.823975Z" fill="white"/>
</g>
</mask>
<g mask="url(#mask16_2232_61989)">
<path id="Vector_34" d="M2.25409 5.50708L2.38507 5.90408H2.80505L2.46509 6.15007L2.59406 6.55008L2.25409 6.30307L1.91406 6.55008L2.04706 6.15007L1.70703 5.90408H2.12305L2.25409 5.50708Z" fill="white"/>
</g>
</g>
<g id="Clip path group_18">
<mask id="mask17_2232_61989" style="mask-type:luminance" maskUnits="userSpaceOnUse" x="0" y="0" width="35" height="21">
<g id="SVGID_00000048497127292166519320000002427616922020711845__18">
<path id="Vector_35" d="M34.4331 0.823975H0.869141V20.402H34.4331V0.823975Z" fill="white"/>
</g>
</mask>
<g mask="url(#mask17_2232_61989)">
<path id="Vector_36" d="M2.25409 7.26587L2.38507 7.66486H2.80505L2.46509 7.91086L2.59406 8.30887L2.25409 8.06386L1.91406 8.30887L2.04706 7.91086L1.70703 7.66486H2.12305L2.25409 7.26587Z" fill="white"/>
</g>
</g>
<g id="Clip path group_19">
<mask id="mask18_2232_61989" style="mask-type:luminance" maskUnits="userSpaceOnUse" x="0" y="0" width="35" height="21">
<g id="SVGID_00000048497127292166519320000002427616922020711845__19">
<path id="Vector_37" d="M34.4331 0.823975H0.869141V20.402H34.4331V0.823975Z" fill="white"/>
</g>
</mask>
<g mask="url(#mask18_2232_61989)">
<path id="Vector_38" d="M2.25409 9.0249L2.38507 9.4259H2.80505L2.46509 9.66991L2.59406 10.0679L2.25409 9.82191L1.91406 10.0679L2.04706 9.66991L1.70703 9.4259H2.12305L2.25409 9.0249Z" fill="white"/>
</g>
</g>
<g id="Clip path group_20">
<mask id="mask19_2232_61989" style="mask-type:luminance" maskUnits="userSpaceOnUse" x="0" y="0" width="35" height="21">
<g id="SVGID_00000048497127292166519320000002427616922020711845__20">
<path id="Vector_39" d="M34.4331 0.823975H0.869141V20.402H34.4331V0.823975Z" fill="white"/>
</g>
</mask>
<g mask="url(#mask19_2232_61989)">
<path id="Vector_40" d="M3.48114 2.91309L3.60614 3.3131H4.0271L3.69012 3.56009L3.8161 3.95709L3.48114 3.7121L3.14313 3.95709L3.2691 3.56009L2.93213 3.3131H3.35211L3.48114 2.91309Z" fill="white"/>
</g>
</g>
<g id="Clip path group_21">
<mask id="mask20_2232_61989" style="mask-type:luminance" maskUnits="userSpaceOnUse" x="0" y="0" width="35" height="21">
<g id="SVGID_00000048497127292166519320000002427616922020711845__21">
<path id="Vector_41" d="M34.4331 0.823975H0.869141V20.402H34.4331V0.823975Z" fill="white"/>
</g>
</mask>
<g mask="url(#mask20_2232_61989)">
<path id="Vector_42" d="M3.48114 4.67407L3.60614 5.07108H4.0271L3.69012 5.31807L3.8161 5.71608L3.48114 5.47208L3.14313 5.71608L3.2691 5.31807L2.93213 5.07108H3.35211L3.48114 4.67407Z" fill="white"/>
</g>
</g>
<g id="Clip path group_22">
<mask id="mask21_2232_61989" style="mask-type:luminance" maskUnits="userSpaceOnUse" x="0" y="0" width="35" height="21">
<g id="SVGID_00000048497127292166519320000002427616922020711845__22">
<path id="Vector_43" d="M34.4331 0.823975H0.869141V20.402H34.4331V0.823975Z" fill="white"/>
</g>
</mask>
<g mask="url(#mask21_2232_61989)">
<path id="Vector_44" d="M3.48114 6.43408L3.60614 6.83208H4.0271L3.69012 7.07808L3.8161 7.47708L3.48114 7.23007L3.14313 7.47708L3.2691 7.07808L2.93213 6.83208H3.35211L3.48114 6.43408Z" fill="white"/>
</g>
</g>
<g id="Clip path group_23">
<mask id="mask22_2232_61989" style="mask-type:luminance" maskUnits="userSpaceOnUse" x="0" y="0" width="35" height="21">
<g id="SVGID_00000048497127292166519320000002427616922020711845__23">
<path id="Vector_45" d="M34.4331 0.823975H0.869141V20.402H34.4331V0.823975Z" fill="white"/>
</g>
</mask>
<g mask="url(#mask22_2232_61989)">
<path id="Vector_46" d="M3.48114 8.19385L3.60614 8.59184H4.0271L3.69012 8.83784L3.8161 9.23485L3.48114 8.98785L3.14313 9.23485L3.2691 8.83784L2.93213 8.59184H3.35211L3.48114 8.19385Z" fill="white"/>
</g>
</g>
<g id="Clip path group_24">
<mask id="mask23_2232_61989" style="mask-type:luminance" maskUnits="userSpaceOnUse" x="0" y="0" width="35" height="21">
<g id="SVGID_00000048497127292166519320000002427616922020711845__24">
<path id="Vector_47" d="M34.4331 0.823975H0.869141V20.402H34.4331V0.823975Z" fill="white"/>
</g>
</mask>
<g mask="url(#mask23_2232_61989)">
<path id="Vector_48" d="M4.71912 1.98584L4.8501 2.38585H5.2691L4.93011 2.63185L5.06012 3.02985L4.71912 2.78384L4.38312 3.02985L4.51215 2.63185L4.17212 2.38585H4.59015L4.71912 1.98584Z" fill="white"/>
</g>
</g>
<g id="Clip path group_25">
<mask id="mask24_2232_61989" style="mask-type:luminance" maskUnits="userSpaceOnUse" x="0" y="0" width="35" height="21">
<g id="SVGID_00000048497127292166519320000002427616922020711845__25">
<path id="Vector_49" d="M34.4331 0.823975H0.869141V20.402H34.4331V0.823975Z" fill="white"/>
</g>
</mask>
<g mask="url(#mask24_2232_61989)">
<path id="Vector_50" d="M4.71912 3.74707L4.8501 4.14508H5.2691L4.93011 4.39008L5.06012 4.79007L4.71912 4.54308L4.38312 4.79007L4.51215 4.39008L4.17212 4.14508H4.59015L4.71912 3.74707Z" fill="white"/>
</g>
</g>
<g id="Clip path group_26">
<mask id="mask25_2232_61989" style="mask-type:luminance" maskUnits="userSpaceOnUse" x="0" y="0" width="35" height="21">
<g id="SVGID_00000048497127292166519320000002427616922020711845__26">
<path id="Vector_51" d="M34.4331 0.823975H0.869141V20.402H34.4331V0.823975Z" fill="white"/>
</g>
</mask>
<g mask="url(#mask25_2232_61989)">
<path id="Vector_52" d="M4.71912 5.50708L4.8501 5.90408H5.2691L4.93011 6.15007L5.06012 6.55008L4.71912 6.30307L4.38312 6.55008L4.51215 6.15007L4.17212 5.90408H4.59015L4.71912 5.50708Z" fill="white"/>
</g>
</g>
<g id="Clip path group_27">
<mask id="mask26_2232_61989" style="mask-type:luminance" maskUnits="userSpaceOnUse" x="0" y="0" width="35" height="21">
<g id="SVGID_00000048497127292166519320000002427616922020711845__27">
<path id="Vector_53" d="M34.4331 0.823975H0.869141V20.402H34.4331V0.823975Z" fill="white"/>
</g>
</mask>
<g mask="url(#mask26_2232_61989)">
<path id="Vector_54" d="M4.71912 7.26587L4.8501 7.66486H5.2691L4.93011 7.91086L5.06012 8.30887L4.71912 8.06386L4.38312 8.30887L4.51215 7.91086L4.17212 7.66486H4.59015L4.71912 7.26587Z" fill="white"/>
</g>
</g>
<g id="Clip path group_28">
<mask id="mask27_2232_61989" style="mask-type:luminance" maskUnits="userSpaceOnUse" x="0" y="0" width="35" height="21">
<g id="SVGID_00000048497127292166519320000002427616922020711845__28">
<path id="Vector_55" d="M34.4331 0.823975H0.869141V20.402H34.4331V0.823975Z" fill="white"/>
</g>
</mask>
<g mask="url(#mask27_2232_61989)">
<path id="Vector_56" d="M4.71912 9.0249L4.8501 9.4259H5.2691L4.93011 9.66991L5.06012 10.0679L4.71912 9.82191L4.38312 10.0679L4.51215 9.66991L4.17212 9.4259H4.59015L4.71912 9.0249Z" fill="white"/>
</g>
</g>
<g id="Clip path group_29">
<mask id="mask28_2232_61989" style="mask-type:luminance" maskUnits="userSpaceOnUse" x="0" y="0" width="35" height="21">
<g id="SVGID_00000048497127292166519320000002427616922020711845__29">
<path id="Vector_57" d="M34.4331 0.823975H0.869141V20.402H34.4331V0.823975Z" fill="white"/>
</g>
</mask>
<g mask="url(#mask28_2232_61989)">
<path id="Vector_58" d="M5.94501 2.91309L6.07397 3.3131H6.49597L6.15399 3.56009L6.28497 3.95709L5.94501 3.7121L5.60699 3.95709L5.73798 3.56009L5.396 3.3131H5.81598L5.94501 2.91309Z" fill="white"/>
</g>
</g>
<g id="Clip path group_30">
<mask id="mask29_2232_61989" style="mask-type:luminance" maskUnits="userSpaceOnUse" x="0" y="0" width="35" height="21">
<g id="SVGID_00000048497127292166519320000002427616922020711845__30">
<path id="Vector_59" d="M34.4331 0.823975H0.869141V20.402H34.4331V0.823975Z" fill="white"/>
</g>
</mask>
<g mask="url(#mask29_2232_61989)">
<path id="Vector_60" d="M5.94501 4.67407L6.07397 5.07108H6.49597L6.15399 5.31807L6.28497 5.71608L5.94501 5.47208L5.60699 5.71608L5.73798 5.31807L5.396 5.07108H5.81598L5.94501 4.67407Z" fill="white"/>
</g>
</g>
<g id="Clip path group_31">
<mask id="mask30_2232_61989" style="mask-type:luminance" maskUnits="userSpaceOnUse" x="0" y="0" width="35" height="21">
<g id="SVGID_00000048497127292166519320000002427616922020711845__31">
<path id="Vector_61" d="M34.4331 0.823975H0.869141V20.402H34.4331V0.823975Z" fill="white"/>
</g>
</mask>
<g mask="url(#mask30_2232_61989)">
<path id="Vector_62" d="M5.94501 6.43408L6.07397 6.83208H6.49597L6.15399 7.07808L6.28497 7.47708L5.94501 7.23007L5.60699 7.47708L5.73798 7.07808L5.396 6.83208H5.81598L5.94501 6.43408Z" fill="white"/>
</g>
</g>
<g id="Clip path group_32">
<mask id="mask31_2232_61989" style="mask-type:luminance" maskUnits="userSpaceOnUse" x="0" y="0" width="35" height="21">
<g id="SVGID_00000048497127292166519320000002427616922020711845__32">
<path id="Vector_63" d="M34.4331 0.823975H0.869141V20.402H34.4331V0.823975Z" fill="white"/>
</g>
</mask>
<g mask="url(#mask31_2232_61989)">
<path id="Vector_64" d="M5.94501 8.19385L6.07397 8.59184H6.49597L6.15399 8.83784L6.28497 9.23485L5.94501 8.98785L5.60699 9.23485L5.73798 8.83784L5.396 8.59184H5.81598L5.94501 8.19385Z" fill="white"/>
</g>
</g>
<g id="Clip path group_33">
<mask id="mask32_2232_61989" style="mask-type:luminance" maskUnits="userSpaceOnUse" x="0" y="0" width="35" height="21">
<g id="SVGID_00000048497127292166519320000002427616922020711845__33">
<path id="Vector_65" d="M34.4331 0.823975H0.869141V20.402H34.4331V0.823975Z" fill="white"/>
</g>
</mask>
<g mask="url(#mask32_2232_61989)">
<path id="Vector_66" d="M7.18811 1.98584L7.31812 2.38585H7.73413L7.3941 2.63185L7.52911 3.02985L7.18811 2.78384L6.84814 3.02985L6.97711 2.63185L6.64111 2.38585H7.05914L7.18811 1.98584Z" fill="white"/>
</g>
</g>
<g id="Clip path group_34">
<mask id="mask33_2232_61989" style="mask-type:luminance" maskUnits="userSpaceOnUse" x="0" y="0" width="35" height="21">
<g id="SVGID_00000048497127292166519320000002427616922020711845__34">
<path id="Vector_67" d="M34.4331 0.823975H0.869141V20.402H34.4331V0.823975Z" fill="white"/>
</g>
</mask>
<g mask="url(#mask33_2232_61989)">
<path id="Vector_68" d="M7.18811 3.74707L7.31812 4.14508H7.73413L7.3941 4.39008L7.52911 4.79007L7.18811 4.54308L6.84814 4.79007L6.97711 4.39008L6.64111 4.14508H7.05914L7.18811 3.74707Z" fill="white"/>
</g>
</g>
<g id="Clip path group_35">
<mask id="mask34_2232_61989" style="mask-type:luminance" maskUnits="userSpaceOnUse" x="0" y="0" width="35" height="21">
<g id="SVGID_00000048497127292166519320000002427616922020711845__35">
<path id="Vector_69" d="M34.4331 0.823975H0.869141V20.402H34.4331V0.823975Z" fill="white"/>
</g>
</mask>
<g mask="url(#mask34_2232_61989)">
<path id="Vector_70" d="M7.18811 5.50708L7.31812 5.90408H7.73413L7.3941 6.15007L7.52911 6.55008L7.18811 6.30307L6.84814 6.55008L6.97711 6.15007L6.64111 5.90408H7.05914L7.18811 5.50708Z" fill="white"/>
</g>
</g>
<g id="Clip path group_36">
<mask id="mask35_2232_61989" style="mask-type:luminance" maskUnits="userSpaceOnUse" x="0" y="0" width="35" height="21">
<g id="SVGID_00000048497127292166519320000002427616922020711845__36">
<path id="Vector_71" d="M34.4331 0.823975H0.869141V20.402H34.4331V0.823975Z" fill="white"/>
</g>
</mask>
<g mask="url(#mask35_2232_61989)">
<path id="Vector_72" d="M7.18811 7.26587L7.31812 7.66486H7.73413L7.3941 7.91086L7.52911 8.30887L7.18811 8.06386L6.84814 8.30887L6.97711 7.91086L6.64111 7.66486H7.05914L7.18811 7.26587Z" fill="white"/>
</g>
</g>
<g id="Clip path group_37">
<mask id="mask36_2232_61989" style="mask-type:luminance" maskUnits="userSpaceOnUse" x="0" y="0" width="35" height="21">
<g id="SVGID_00000048497127292166519320000002427616922020711845__37">
<path id="Vector_73" d="M34.4331 0.823975H0.869141V20.402H34.4331V0.823975Z" fill="white"/>
</g>
</mask>
<g mask="url(#mask36_2232_61989)">
<path id="Vector_74" d="M7.18811 9.0249L7.31812 9.4259H7.73413L7.3941 9.66991L7.52911 10.0679L7.18811 9.82191L6.84814 10.0679L6.97711 9.66991L6.64111 9.4259H7.05914L7.18811 9.0249Z" fill="white"/>
</g>
</g>
<g id="Clip path group_38">
<mask id="mask37_2232_61989" style="mask-type:luminance" maskUnits="userSpaceOnUse" x="0" y="0" width="35" height="21">
<g id="SVGID_00000048497127292166519320000002427616922020711845__38">
<path id="Vector_75" d="M34.4331 0.823975H0.869141V20.402H34.4331V0.823975Z" fill="white"/>
</g>
</mask>
<g mask="url(#mask37_2232_61989)">
<path id="Vector_76" d="M8.41425 2.91309L8.54327 3.3131H8.96124L8.62323 3.56009L8.75024 3.95709L8.41425 3.7121L8.07623 3.95709L8.20325 3.56009L7.86523 3.3131H8.28326L8.41425 2.91309Z" fill="white"/>
</g>
</g>
<g id="Clip path group_39">
<mask id="mask38_2232_61989" style="mask-type:luminance" maskUnits="userSpaceOnUse" x="0" y="0" width="35" height="21">
<g id="SVGID_00000048497127292166519320000002427616922020711845__39">
<path id="Vector_77" d="M34.4331 0.823975H0.869141V20.402H34.4331V0.823975Z" fill="white"/>
</g>
</mask>
<g mask="url(#mask38_2232_61989)">
<path id="Vector_78" d="M8.41425 4.67407L8.54327 5.07108H8.96124L8.62323 5.31807L8.75024 5.71608L8.41425 5.47208L8.07623 5.71608L8.20325 5.31807L7.86523 5.07108H8.28326L8.41425 4.67407Z" fill="white"/>
</g>
</g>
<g id="Clip path group_40">
<mask id="mask39_2232_61989" style="mask-type:luminance" maskUnits="userSpaceOnUse" x="0" y="0" width="35" height="21">
<g id="SVGID_00000048497127292166519320000002427616922020711845__40">
<path id="Vector_79" d="M34.4331 0.823975H0.869141V20.402H34.4331V0.823975Z" fill="white"/>
</g>
</mask>
<g mask="url(#mask39_2232_61989)">
<path id="Vector_80" d="M8.41425 6.43408L8.54327 6.83208H8.96124L8.62323 7.07808L8.75024 7.47708L8.41425 7.23007L8.07623 7.47708L8.20325 7.07808L7.86523 6.83208H8.28326L8.41425 6.43408Z" fill="white"/>
</g>
</g>
<g id="Clip path group_41">
<mask id="mask40_2232_61989" style="mask-type:luminance" maskUnits="userSpaceOnUse" x="0" y="0" width="35" height="21">
<g id="SVGID_00000048497127292166519320000002427616922020711845__41">
<path id="Vector_81" d="M34.4331 0.823975H0.869141V20.402H34.4331V0.823975Z" fill="white"/>
</g>
</mask>
<g mask="url(#mask40_2232_61989)">
<path id="Vector_82" d="M8.41425 8.19385L8.54327 8.59184H8.96124L8.62323 8.83784L8.75024 9.23485L8.41425 8.98785L8.07623 9.23485L8.20325 8.83784L7.86523 8.59184H8.28326L8.41425 8.19385Z" fill="white"/>
</g>
</g>
<g id="Clip path group_42">
<mask id="mask41_2232_61989" style="mask-type:luminance" maskUnits="userSpaceOnUse" x="0" y="0" width="35" height="21">
<g id="SVGID_00000048497127292166519320000002427616922020711845__42">
<path id="Vector_83" d="M34.4331 0.823975H0.869141V20.402H34.4331V0.823975Z" fill="white"/>
</g>
</mask>
<g mask="url(#mask41_2232_61989)">
<path id="Vector_84" d="M9.65216 1.98584L9.7832 2.38585H10.2012L9.86316 2.63185L9.9942 3.02985L9.65216 2.78384L9.31616 3.02985L9.44318 2.63185L9.1062 2.38585H9.52319L9.65216 1.98584Z" fill="white"/>
</g>
</g>
<g id="Clip path group_43">
<mask id="mask42_2232_61989" style="mask-type:luminance" maskUnits="userSpaceOnUse" x="0" y="0" width="35" height="21">
<g id="SVGID_00000048497127292166519320000002427616922020711845__43">
<path id="Vector_85" d="M34.4331 0.823975H0.869141V20.402H34.4331V0.823975Z" fill="white"/>
</g>
</mask>
<g mask="url(#mask42_2232_61989)">
<path id="Vector_86" d="M9.65216 3.74707L9.7832 4.14508H10.2012L9.86316 4.39008L9.9942 4.79007L9.65216 4.54308L9.31616 4.79007L9.44318 4.39008L9.1062 4.14508H9.52319L9.65216 3.74707Z" fill="white"/>
</g>
</g>
<g id="Clip path group_44">
<mask id="mask43_2232_61989" style="mask-type:luminance" maskUnits="userSpaceOnUse" x="0" y="0" width="35" height="21">
<g id="SVGID_00000048497127292166519320000002427616922020711845__44">
<path id="Vector_87" d="M34.4331 0.823975H0.869141V20.402H34.4331V0.823975Z" fill="white"/>
</g>
</mask>
<g mask="url(#mask43_2232_61989)">
<path id="Vector_88" d="M9.65216 5.50708L9.7832 5.90408H10.2012L9.86316 6.15007L9.9942 6.55008L9.65216 6.30307L9.31616 6.55008L9.44318 6.15007L9.1062 5.90408H9.52319L9.65216 5.50708Z" fill="white"/>
</g>
</g>
<g id="Clip path group_45">
<mask id="mask44_2232_61989" style="mask-type:luminance" maskUnits="userSpaceOnUse" x="0" y="0" width="35" height="21">
<g id="SVGID_00000048497127292166519320000002427616922020711845__45">
<path id="Vector_89" d="M34.4331 0.823975H0.869141V20.402H34.4331V0.823975Z" fill="white"/>
</g>
</mask>
<g mask="url(#mask44_2232_61989)">
<path id="Vector_90" d="M9.65216 7.26587L9.7832 7.66486H10.2012L9.86316 7.91086L9.9942 8.30887L9.65216 8.06386L9.31616 8.30887L9.44318 7.91086L9.1062 7.66486H9.52319L9.65216 7.26587Z" fill="white"/>
</g>
</g>
<g id="Clip path group_46">
<mask id="mask45_2232_61989" style="mask-type:luminance" maskUnits="userSpaceOnUse" x="0" y="0" width="35" height="21">
<g id="SVGID_00000048497127292166519320000002427616922020711845__46">
<path id="Vector_91" d="M34.4331 0.823975H0.869141V20.402H34.4331V0.823975Z" fill="white"/>
</g>
</mask>
<g mask="url(#mask45_2232_61989)">
<path id="Vector_92" d="M9.65216 9.0249L9.7832 9.4259H10.2012L9.86316 9.66991L9.9942 10.0679L9.65216 9.82191L9.31616 10.0679L9.44318 9.66991L9.1062 9.4259H9.52319L9.65216 9.0249Z" fill="white"/>
</g>
</g>
<g id="Clip path group_47">
<mask id="mask46_2232_61989" style="mask-type:luminance" maskUnits="userSpaceOnUse" x="0" y="0" width="35" height="21">
<g id="SVGID_00000048497127292166519320000002427616922020711845__47">
<path id="Vector_93" d="M34.4331 0.823975H0.869141V20.402H34.4331V0.823975Z" fill="white"/>
</g>
</mask>
<g mask="url(#mask46_2232_61989)">
<path id="Vector_94" d="M10.8791 2.91309L11.0081 3.3131H11.4301L11.0901 3.56009L11.2191 3.95709L10.8791 3.7121L10.5411 3.95709L10.6721 3.56009L10.332 3.3131H10.7521L10.8791 2.91309Z" fill="white"/>
</g>
</g>
<g id="Clip path group_48">
<mask id="mask47_2232_61989" style="mask-type:luminance" maskUnits="userSpaceOnUse" x="0" y="0" width="35" height="21">
<g id="SVGID_00000048497127292166519320000002427616922020711845__48">
<path id="Vector_95" d="M34.4331 0.823975H0.869141V20.402H34.4331V0.823975Z" fill="white"/>
</g>
</mask>
<g mask="url(#mask47_2232_61989)">
<path id="Vector_96" d="M10.8791 4.67407L11.0081 5.07108H11.4301L11.0901 5.31807L11.2191 5.71608L10.8791 5.47208L10.5411 5.71608L10.6721 5.31807L10.332 5.07108H10.7521L10.8791 4.67407Z" fill="white"/>
</g>
</g>
<g id="Clip path group_49">
<mask id="mask48_2232_61989" style="mask-type:luminance" maskUnits="userSpaceOnUse" x="0" y="0" width="35" height="21">
<g id="SVGID_00000048497127292166519320000002427616922020711845__49">
<path id="Vector_97" d="M34.4331 0.823975H0.869141V20.402H34.4331V0.823975Z" fill="white"/>
</g>
</mask>
<g mask="url(#mask48_2232_61989)">
<path id="Vector_98" d="M10.8791 6.43408L11.0081 6.83208H11.4301L11.0901 7.07808L11.2191 7.47708L10.8791 7.23007L10.5411 7.47708L10.6721 7.07808L10.332 6.83208H10.7521L10.8791 6.43408Z" fill="white"/>
</g>
</g>
<g id="Clip path group_50">
<mask id="mask49_2232_61989" style="mask-type:luminance" maskUnits="userSpaceOnUse" x="0" y="0" width="35" height="21">
<g id="SVGID_00000048497127292166519320000002427616922020711845__50">
<path id="Vector_99" d="M34.4331 0.823975H0.869141V20.402H34.4331V0.823975Z" fill="white"/>
</g>
</mask>
<g mask="url(#mask49_2232_61989)">
<path id="Vector_100" d="M10.8791 8.19385L11.0081 8.59184H11.4301L11.0901 8.83784L11.2191 9.23485L10.8791 8.98785L10.5411 9.23485L10.6721 8.83784L10.332 8.59184H10.7521L10.8791 8.19385Z" fill="white"/>
</g>
</g>
<g id="Clip path group_51">
<mask id="mask50_2232_61989" style="mask-type:luminance" maskUnits="userSpaceOnUse" x="0" y="0" width="35" height="21">
<g id="SVGID_00000048497127292166519320000002427616922020711845__51">
<path id="Vector_101" d="M34.4331 0.823975H0.869141V20.402H34.4331V0.823975Z" fill="white"/>
</g>
</mask>
<g mask="url(#mask50_2232_61989)">
<path id="Vector_102" d="M12.1212 1.98584L12.2523 2.38585H12.6702L12.3322 2.63185L12.4592 3.02985L12.1212 2.78384L11.7852 3.02985L11.9122 2.63185L11.5742 2.38585H11.9922L12.1212 1.98584Z" fill="white"/>
</g>
</g>
<g id="Clip path group_52">
<mask id="mask51_2232_61989" style="mask-type:luminance" maskUnits="userSpaceOnUse" x="0" y="0" width="35" height="21">
<g id="SVGID_00000048497127292166519320000002427616922020711845__52">
<path id="Vector_103" d="M34.4331 0.823975H0.869141V20.402H34.4331V0.823975Z" fill="white"/>
</g>
</mask>
<g mask="url(#mask51_2232_61989)">
<path id="Vector_104" d="M12.1212 3.74707L12.2523 4.14508H12.6702L12.3322 4.39008L12.4592 4.79007L12.1212 4.54308L11.7852 4.79007L11.9122 4.39008L11.5742 4.14508H11.9922L12.1212 3.74707Z" fill="white"/>
</g>
</g>
<g id="Clip path group_53">
<mask id="mask52_2232_61989" style="mask-type:luminance" maskUnits="userSpaceOnUse" x="0" y="0" width="35" height="21">
<g id="SVGID_00000048497127292166519320000002427616922020711845__53">
<path id="Vector_105" d="M34.4331 0.823975H0.869141V20.402H34.4331V0.823975Z" fill="white"/>
</g>
</mask>
<g mask="url(#mask52_2232_61989)">
<path id="Vector_106" d="M12.1212 5.50708L12.2523 5.90408H12.6702L12.3322 6.15007L12.4592 6.55008L12.1212 6.30307L11.7852 6.55008L11.9122 6.15007L11.5742 5.90408H11.9922L12.1212 5.50708Z" fill="white"/>
</g>
</g>
<g id="Clip path group_54">
<mask id="mask53_2232_61989" style="mask-type:luminance" maskUnits="userSpaceOnUse" x="0" y="0" width="35" height="21">
<g id="SVGID_00000048497127292166519320000002427616922020711845__54">
<path id="Vector_107" d="M34.4331 0.823975H0.869141V20.402H34.4331V0.823975Z" fill="white"/>
</g>
</mask>
<g mask="url(#mask53_2232_61989)">
<path id="Vector_108" d="M12.1212 7.26587L12.2523 7.66486H12.6702L12.3322 7.91086L12.4592 8.30887L12.1212 8.06386L11.7852 8.30887L11.9122 7.91086L11.5742 7.66486H11.9922L12.1212 7.26587Z" fill="white"/>
</g>
</g>
<g id="Clip path group_55">
<mask id="mask54_2232_61989" style="mask-type:luminance" maskUnits="userSpaceOnUse" x="0" y="0" width="35" height="21">
<g id="SVGID_00000048497127292166519320000002427616922020711845__55">
<path id="Vector_109" d="M34.4331 0.823975H0.869141V20.402H34.4331V0.823975Z" fill="white"/>
</g>
</mask>
<g mask="url(#mask54_2232_61989)">
<path id="Vector_110" d="M12.1212 9.0249L12.2523 9.4259H12.6702L12.3322 9.66991L12.4592 10.0679L12.1212 9.82191L11.7852 10.0679L11.9122 9.66991L11.5742 9.4259H11.9922L12.1212 9.0249Z" fill="white"/>
</g>
</g>
<g id="Clip path group_56">
<mask id="mask55_2232_61989" style="mask-type:luminance" maskUnits="userSpaceOnUse" x="0" y="0" width="35" height="21">
<g id="SVGID_00000048497127292166519320000002427616922020711845__56">
<path id="Vector_111" d="M34.4331 0.823975H0.869141V20.402H34.4331V0.823975Z" fill="white"/>
</g>
</mask>
<g mask="url(#mask55_2232_61989)">
<path id="Vector_112" d="M13.3483 2.91309L13.4752 3.3131H13.8942L13.5593 3.56009L13.6843 3.95709L13.3483 3.7121L13.0062 3.95709L13.1373 3.56009L12.8013 3.3131H13.2172L13.3483 2.91309Z" fill="white"/>
</g>
</g>
<g id="Clip path group_57">
<mask id="mask56_2232_61989" style="mask-type:luminance" maskUnits="userSpaceOnUse" x="0" y="0" width="35" height="21">
<g id="SVGID_00000048497127292166519320000002427616922020711845__57">
<path id="Vector_113" d="M34.4331 0.823975H0.869141V20.402H34.4331V0.823975Z" fill="white"/>
</g>
</mask>
<g mask="url(#mask56_2232_61989)">
<path id="Vector_114" d="M13.3483 4.67407L13.4752 5.07108H13.8942L13.5593 5.31807L13.6843 5.71608L13.3483 5.47208L13.0062 5.71608L13.1373 5.31807L12.8013 5.07108H13.2172L13.3483 4.67407Z" fill="white"/>
</g>
</g>
<g id="Clip path group_58">
<mask id="mask57_2232_61989" style="mask-type:luminance" maskUnits="userSpaceOnUse" x="0" y="0" width="35" height="21">
<g id="SVGID_00000048497127292166519320000002427616922020711845__58">
<path id="Vector_115" d="M34.4331 0.823975H0.869141V20.402H34.4331V0.823975Z" fill="white"/>
</g>
</mask>
<g mask="url(#mask57_2232_61989)">
<path id="Vector_116" d="M13.3483 6.43408L13.4752 6.83208H13.8942L13.5593 7.07808L13.6843 7.47708L13.3483 7.23007L13.0062 7.47708L13.1373 7.07808L12.8013 6.83208H13.2172L13.3483 6.43408Z" fill="white"/>
</g>
</g>
<g id="Clip path group_59">
<mask id="mask58_2232_61989" style="mask-type:luminance" maskUnits="userSpaceOnUse" x="0" y="0" width="35" height="21">
<g id="SVGID_00000048497127292166519320000002427616922020711845__59">
<path id="Vector_117" d="M34.4331 0.823975H0.869141V20.402H34.4331V0.823975Z" fill="white"/>
</g>
</mask>
<g mask="url(#mask58_2232_61989)">
<path id="Vector_118" d="M13.3483 8.19385L13.4752 8.59184H13.8942L13.5593 8.83784L13.6843 9.23485L13.3483 8.98785L13.0062 9.23485L13.1373 8.83784L12.8013 8.59184H13.2172L13.3483 8.19385Z" fill="white"/>
</g>
</g>
<g id="Clip path group_60">
<mask id="mask59_2232_61989" style="mask-type:luminance" maskUnits="userSpaceOnUse" x="0" y="0" width="35" height="21">
<g id="SVGID_00000048497127292166519320000002427616922020711845__60">
<path id="Vector_119" d="M34.4331 0.823975H0.869141V20.402H34.4331V0.823975Z" fill="white"/>
</g>
</mask>
<g mask="url(#mask59_2232_61989)">
<path id="Vector_120" d="M14.5861 1.98584L14.7191 2.38585H15.1351L14.7971 2.63185L14.928 3.02985L14.5861 2.78384L14.2501 3.02985L14.3771 2.63185L14.0391 2.38585H14.457L14.5861 1.98584Z" fill="white"/>
</g>
</g>
<g id="Clip path group_61">
<mask id="mask60_2232_61989" style="mask-type:luminance" maskUnits="userSpaceOnUse" x="0" y="0" width="35" height="21">
<g id="SVGID_00000048497127292166519320000002427616922020711845__61">
<path id="Vector_121" d="M34.4331 0.823975H0.869141V20.402H34.4331V0.823975Z" fill="white"/>
</g>
</mask>
<g mask="url(#mask60_2232_61989)">
<path id="Vector_122" d="M14.5861 3.74707L14.7191 4.14508H15.1351L14.7971 4.39008L14.928 4.79007L14.5861 4.54308L14.2501 4.79007L14.3771 4.39008L14.0391 4.14508H14.457L14.5861 3.74707Z" fill="white"/>
</g>
</g>
<g id="Clip path group_62">
<mask id="mask61_2232_61989" style="mask-type:luminance" maskUnits="userSpaceOnUse" x="0" y="0" width="35" height="21">
<g id="SVGID_00000048497127292166519320000002427616922020711845__62">
<path id="Vector_123" d="M34.4331 0.823975H0.869141V20.402H34.4331V0.823975Z" fill="white"/>
</g>
</mask>
<g mask="url(#mask61_2232_61989)">
<path id="Vector_124" d="M14.5861 5.50708L14.7191 5.90408H15.1351L14.7971 6.15007L14.928 6.55008L14.5861 6.30307L14.2501 6.55008L14.3771 6.15007L14.0391 5.90408H14.457L14.5861 5.50708Z" fill="white"/>
</g>
</g>
<g id="Clip path group_63">
<mask id="mask62_2232_61989" style="mask-type:luminance" maskUnits="userSpaceOnUse" x="0" y="0" width="35" height="21">
<g id="SVGID_00000048497127292166519320000002427616922020711845__63">
<path id="Vector_125" d="M34.4331 0.823975H0.869141V20.402H34.4331V0.823975Z" fill="white"/>
</g>
</mask>
<g mask="url(#mask62_2232_61989)">
<path id="Vector_126" d="M14.5861 7.26587L14.7191 7.66486H15.1351L14.7971 7.91086L14.928 8.30887L14.5861 8.06386L14.2501 8.30887L14.3771 7.91086L14.0391 7.66486H14.457L14.5861 7.26587Z" fill="white"/>
</g>
</g>
<g id="Clip path group_64">
<mask id="mask63_2232_61989" style="mask-type:luminance" maskUnits="userSpaceOnUse" x="0" y="0" width="35" height="21">
<g id="SVGID_00000048497127292166519320000002427616922020711845__64">
<path id="Vector_127" d="M34.4331 0.823975H0.869141V20.402H34.4331V0.823975Z" fill="white"/>
</g>
</mask>
<g mask="url(#mask63_2232_61989)">
<path id="Vector_128" d="M14.5861 9.0249L14.7191 9.4259H15.1351L14.7971 9.66991L14.928 10.0679L14.5861 9.82191L14.2501 10.0679L14.3771 9.66991L14.0391 9.4259H14.457L14.5861 9.0249Z" fill="white"/>
</g>
</g>
</g>
</g>
</g>
</svg>
