<svg width="94" height="94" viewBox="0 0 94 94" fill="none" xmlns="http://www.w3.org/2000/svg">
<g id="icons" clip-path="url(#clip0_4231_337)">
<path id="Vector 3" d="M75.9924 45.0545L63.0552 58.3511C62.7987 58.6148 62.5928 58.9233 62.4479 59.2614L61.919 60.4955C61.6509 61.1211 61.6995 61.8373 62.0497 62.4209C62.4327 63.0593 63.1227 63.45 63.8672 63.45H64.219C64.7402 63.45 65.2507 63.3013 65.6905 63.0215L69.0251 60.8994C69.2247 60.7724 69.4085 60.6223 69.5727 60.4522L79.6952 49.9682C80.0853 49.5642 80.581 49.2778 81.1258 49.1415L83.4255 48.5666L85.6801 48.003C87.094 47.6495 88.5573 48.3632 89.1492 49.695L89.6921 50.9166L91.9156 58.3282C91.9995 58.6079 92.0421 58.8983 92.0421 59.1903V68.6883C92.0421 69.1081 91.954 69.5232 91.7836 69.9067L87.5684 79.3909C87.4188 79.7274 87.2086 80.0335 86.9482 80.2938L78.4163 88.8258C78.104 89.138 77.7267 89.3775 77.3112 89.5271L68.7405 92.6126C68.3513 92.7526 67.9374 92.8108 67.5248 92.7832L56.9323 92.0771C56.5805 92.0536 56.2356 91.9683 55.9134 91.8252L46.3964 87.5954C46.0198 87.428 45.6818 87.1849 45.4033 86.8811L37.6125 78.3821C37.346 78.0913 37.1394 77.7508 37.0046 77.3801L32.7782 65.7575C32.6016 65.2718 32.5534 64.7488 32.6384 64.239L35.0836 49.5678C35.1918 48.9184 35.5107 48.3227 35.9909 47.8724L47.2844 37.2848C47.6131 36.9766 48.007 36.7465 48.4368 36.6114L60.7584 32.7389C61.2398 32.5876 61.7515 32.5602 62.2463 32.6591L72.5264 34.7151C72.9967 34.8092 73.4376 35.0147 73.8121 35.3143L75.9415 37.0178C76.7046 37.6283 77.1225 38.5722 77.0615 39.5475L76.8364 43.1496C76.7917 43.865 76.4923 44.5407 75.9924 45.0545Z" fill="#99DAFF"/>
<path id="Vector" d="M7.83333 89.3H46.2433C52.1307 92.9447 59.0607 94.5334 65.9478 93.8174C72.8349 93.1013 79.2899 90.1209 84.3016 85.343C89.3132 80.5651 92.5984 74.2598 93.6424 67.4147C94.6864 60.5696 93.4303 53.5716 90.0708 47.517L93.118 44.473C93.4554 44.135 93.7072 43.7214 93.8525 43.2665C93.9978 42.8116 94.0323 42.3286 93.9533 41.8577C93.8742 41.3867 93.6838 40.9415 93.3979 40.559C93.112 40.1765 92.7389 39.8678 92.3096 39.6586L92.6057 39.3609C93.2634 38.7049 93.7119 37.8687 93.8946 36.9579C94.0774 36.0472 93.9862 35.1027 93.6324 34.2437C93.2787 33.3848 92.6784 32.6499 91.9073 32.1319C91.1362 31.6139 90.2289 31.336 89.3 31.3333C88.6825 31.3318 88.071 31.4539 87.5014 31.6922C86.9318 31.9306 86.4157 32.2805 85.9834 32.7214L85.6794 33.0253C85.4701 32.5957 85.1612 32.2224 84.7785 31.9363C84.3957 31.6502 83.9501 31.4597 83.4789 31.3806C83.0076 31.3015 82.5242 31.3361 82.069 31.4816C81.6139 31.6271 81.2 31.8792 80.8619 32.2169L77.8163 35.2625C74.1086 33.2042 70.0196 31.9248 65.8 31.5025V15.6667C65.7975 13.5899 64.9714 11.5989 63.5029 10.1304C62.0344 8.66192 60.0434 7.83582 57.9667 7.83334H46.5645C46.2916 7.35857 45.8988 6.9639 45.4253 6.68892C44.9517 6.41394 44.4142 6.26832 43.8667 6.26667H41.7658C41.1192 4.43165 39.9192 2.84247 38.3312 1.71833C36.7433 0.594186 34.8456 -0.00952148 32.9 -0.00952148C30.9544 -0.00952148 29.0567 0.594186 27.4688 1.71833C25.8808 2.84247 24.6808 4.43165 24.0342 6.26667H21.9333C21.3858 6.26832 20.8483 6.41394 20.3747 6.68892C19.9012 6.9639 19.5084 7.35857 19.2355 7.83334H7.83333C5.75657 7.83582 3.76557 8.66192 2.29708 10.1304C0.828582 11.5989 0.00248764 13.5899 0 15.6667L0 81.4667C0.00248764 83.5434 0.828582 85.5344 2.29708 87.0029C3.76557 88.4714 5.75657 89.2975 7.83333 89.3ZM62.6667 90.8667C58.396 90.8675 54.1809 89.8983 50.3394 88.0323C46.498 86.1662 43.1306 83.452 40.4912 80.0945C37.8519 76.737 36.0096 72.8239 35.1034 68.6505C34.1972 64.4771 34.2508 60.1523 35.26 56.0026C36.2692 51.8529 38.2078 47.9865 40.9294 44.6954C43.651 41.4043 47.0846 38.7743 50.971 37.0039C54.8575 35.2335 59.0953 34.3689 63.3646 34.4754C67.634 34.582 71.8234 35.6568 75.6167 37.6188C75.3463 38.0735 75.2024 38.5922 75.2 39.1212V43.5001L73.3513 45.3487C70.1473 43.3481 66.444 42.2914 62.6667 42.3C58.6385 42.3 54.7008 43.4945 51.3516 45.7324C48.0023 47.9703 45.3918 51.1512 43.8503 54.8727C42.3088 58.5942 41.9055 62.6893 42.6913 66.64C43.4772 70.5908 45.4169 74.2197 48.2653 77.0681C51.1136 79.9164 54.7426 81.8561 58.6933 82.642C62.6441 83.4278 66.7391 83.0245 70.4607 81.483C74.1822 79.9415 77.363 77.3311 79.6009 73.9818C81.8389 70.6325 83.0333 66.6948 83.0333 62.6667C83.0419 58.8893 81.9852 55.1861 79.9846 51.982L81.8333 50.1333H86.2199C86.749 50.1309 87.2677 49.987 87.7224 49.7166C89.9448 54.0156 91.0234 58.8142 90.8545 63.6508C90.6856 68.4873 89.2749 73.199 86.7581 77.3325C84.2412 81.466 80.703 84.8823 76.4837 87.2526C72.2644 89.6229 67.5061 90.8675 62.6667 90.8667ZM79.9 62.6667C79.9 66.0751 78.8893 69.407 76.9957 72.241C75.102 75.075 72.4106 77.2838 69.2616 78.5882C66.1126 79.8925 62.6476 80.2338 59.3046 79.5689C55.9617 78.9039 52.891 77.2626 50.4809 74.8525C48.0707 72.4424 46.4294 69.3717 45.7645 66.0287C45.0995 62.6858 45.4408 59.2207 46.7451 56.0718C48.0495 52.9228 50.2583 50.2313 53.0923 48.3377C55.9263 46.444 59.2582 45.4333 62.6667 45.4333C65.6089 45.4288 68.5019 46.1883 71.0624 47.6376L65.0762 53.6207C64.2922 53.397 63.4819 53.2779 62.6667 53.2667C60.8075 53.2667 58.9901 53.818 57.4443 54.8509C55.8985 55.8837 54.6937 57.3518 53.9822 59.0694C53.2707 60.7871 53.0846 62.6771 53.4473 64.5005C53.81 66.3239 54.7052 67.9989 56.0199 69.3135C57.3345 70.6281 59.0094 71.5234 60.8328 71.886C62.6562 72.2487 64.5463 72.0626 66.2639 71.3511C67.9815 70.6397 69.4496 69.4348 70.4825 67.889C71.5154 66.3432 72.0667 64.5258 72.0667 62.6667C72.0557 61.8507 71.9361 61.0399 71.711 60.2556L77.6957 54.2709C79.145 56.8314 79.9046 59.7244 79.9 62.6667ZM60.9183 64.4182C61.3522 64.8563 61.8687 65.2041 62.4378 65.4414C63.007 65.6787 63.6175 65.8009 64.2341 65.8009C64.8508 65.8009 65.4613 65.6787 66.0304 65.4414C66.5996 65.2041 67.116 64.8563 67.55 64.4182L68.8926 63.0771C68.8166 64.2777 68.396 65.4308 67.681 66.3983C66.9661 67.3657 65.9873 68.1064 64.8619 68.5315C63.7366 68.9566 62.5125 69.048 61.3365 68.7948C60.1605 68.5416 59.0825 67.9546 58.2318 67.104C57.3811 66.2535 56.7938 65.1757 56.5403 63.9997C56.2869 62.8238 56.378 61.5997 56.8028 60.4743C57.2276 59.3488 57.9681 58.3698 58.9353 57.6546C59.9026 56.9395 61.0557 56.5186 62.2562 56.4423L60.923 57.7771C60.4821 58.2106 60.1319 58.7275 59.8928 59.2978C59.6538 59.868 59.5307 60.4801 59.5307 61.0984C59.5307 61.7168 59.6538 62.3289 59.8928 62.8991C60.1319 63.4693 60.4821 63.9863 60.923 64.4198L60.9183 64.4182ZM65.33 62.1967C65.0364 62.4889 64.639 62.653 64.2247 62.653C63.8104 62.653 63.413 62.4889 63.1194 62.1967C62.972 62.0546 62.8547 61.8843 62.7746 61.6958C62.6945 61.5074 62.6532 61.3048 62.6532 61.1C62.6532 60.8952 62.6945 60.6926 62.7746 60.5042C62.8547 60.3157 62.972 60.1454 63.1194 60.0033L75.2799 47.8429C75.4105 48.3763 75.685 48.8638 76.0733 49.2522C76.4617 49.6405 76.9492 49.915 77.4826 50.0456L65.33 62.1967ZM89.3 34.4761C89.6066 34.4804 89.9053 34.5746 90.1589 34.747C90.4125 34.9194 90.6099 35.1625 90.7267 35.4461C90.8434 35.7296 90.8744 36.0412 90.8157 36.3422C90.7571 36.6433 90.6114 36.9204 90.3967 37.1394L88.5731 38.963L86.7495 38.6967L86.4189 36.718L88.2033 34.9367C88.3462 34.7907 88.5168 34.6747 88.7052 34.5956C88.8935 34.5165 89.0957 34.4759 89.3 34.4761ZM82.8767 34.5293L83.66 39.2058C83.7633 39.8228 84.0565 40.3921 84.4989 40.8345C84.9412 41.2768 85.5105 41.5701 86.1275 41.6733L90.7194 42.4394L86.2121 47H78.3333L78.2957 39.2137L82.8767 34.5293ZM62.6667 15.6667V31.3333C61.6092 31.3333 60.5642 31.3897 59.5333 31.49V17.2333C59.5333 16.4023 59.2032 15.6053 58.6156 15.0177C58.028 14.4301 57.231 14.1 56.4 14.1H47V10.9667H57.9667C59.2132 10.9667 60.4086 11.4618 61.2901 12.3433C62.1715 13.2247 62.6667 14.4202 62.6667 15.6667ZM21.9333 9.4H25.2233C25.5848 9.40044 25.9352 9.27589 26.2153 9.04747C26.4954 8.81905 26.6879 8.5008 26.7602 8.14667C27.0494 6.73172 27.8184 5.46008 28.9372 4.54682C30.0559 3.63356 31.4558 3.13474 32.9 3.13474C34.3442 3.13474 35.7441 3.63356 36.8628 4.54682C37.9816 5.46008 38.7506 6.73172 39.0398 8.14667C39.1121 8.5008 39.3046 8.81905 39.5847 9.04747C39.8648 9.27589 40.2152 9.40044 40.5767 9.4H43.8667V15.6667H21.9333V9.4ZM43.8667 18.8C44.4142 18.7984 44.9517 18.6527 45.4253 18.3778C45.8988 18.1028 46.2916 17.7081 46.5645 17.2333H56.4V31.96C48.9101 33.5106 42.2452 37.7451 37.6595 43.8667H31.3333C30.9178 43.8667 30.5193 44.0317 30.2255 44.3255C29.9317 44.6193 29.7667 45.0178 29.7667 45.4333C29.7667 45.8488 29.9317 46.2473 30.2255 46.5411C30.5193 46.8349 30.9178 47 31.3333 47H35.5727C34.9791 48.0132 34.4435 49.0594 33.9685 50.1333H31.3333C30.9178 50.1333 30.5193 50.2984 30.2255 50.5922C29.9317 50.886 29.7667 51.2845 29.7667 51.7C29.7667 52.1155 29.9317 52.514 30.2255 52.8078C30.5193 53.1016 30.9178 53.2667 31.3333 53.2667H32.7778C31.9905 55.8088 31.5319 58.4414 31.4132 61.1H31.3333C30.9178 61.1 30.5193 61.2651 30.2255 61.5589C29.9317 61.8527 29.7667 62.2512 29.7667 62.6667C29.7667 63.0822 29.9317 63.4807 30.2255 63.7745C30.5193 64.0683 30.9178 64.2333 31.3333 64.2333H31.4132C31.465 65.2824 31.5695 66.3282 31.7266 67.3667H31.3333C30.9178 67.3667 30.5193 67.5317 30.2255 67.8255C29.9317 68.1193 29.7667 68.5178 29.7667 68.9333C29.7667 69.3488 29.9317 69.7473 30.2255 70.0411C30.5193 70.3349 30.9178 70.5 31.3333 70.5H32.3642C33.2212 73.8421 34.6273 77.0187 36.5253 79.9H9.4V17.2333H19.2355C19.5084 17.7081 19.9012 18.1028 20.3747 18.3778C20.8483 18.6527 21.3858 18.7984 21.9333 18.8H43.8667ZM3.13333 15.6667C3.13333 14.4202 3.62851 13.2247 4.50993 12.3433C5.39135 11.4618 6.58682 10.9667 7.83333 10.9667H18.8V14.1H9.4C8.56899 14.1 7.77201 14.4301 7.1844 15.0177C6.59679 15.6053 6.26667 16.4023 6.26667 17.2333V79.9C6.26667 80.731 6.59679 81.528 7.1844 82.1156C7.77201 82.7032 8.56899 83.0333 9.4 83.0333H38.9035C39.8646 84.149 40.9027 85.196 42.0102 86.1667H7.83333C6.58682 86.1667 5.39135 85.6715 4.50993 84.7901C3.62851 83.9086 3.13333 82.7132 3.13333 81.4667V15.6667Z" fill="#38B6FF"/>
<path id="Vector_2" d="M31.3333 29.7666H51.6999C52.1154 29.7666 52.5139 29.6016 52.8077 29.3078C53.1015 29.014 53.2666 28.6155 53.2666 28.2C53.2666 27.7845 53.1015 27.386 52.8077 27.0922C52.5139 26.7984 52.1154 26.6333 51.6999 26.6333H31.3333C30.9178 26.6333 30.5193 26.7984 30.2255 27.0922C29.9317 27.386 29.7666 27.7845 29.7666 28.2C29.7666 28.6155 29.9317 29.014 30.2255 29.3078C30.5193 29.6016 30.9178 29.7666 31.3333 29.7666Z" fill="#38B6FF"/>
<path id="Vector_3" d="M31.3333 36.0332H40.7333C41.1488 36.0332 41.5473 35.8682 41.8411 35.5744C42.1349 35.2806 42.2999 34.8821 42.2999 34.4666C42.2999 34.0511 42.1349 33.6526 41.8411 33.3588C41.5473 33.065 41.1488 32.8999 40.7333 32.8999H31.3333C30.9178 32.8999 30.5193 33.065 30.2255 33.3588C29.9317 33.6526 29.7666 34.0511 29.7666 34.4666C29.7666 34.8821 29.9317 35.2806 30.2255 35.5744C30.5193 35.8682 30.9178 36.0332 31.3333 36.0332Z" fill="#38B6FF"/>
<path id="Vector_4" d="M14.5593 33.359C14.2656 33.6527 14.1006 34.0512 14.1006 34.4666C14.1006 34.882 14.2656 35.2804 14.5593 35.5742L17.6926 38.7076C17.9864 39.0014 18.3848 39.1665 18.8003 39.1666C18.8842 39.1668 18.9681 39.16 19.0509 39.1462C19.2962 39.1066 19.5285 39.0092 19.7287 38.8621C19.9289 38.715 20.0913 38.5224 20.2024 38.3002L26.4691 25.7669C26.5611 25.5828 26.6158 25.3823 26.6303 25.177C26.6448 24.9717 26.6188 24.7655 26.5536 24.5703C26.4884 24.3751 26.3854 24.1946 26.2505 24.0391C26.1156 23.8837 25.9514 23.7564 25.7672 23.6644C25.5831 23.5725 25.3826 23.5177 25.1773 23.5032C24.972 23.4887 24.7659 23.5147 24.5706 23.5799C24.3754 23.6451 24.1949 23.7481 24.0395 23.883C23.884 24.0179 23.7567 24.1822 23.6648 24.3663L18.371 34.9554L16.7746 33.359C16.4808 33.0652 16.0823 32.9003 15.6669 32.9003C15.2515 32.9003 14.8531 33.0652 14.5593 33.359Z" fill="#38B6FF"/>
<path id="Vector_5" d="M25.7669 40.8978C25.5827 40.8057 25.3823 40.7509 25.177 40.7363C24.9716 40.7218 24.7654 40.7479 24.5702 40.813C24.3749 40.8782 24.1944 40.9812 24.039 41.1162C23.8836 41.2512 23.7563 41.4155 23.6644 41.5997L18.3706 52.1888L16.7742 50.5923C16.4787 50.307 16.083 50.149 15.6722 50.1526C15.2614 50.1562 14.8685 50.3209 14.578 50.6114C14.2875 50.9019 14.1228 51.2948 14.1192 51.7056C14.1156 52.1164 14.2735 52.5121 14.5589 52.8076L17.6923 55.9409C17.986 56.2348 18.3844 56.3999 18.7999 56.4C18.8839 56.4002 18.9677 56.3934 19.0506 56.3796C19.2958 56.34 19.5282 56.2426 19.7284 56.0955C19.9286 55.9484 20.0909 55.7558 20.2021 55.5336L26.4687 43.0003C26.5608 42.8161 26.6156 42.6157 26.6302 42.4104C26.6447 42.205 26.6187 41.9988 26.5535 41.8036C26.4883 41.6083 26.3853 41.4278 26.2503 41.2724C26.1153 41.117 25.9511 40.9897 25.7669 40.8978Z" fill="#38B6FF"/>
<path id="Vector_6" d="M25.7669 58.1234C25.5827 58.0313 25.3823 57.9765 25.177 57.9619C24.9716 57.9474 24.7654 57.9734 24.5702 58.0386C24.3749 58.1038 24.1944 58.2068 24.039 58.3418C23.8836 58.4768 23.7563 58.6411 23.6644 58.8252L18.3706 69.4143L16.7742 67.8179C16.4787 67.5325 16.083 67.3746 15.6722 67.3782C15.2614 67.3818 14.8685 67.5465 14.578 67.837C14.2875 68.1275 14.1228 68.5204 14.1192 68.9312C14.1156 69.342 14.2735 69.7377 14.5589 70.0332L17.6923 73.1665C17.8371 73.3134 18.0094 73.4303 18.1995 73.5104C18.3896 73.5905 18.5936 73.6323 18.7999 73.6334C18.8839 73.6336 18.9677 73.6268 19.0506 73.613C19.2958 73.5734 19.5282 73.476 19.7284 73.3289C19.9286 73.1818 20.091 72.9892 20.2021 72.767L26.4687 60.2337C26.562 60.0492 26.6178 59.8481 26.633 59.6419C26.6482 59.4357 26.6224 59.2286 26.5572 59.0324C26.4919 58.8362 26.3885 58.6549 26.2529 58.4989C26.1172 58.3429 25.9521 58.2153 25.7669 58.1234Z" fill="#38B6FF"/>
</g>
<defs>
<clipPath id="clip0_4231_337">
<rect width="94" height="94" fill="white"/>
</clipPath>
</defs>
</svg>
