<svg width="110" height="110" viewBox="0 0 110 110" fill="none" xmlns="http://www.w3.org/2000/svg">
<g id="Layer_1">
<path id="Vector 5" d="M84.7913 21.5417L87.9997 17.875L89.833 21.5417L93.958 22.9167L91.6663 26.5833L92.583 31.1667L87.9997 29.7917L82.4997 31.1667L83.4163 26.5833L80.208 22.9167L84.7913 21.5417Z" fill="#99DAFF"/>
<path id="Vector 4" d="M63.2503 20.625L67.3753 34.8333L69.667 42.1667L63.2503 44.4583L60.9587 41.25L39.8753 47.6667L38.042 43.5417L22.0003 47.6667V50.4167L18.3337 51.7917L14.667 37.5833L17.417 36.6667L20.6253 38.9583L36.2087 34.8333V29.7917L57.292 24.75V21.5417L63.2503 20.625Z" fill="#99DAFF"/>
<path id="Vector" d="M89.4299 11.572C89.5619 12.496 88.9239 13.332 87.9999 13.464C87.0759 13.596 86.2399 12.958 86.1079 12.034L85.6679 8.88805C85.5359 7.96405 86.1959 7.10605 87.0979 6.99605C88.0219 6.86405 88.8579 7.50205 88.9899 8.42605L89.4299 11.572ZM100.298 20.746C99.4179 21.054 98.4719 20.57 98.1639 19.69C97.8559 18.81 98.3399 17.842 99.2199 17.556L101.794 16.676C102.674 16.368 103.642 16.852 103.928 17.732C104.236 18.612 103.752 19.558 102.872 19.866L100.298 20.746ZM98.8019 28.336C97.9219 28.072 97.4159 27.126 97.6579 26.246C97.9219 25.366 98.8459 24.86 99.7479 25.102L102.366 25.872C103.246 26.136 103.752 27.06 103.51 27.962C103.246 28.842 102.3 29.348 101.42 29.106L98.8019 28.336ZM82.5439 13.112C83.1159 13.838 82.9839 14.894 82.2579 15.466C81.5319 16.038 80.4759 15.906 79.9039 15.18L77.9459 12.672C77.3739 11.946 77.5059 10.89 78.2319 10.318C78.9579 9.74605 80.0139 9.87805 80.5859 10.604L82.5439 13.112ZM96.0079 15.158C95.5019 15.928 94.4679 16.148 93.6759 15.62C92.9059 15.114 92.6859 14.08 93.1919 13.288L94.8639 10.758C95.3699 9.98805 96.4259 9.76805 97.1959 10.296C97.9659 10.802 98.1859 11.858 97.6799 12.628L96.0079 15.158ZM87.3619 20.68C85.7559 23.606 86.3499 23.166 83.0719 23.804L84.5239 25.366C84.8759 25.74 85.0299 26.246 84.9639 26.708L84.6999 28.842C87.7139 27.434 86.9879 27.434 90.0019 28.842L89.7379 26.708C89.6719 26.136 89.8919 25.586 90.2879 25.234L91.6299 23.782C88.3739 23.166 88.9679 23.606 87.3619 20.68ZM83.7759 20.24L85.8879 16.412C86.5259 15.246 88.1979 15.246 88.8359 16.39L90.9699 20.24L95.2819 21.076C96.5579 21.318 97.0859 22.902 96.1839 23.87L93.1699 27.06L93.6979 31.438C93.8519 32.714 92.5319 33.726 91.3219 33.154L87.3399 31.284L83.4899 33.088C82.1259 33.792 80.8279 32.67 80.9819 31.416L81.5319 27.038L78.6279 23.936C77.5499 22.88 78.1879 21.296 79.4419 21.032L83.7759 20.24ZM39.2699 71.456C38.9179 72.314 37.9499 72.732 37.0699 72.3801C36.2119 72.028 35.7939 71.0601 36.1459 70.18L44.3079 50.094C44.8799 48.664 46.8819 48.73 47.4319 50.094L55.5939 70.18C55.9459 71.038 55.5279 72.028 54.6699 72.3801C53.8119 72.732 52.8219 72.314 52.4699 71.456L45.8699 55.22L39.2699 71.456ZM17.8199 38.302L16.6539 38.61L19.6019 49.632L20.7679 49.324L17.8199 38.302ZM14.1679 35.816L18.5679 34.628C19.4699 34.386 20.3939 34.914 20.6359 35.816L20.9659 37.092L34.2099 33.528L33.5059 30.91C33.2639 30.008 33.7919 29.084 34.6939 28.842L55.5719 23.254L55.2859 22.22C55.0439 21.318 55.5719 20.394 56.4739 20.152L62.8539 18.436C63.7559 18.194 64.6799 18.722 64.9219 19.624L70.8839 41.888C71.1259 42.79 70.5979 43.7141 69.6959 43.956L63.3159 45.6721C62.4139 45.9141 61.4899 45.386 61.2479 44.484L60.9839 43.45L40.1279 49.06C39.2259 49.302 38.3019 48.774 38.0599 47.8721L37.3559 45.254L24.1119 48.796L24.4419 50.072C24.6839 50.974 24.1559 51.898 23.2539 52.14L18.8539 53.328C17.9519 53.57 17.0279 53.042 16.7859 52.14L12.9799 37.862C12.7379 36.96 13.2659 36.058 14.1679 35.816ZM35.0899 36.806L21.8459 40.348L23.2539 45.584L36.4979 42.02L35.0899 36.806ZM56.4739 26.532L37.2239 31.702L40.8979 45.408L60.1479 40.238L56.4739 26.532ZM62.1279 22.154L59.0039 22.99L64.1079 41.998L67.2319 41.162L62.1279 22.154ZM23.2539 86.6141H24.2879V75.57C13.0239 68.926 5.96191 56.804 5.96191 43.494C5.96191 22.924 22.6379 6.24805 43.2079 6.24805C52.6459 6.24805 61.2699 9.76805 67.8479 15.576C76.3619 23.1 80.9599 33.946 80.4099 45.32C80.3879 45.716 80.3659 46.134 80.3219 46.53L89.4959 60.39C90.1339 61.358 89.6279 62.634 88.5279 62.9421L80.1679 65.186V79.068C80.1679 79.9921 79.4199 80.7401 78.4959 80.7401H57.2219V86.636H58.8059C63.5359 86.636 67.3859 90.486 67.3859 95.216V102.08C67.3859 103.004 66.6379 103.774 65.7139 103.774H18.3479C17.4239 103.774 16.6759 103.026 16.6759 102.08V93.192C16.6759 89.562 19.6459 86.6141 23.2539 86.6141ZM58.8279 89.98C46.9699 89.98 35.1119 89.98 23.2539 89.98C21.4939 89.98 20.0419 91.4321 20.0419 93.192V100.408H64.0419V95.1941C64.0419 92.3341 61.6879 89.98 58.8279 89.98ZM65.6479 18.062C52.2499 6.22605 31.9219 6.86405 19.2719 19.514C8.38191 30.404 6.18191 47.3441 14.0139 60.654C17.0719 65.8241 21.4499 70.114 26.6859 73.062C27.2799 73.326 27.6759 73.9201 27.6759 74.58V86.6141H53.8779V79.046C53.8779 78.122 54.6259 77.3741 55.5719 77.3741H76.8459V63.866C76.8459 63.118 77.3519 62.436 78.0999 62.238L85.4479 60.28L77.2199 47.8721C77.0219 47.564 76.9119 47.19 76.9559 46.794C77.9899 35.948 73.8539 25.3 65.6479 18.062Z" fill="#38B6FF"/>
</g>
</svg>
