<svg width="90" height="90" viewBox="0 0 90 90" fill="none" xmlns="http://www.w3.org/2000/svg">
<g id="Frame">
<g id="Group">
<g id="Group_2">
<path id="Vector" fill-rule="evenodd" clip-rule="evenodd" d="M34.1419 45.2485L38.8361 55.3353C38.8932 55.4543 38.879 55.5828 38.798 55.6828C38.7219 55.7876 38.6028 55.8352 38.4742 55.8115L33.3701 54.921L30.761 59.4014C30.699 59.5109 30.5847 59.5729 30.4562 59.5681C30.3277 59.5634 30.2229 59.4919 30.1657 59.3729L25.8923 50.1942L26.8662 50.4883C28.4993 50.9788 30.1943 50.3644 31.1275 48.936L32.6844 46.5553C33.0674 45.9725 33.534 45.5494 34.1419 45.2485ZM20.1981 50.1942L15.9247 59.3729C15.8723 59.4919 15.7629 59.5634 15.6342 59.5681C15.5057 59.5729 15.3914 59.5109 15.3295 59.4014L12.7251 54.921L7.6163 55.8115C7.48761 55.8352 7.36862 55.7876 7.29241 55.6828C7.21153 55.5828 7.19715 55.4543 7.25431 55.3353L11.9486 45.2485C12.5566 45.5494 13.023 45.9725 13.4059 46.5553L14.9629 48.936C15.8961 50.3644 17.5912 50.9788 19.2243 50.4883L20.1981 50.1942Z" fill="#99DAFF"/>
<path id="Vector_2" fill-rule="evenodd" clip-rule="evenodd" d="M25.3135 15.9593L27.5942 17.6686C28.2179 18.1352 28.8702 18.3732 29.651 18.4162L32.4936 18.5733C34.1934 18.6685 35.5789 19.8302 35.9646 21.4872L36.6169 24.263C36.793 25.02 37.1406 25.6247 37.712 26.158L39.7879 28.1053C41.0306 29.2718 41.3448 31.0527 40.5735 32.5715L39.288 35.1139C38.9404 35.8092 38.8165 36.4947 38.9118 37.2708L39.2499 40.099C39.4498 41.7893 38.55 43.3558 36.9787 44.0271L34.3647 45.146C33.6457 45.4508 33.1126 45.9031 32.684 46.5553L31.127 48.936C30.1938 50.3644 28.4989 50.9788 26.8657 50.4883L24.1374 49.6645C23.3948 49.4361 22.6948 49.4361 21.952 49.6645L19.2239 50.4883C17.5907 50.9788 15.8956 50.3644 14.9624 48.936L13.4055 46.5553C12.977 45.9031 12.4437 45.4508 11.7247 45.146L9.11073 44.0271C7.54429 43.3558 6.63965 41.7893 6.8397 40.099L7.17762 37.2708C7.27288 36.4947 7.14921 35.8092 6.80159 35.1139L5.51608 32.5715C4.74464 31.0527 5.059 29.2718 6.30156 28.1053L8.37756 26.158C8.94896 25.6247 9.2964 25.02 9.47272 24.263L10.125 21.4872C10.5106 19.8302 11.8962 18.6685 13.596 18.5733L16.4384 18.4162C17.2194 18.3732 17.8763 18.1352 18.4954 17.6686L20.7759 15.9593C22.1425 14.9403 23.9471 14.9403 25.3135 15.9593ZM23.0471 42.875C28.5226 42.875 32.9935 38.4041 32.9935 32.9238C32.9935 27.4435 28.5226 22.9726 23.0471 22.9726C17.5668 22.9726 13.0959 27.4435 13.0959 32.9238C13.0959 38.4041 17.5668 42.875 23.0471 42.875Z" fill="#99DAFF"/>
<path id="Vector_3" d="M42.697 10.3615C44.3958 10.3615 45.7729 8.9844 45.7729 7.28562C45.7729 5.58685 44.3958 4.20972 42.697 4.20972C40.9982 4.20972 39.6211 5.58685 39.6211 7.28562C39.6211 8.9844 40.9982 10.3615 42.697 10.3615Z" fill="#99DAFF"/>
<path id="Vector_4" fill-rule="evenodd" clip-rule="evenodd" d="M56.9163 66.0044L47.6311 82.4089C47.183 83.2027 47.4653 84.2187 48.2554 84.6666L51.4164 86.4553C52.2067 86.9034 53.2227 86.621 53.6743 85.8274L62.956 69.4229C63.4076 68.6291 63.1252 67.6131 62.3314 67.1652L59.1741 65.3765C58.3804 64.9285 57.3643 65.2108 56.9163 66.0044Z" fill="#99DAFF"/>
<path id="Vector_5" fill-rule="evenodd" clip-rule="evenodd" d="M62.8099 14.1275H50.9316L56.8708 3.3313L62.8099 14.1275ZM62.8099 14.1275L68.7492 3.3313L74.6883 14.1275H62.8099ZM74.6883 14.1275L80.6274 3.3313L86.5665 14.1275H74.6883Z" fill="#99DAFF"/>
</g>
<path id="Vector_6" fill-rule="evenodd" clip-rule="evenodd" d="M47.2358 80.2909L45.8088 79.4668L31.5932 83.2766L31.5918 83.2769C29.0868 83.9453 26.6689 83.6246 24.4628 82.2628L4.10056 69.7261C2.85506 68.959 2.09003 67.4462 2.04777 65.858C2.0062 64.2887 2.65813 62.6927 4.0538 61.7564C5.63531 60.6951 8.43513 60.3861 12.6261 62.8276L23.8474 69.3631C24.107 69.5144 24.3696 69.6428 24.6351 69.7495C24.5826 69.6045 24.5357 69.4549 24.4943 69.3005C23.8483 66.8986 25.2805 64.5033 27.6461 63.7374C27.7051 63.7184 27.7654 63.7031 27.8265 63.6922C32.2275 62.8969 36.539 61.049 39.1805 60.1923C41.9774 59.2842 44.5829 60.227 47.1295 61.6997L55.1344 66.3343L55.7271 65.2869L55.729 65.2838C56.5548 63.8334 58.4155 63.3188 59.8659 64.1379L59.8671 64.1386L63.0166 65.9217C64.4689 66.742 64.9889 68.6037 64.1624 70.0621L54.9085 86.4136C54.0889 87.8646 52.2291 88.3845 50.7714 87.5649C50.77 87.5642 50.7686 87.5634 50.7672 87.5627L47.622 85.7799C46.1711 84.9605 45.6512 83.1006 46.4706 81.643C46.4713 81.6417 46.472 81.6407 46.4727 81.6395L47.2358 80.2909ZM53.7694 68.7463L45.7419 64.0986C43.902 63.0346 42.057 62.172 40.0361 62.8281L40.0356 62.8285C37.3323 63.7051 32.9265 65.5703 28.4231 66.4004C27.5127 66.733 26.9172 67.6394 27.1705 68.5811L27.1706 68.5817C27.4225 69.5196 28.2336 69.9546 29.3265 69.8376C31.7877 69.3281 34.0738 68.5804 36.6097 67.899C37.3482 67.7005 38.1089 68.1389 38.3074 68.8774C38.5059 69.6159 38.0675 70.3766 37.329 70.5751C34.7174 71.277 29.7673 72.5749 29.7668 72.5751L28.3759 72.8013C28.3744 72.8017 28.3728 72.8018 28.3713 72.8022C26.2518 73.1394 24.3074 72.8385 22.4522 71.7576L11.2313 65.2223C6.70553 62.5858 4.76705 63.8641 4.81814 65.7845C4.83494 66.4172 5.05733 67.0609 5.55373 67.3664L25.9156 79.903L25.9168 79.9038C27.4521 80.8512 29.1349 81.0641 30.877 80.5996L45.6458 76.6414C46.0009 76.5463 46.3791 76.5962 46.6973 76.7799L48.6008 77.8791L53.7694 68.7463ZM58.1374 66.6547C58.1374 66.6547 48.9195 82.9425 48.8852 83.0031C48.8144 83.1315 48.8575 83.2951 48.985 83.367L48.9867 83.368C48.9867 83.368 52.1303 85.1498 52.1329 85.1512C52.2611 85.2208 52.4237 85.1777 52.4954 85.0507L52.4961 85.0497L61.7505 68.6971L61.7511 68.6964C61.8231 68.5691 61.7803 68.4061 61.6537 68.3346L61.6525 68.3339L58.503 66.5509C58.3746 66.4784 58.2106 66.5265 58.1374 66.6547ZM59.083 68.2407C59.7973 68.3427 60.2904 69.0059 60.1884 69.7202C60.0822 70.4345 59.4191 70.9318 58.7048 70.8256C57.9905 70.7236 57.4974 70.056 57.5994 69.3418C57.7056 68.6275 58.3689 68.1344 59.083 68.2407ZM56.8664 2.04614H80.6282C81.1335 2.04614 81.5987 2.32119 81.8422 2.76389L87.7827 13.5627C88.0564 14.0602 87.9989 14.6743 87.6374 15.1124L69.8161 36.7099C69.5528 37.0287 69.1608 37.2135 68.7474 37.2135C68.3338 37.2135 67.9418 37.0287 67.6786 36.7099L49.8571 15.1124C49.4958 14.6743 49.4381 14.0602 49.7119 13.5627L55.6524 2.76389C55.8959 2.32119 56.3612 2.04614 56.8664 2.04614ZM66.4036 4.81738C63.4933 4.81738 60.8099 4.81738 59.21 4.81738L62.8069 11.3558L66.4036 4.81738ZM56.8664 6.30658L53.2695 12.845H60.4633L56.8664 6.30658ZM53.8657 15.616L65.6935 29.9499L61.7511 15.616H53.8657ZM71.8011 29.9499L83.629 15.616H75.7436L71.8011 29.9499ZM84.225 12.845L80.6282 6.30658L77.0313 12.845H84.225ZM78.2846 4.81738C76.6848 4.81738 74.0013 4.81738 71.091 4.81738L74.6877 11.3558L78.2846 4.81738ZM72.3441 12.845L68.7474 6.30658L65.1505 12.845H72.3441ZM64.6252 15.616L68.7474 30.6033L72.8694 15.616H64.6252ZM38.4534 8.77541C34.8972 8.77541 24.4288 8.77541 24.4288 8.77541V11.1197C24.4288 11.8846 23.8081 12.5053 23.0432 12.5053C22.2785 12.5053 21.6576 11.8846 21.6576 11.1197V7.38979C21.6576 6.62441 22.278 6.00417 23.0432 6.00417H38.4534C39.0369 4.21914 40.7165 2.92809 42.6953 2.92809C45.1577 2.92809 47.1568 4.92737 47.1568 7.38979C47.1568 9.85221 45.1577 11.8513 42.6953 11.8513C40.7165 11.8513 39.0369 10.5603 38.4534 8.77541ZM41.0048 7.38979C41.0048 8.32266 41.7623 9.08007 42.6953 9.08007C43.6282 9.08007 44.3856 8.32266 44.3856 7.38979C44.3856 6.45675 43.6282 5.69933 42.6953 5.69933C41.7623 5.69933 41.0048 6.45675 41.0048 7.38979ZM10.0899 46.0583L8.56348 45.405C6.42425 44.488 5.18897 42.3488 5.46211 40.0404L5.46228 40.0388L5.80037 37.2106C5.80055 37.2092 5.80072 37.2077 5.80089 37.2063C5.86134 36.7145 5.78149 36.2802 5.5617 35.8397C5.5617 35.8397 4.27792 33.3009 4.27913 33.303C3.22502 31.2273 3.65353 28.7935 5.35178 27.1993L7.42813 25.2515L7.43056 25.2492C7.79116 24.9127 8.01044 24.531 8.12163 24.0531L8.12233 24.0501C8.12233 24.0501 8.77322 21.2799 8.77392 21.2772C9.30097 19.0127 11.1939 17.4241 13.5169 17.2939H13.5179L16.3611 17.1368C16.8538 17.1097 17.2692 16.9608 17.6597 16.6663C17.6608 16.6655 17.6618 16.6648 17.6628 16.6639L19.9436 14.9546L19.9462 14.9527C21.8116 13.5617 24.275 13.5617 26.1402 14.9527L26.143 14.9546L28.4229 16.6634C28.818 16.9587 29.2311 17.1096 29.7255 17.1368L32.5685 17.2939H32.5695C34.8927 17.4241 36.7856 19.0127 37.312 21.2744L37.9643 24.0501L37.965 24.0531C38.0762 24.531 38.2953 24.9127 38.6559 25.2492L38.6585 25.2515L40.7348 27.1993C42.4331 28.7935 42.8616 31.2273 41.8085 33.3009C41.8085 33.3009 40.5249 35.8397 40.5233 35.843C40.3046 36.2822 40.2254 36.7158 40.2857 37.2063C40.2859 37.2077 40.2861 37.2092 40.2862 37.2106L40.6241 40.0388L40.6245 40.0404C40.8976 42.3492 39.6679 44.4886 37.5224 45.4052L35.9967 46.0583C37.2606 48.7739 40.0798 54.8322 40.0834 54.84C40.3785 55.4551 40.299 56.1174 39.8965 56.6292C39.4982 57.1571 38.8881 57.3986 38.2298 57.2798L34.0802 56.5559C34.0802 56.5559 31.9633 60.1908 31.9612 60.1946C31.6417 60.754 31.062 61.0814 30.4029 61.057C29.7482 61.0327 29.2056 60.6828 28.9146 60.0766C28.9124 60.0718 28.9099 60.0668 28.9077 60.0619L24.896 51.4456L23.7355 51.0952C23.7333 51.0945 23.7308 51.0938 23.7286 51.0931C23.2627 50.9497 22.8238 50.9497 22.358 51.0931C22.3558 51.0938 22.3533 51.0945 22.3511 51.0952L21.1905 51.4456C20.2621 53.4395 17.1831 60.0529 17.1839 60.0508C16.9087 60.661 16.3469 61.0324 15.6837 61.057C15.0253 61.0812 14.446 60.7545 14.1273 60.1977L12.0102 56.5559L7.85664 57.2798C7.19517 57.3987 6.5836 57.1551 6.19181 56.6315C5.78877 56.1145 5.70996 55.4589 5.99834 54.8501L10.0899 46.0583ZM33.6848 47.6587L32.2857 49.7981C31.3564 51.2203 29.8748 52.0522 28.2758 52.1393C28.9969 53.6877 29.9159 55.6619 30.5727 57.0723L32.1708 54.3279C32.4625 53.827 33.0353 53.5606 33.6063 53.6602L36.7316 54.2054L33.6848 47.6587ZM17.8108 52.1393C16.2118 52.0522 14.7302 51.2203 13.8013 49.7986L12.4018 47.6587L9.35484 54.2058L12.4853 53.6602C13.0567 53.5606 13.6297 53.8275 13.9212 54.3289L15.5148 57.0705L17.8108 52.1393ZM24.4837 17.1742L24.481 17.1723C23.6139 16.5274 22.4701 16.528 21.6036 17.1737C21.6036 17.1737 19.331 18.8769 19.328 18.8792C18.4807 19.518 17.5818 19.8451 16.5135 19.9037L13.6719 20.0608C12.5955 20.1212 11.7173 20.8561 11.4731 21.9054L11.4724 21.9083C11.4724 21.9083 10.8213 24.6784 10.8207 24.6811C10.5796 25.7176 10.1036 26.5451 9.32401 27.2728L7.24852 29.2197C6.46131 29.9586 6.26144 31.0863 6.75004 32.0483L6.75108 32.0504L8.03659 34.593C8.03763 34.5947 8.0385 34.5966 8.03936 34.5985C8.51394 35.5477 8.6816 36.484 8.55204 37.5395L8.21413 40.3663C8.08751 41.4385 8.66151 42.4318 9.65517 42.8577C9.65517 42.8577 12.2594 43.9726 12.2639 43.9745C13.2465 44.3909 13.9766 45.0075 14.5622 45.8988L14.5637 45.9012L16.121 48.2824C16.7127 49.1881 17.7879 49.5762 18.8235 49.2655L21.5488 48.4426C22.5645 48.1312 23.5221 48.1312 24.5378 48.4426L27.2631 49.2655C28.2987 49.5762 29.3739 49.1881 29.9656 48.2824L31.5229 45.9012L31.5244 45.8988C32.11 45.0075 32.8401 44.3909 33.818 43.9764L36.4319 42.8575L36.4328 42.8572C37.4291 42.4314 37.9991 41.438 37.8725 40.3663C37.8725 40.3663 37.5356 37.548 37.5351 37.5438C37.405 36.484 37.5725 35.5477 38.0472 34.5985C38.0481 34.5966 38.049 34.5947 38.05 34.593L39.3355 32.0504L39.3366 32.0483C39.8252 31.0863 39.6251 29.9586 38.8381 29.2197C38.8381 29.2197 36.7676 27.2774 36.765 27.2752C35.983 26.5451 35.507 25.7176 35.2665 24.6841L34.6142 21.9083L34.6135 21.9054C34.3693 20.8561 33.4911 20.1212 32.4147 20.0608L29.5736 19.9039C28.5065 19.8453 27.6151 19.5199 26.7627 18.8823L26.7617 18.8814L24.4837 17.1742ZM23.0456 44.3647C16.8024 44.3647 11.7088 39.2714 11.7088 33.0279C11.7088 26.7847 16.8024 21.6911 23.0456 21.6911C29.2837 21.6911 34.3776 26.7845 34.3776 33.0279C34.3776 39.2715 29.2837 44.3647 23.0456 44.3647ZM23.0456 41.5935C27.7585 41.5935 31.6063 37.7449 31.6063 33.0279C31.6063 28.3109 27.7585 24.4624 23.0456 24.4624C18.3285 24.4624 14.4801 28.3108 14.4801 33.0279C14.4801 37.7451 18.3285 41.5935 23.0456 41.5935Z" fill="#38B6FF"/>
</g>
</g>
</svg>
