<svg width="84" height="84" viewBox="0 0 84 84" fill="none" xmlns="http://www.w3.org/2000/svg">
<path d="M65.1 25.1999C65.1 34.4783 57.5784 41.9999 48.3 41.9999C39.0216 41.9999 31.5 34.4783 31.5 25.1999C31.5 15.9215 39.0216 8.3999 48.3 8.3999C57.5784 8.3999 65.1 15.9215 65.1 25.1999Z" fill="#99DAFF"/>
<path fill-rule="evenodd" clip-rule="evenodd" d="M67.2004 25.2C67.2004 35.6382 58.7386 44.1 48.3004 44.1C37.8622 44.1 29.4004 35.6382 29.4004 25.2C29.4004 14.7619 37.8622 6.30005 48.3004 6.30005C58.7386 6.30005 67.2004 14.7619 67.2004 25.2ZM48.3004 42C57.5788 42 65.1004 34.4784 65.1004 25.2C65.1004 15.9217 57.5788 8.40005 48.3004 8.40005C39.022 8.40005 31.5004 15.9217 31.5004 25.2C31.5004 34.4784 39.022 42 48.3004 42Z" fill="#38B6FF"/>
<path fill-rule="evenodd" clip-rule="evenodd" d="M42.7268 29.2921C42.6936 29.1524 42.6884 29.0075 42.7115 28.8658C42.7345 28.7241 42.7854 28.5883 42.8612 28.4664C42.9369 28.3444 43.0361 28.2387 43.1529 28.1552C43.2697 28.0717 43.4019 28.0122 43.5418 27.98C43.6818 27.9479 43.8267 27.9438 43.9682 27.9679C44.1098 27.992 44.2451 28.0439 44.3665 28.1205C44.4879 28.1972 44.5929 28.2972 44.6755 28.4146C44.7581 28.532 44.8166 28.6647 44.8477 28.8048C45.3611 31.0379 47.6743 31.7657 49.739 31.4973C50.9236 31.3425 51.8288 30.7448 52.1608 29.8977C52.4143 29.2509 52.2752 28.5606 51.7696 27.9538C50.9512 26.9709 50.0631 26.8375 48.834 26.6528C48.052 26.5596 47.2819 26.3845 46.5364 26.1306C46.5248 26.1267 46.5135 26.1223 46.5025 26.1173C44.5319 25.3193 43.3713 23.7815 43.3979 22.0044C43.425 20.1872 44.6631 18.5599 46.5518 17.8598C46.8888 17.734 47.2358 17.6366 47.5891 17.5685V15.9506C47.5876 15.8068 47.6146 15.664 47.6686 15.5307C47.7225 15.3973 47.8024 15.276 47.9036 15.1737C48.0048 15.0714 48.1253 14.9902 48.2581 14.9348C48.3908 14.8794 48.5333 14.8508 48.6772 14.8508C48.821 14.8508 48.9635 14.8794 49.0963 14.9348C49.229 14.9902 49.3495 15.0714 49.4507 15.1737C49.5519 15.276 49.6318 15.3973 49.6858 15.5307C49.7398 15.664 49.7668 15.8068 49.7652 15.9506V17.5407C51.7697 17.895 53.4832 19.3058 54.3141 21.5002C54.3646 21.6338 54.3884 21.7761 54.384 21.9189C54.3795 22.0617 54.347 22.2022 54.2883 22.3324C54.2296 22.4627 54.1458 22.5801 54.0417 22.6779C53.9376 22.7758 53.8152 22.8522 53.6816 22.9027C53.548 22.9533 53.4057 22.977 53.2629 22.9726C53.1201 22.9682 52.9796 22.9357 52.8493 22.877C52.7191 22.8182 52.6017 22.7344 52.5039 22.6303C52.406 22.5262 52.3296 22.4039 52.2791 22.2702C51.4419 20.0602 49.4446 19.1075 47.308 19.8999C46.2841 20.2795 45.5871 21.1391 45.5737 22.0375C45.5611 22.9028 46.1747 23.6333 47.3028 24.0952C47.9078 24.3139 48.5146 24.4046 49.1567 24.5014C50.5331 24.7081 52.0931 24.9414 53.4417 26.5615C54.4632 27.7886 54.7348 29.2938 54.1869 30.6913C53.5609 32.2897 52.0031 33.3971 50.0198 33.6558C49.9354 33.6667 49.8505 33.6764 49.7651 33.6849V35.207C49.7651 35.4956 49.6504 35.7723 49.4464 35.9764C49.2423 36.1804 48.9656 36.2951 48.677 36.2951C48.3884 36.2951 48.1116 36.1804 47.9076 35.9764C47.7035 35.7723 47.5889 35.4956 47.5889 35.207V33.6058C45.377 33.2236 43.3227 31.8853 42.7265 29.2914L42.7268 29.2921ZM64.6798 66.8947C64.6586 66.9056 64.6376 66.9164 64.617 66.9285L46.5682 77.5597L34.5909 75.0462C32.4087 74.5881 30.0885 74.6557 27.8453 74.7223C27.6648 74.7283 27.4872 74.7332 27.3114 74.738C27.315 74.6702 27.317 74.6014 27.317 74.5313V57.1485C27.3312 57.1485 27.345 57.1474 27.3594 57.1474C28.8047 57.1267 31.4951 57.0906 32.2772 57.4291L42.0658 61.669C42.1956 61.7246 42.3349 61.7549 42.4761 61.7585C43.0059 61.7694 43.5863 61.7548 44.2007 61.7403C46.4779 61.6859 49.3115 61.617 50.5708 62.8502C51.0673 63.3375 51.3071 64.0327 51.3041 64.9823C51.3041 65.4453 51.1567 65.6425 51.0458 65.7512C50.8371 65.9544 50.258 66.2905 48.7171 66.2481H42.8012C42.6583 66.2481 42.5168 66.2763 42.3848 66.331C42.2528 66.3856 42.1328 66.4658 42.0318 66.5668C41.9307 66.6679 41.8506 66.7878 41.7959 66.9199C41.7412 67.0519 41.7131 67.1934 41.7131 67.3363C41.7131 67.4791 41.7412 67.6206 41.7959 67.7527C41.8506 67.8847 41.9307 68.0046 42.0318 68.1057C42.1328 68.2067 42.2528 68.2869 42.3848 68.3415C42.5168 68.3962 42.6583 68.4244 42.8012 68.4244H48.6745C48.774 68.4268 48.872 68.428 48.9682 68.428C50.6145 68.428 51.7929 68.0617 52.5641 67.3097C52.9027 66.9788 53.1566 66.5711 53.3041 66.1212L61.2842 61.2731C62.9095 60.2855 64.1462 60.5998 64.8976 61.0375C65.432 61.3582 65.8729 61.8134 66.1764 62.3577C66.48 62.9021 66.6354 63.5165 66.6274 64.1396C66.6023 64.9606 66.2441 66.1055 64.6796 66.8938L64.6798 66.8947ZM23.4245 76.248H19.0858C18.6308 76.2474 18.1946 76.0663 17.8729 75.7444C17.5512 75.4226 17.3704 74.9863 17.37 74.5313V56.9669C17.3704 56.5119 17.5512 56.0756 17.8729 55.7538C18.1946 55.432 18.6308 55.2509 19.0858 55.2502H23.424C23.879 55.2508 24.3153 55.4318 24.6371 55.7537C24.9588 56.0755 25.1398 56.5118 25.1402 56.9669V74.5312C25.1398 74.9863 24.9589 75.4226 24.6371 75.7445C24.3154 76.0664 23.8796 76.2475 23.4245 76.248ZM65.9932 59.1577C66.8674 59.6742 67.5884 60.4141 68.0821 61.3014C68.5759 62.1886 68.8245 63.1913 68.8026 64.2065C68.743 66.1613 67.61 67.8407 65.6922 68.8199L47.3094 79.6495C47.1422 79.7479 46.9517 79.7999 46.7576 79.8C46.6825 79.7996 46.6076 79.7919 46.534 79.777L34.1442 77.1753C32.2142 76.7702 30.026 76.8356 27.91 76.8971C27.4404 76.9117 26.9597 76.9262 26.4835 76.9348C26.1199 77.3986 25.6556 77.7738 25.1257 78.0319C24.5958 78.2899 24.0142 78.4241 23.4248 78.4243H19.0858C18.0537 78.4232 17.0642 78.0127 16.3345 77.2828C15.6047 76.5529 15.1943 75.5634 15.1934 74.5313V56.9669C15.1943 55.9348 15.6047 54.9452 16.3344 54.2153C17.0642 53.4854 18.0537 53.0749 19.0858 53.0737H23.424C24.0986 53.0742 24.7616 53.25 25.348 53.5837C25.9343 53.9175 26.4239 54.3979 26.7687 54.9778C26.942 54.9767 27.1294 54.9742 27.3284 54.9705C29.8468 54.9356 32.0221 54.9463 33.1414 55.4312L42.7302 59.5841C43.1605 59.5878 43.6421 59.5756 44.1474 59.5636C46.8337 59.4995 50.1767 59.4185 52.0924 61.2961C52.7172 61.9132 53.1473 62.7001 53.3294 63.5592L60.1535 59.4124C62.1075 58.2267 64.2358 58.1337 65.9932 59.1577Z" fill="#38B6FF"/>
</svg>
