<svg width="78" height="78" viewBox="0 0 78 78" fill="none" xmlns="http://www.w3.org/2000/svg">
<g id="Layer_1" clip-path="url(#clip0_4231_20)">
<path id="Vector" d="M39.0004 72.6875C31.6735 72.6904 24.5978 70.0163 19.1044 65.1679C18.8651 64.9567 18.7195 64.659 18.6996 64.3405C18.6797 64.0219 18.7873 63.7084 18.9985 63.4691C19.2097 63.2298 19.5074 63.0842 19.826 63.0643C20.1446 63.0445 20.458 63.152 20.6973 63.3632C25.7523 67.8213 32.2605 70.2811 39.0004 70.2811C45.7404 70.2811 52.2486 67.8213 57.3036 63.3632C57.5429 63.152 57.8563 63.0445 58.1749 63.0643C58.4935 63.0842 58.7912 63.2298 59.0024 63.4691C59.2136 63.7084 59.3212 64.0219 59.3013 64.3405C59.2814 64.659 59.1358 64.9567 58.8965 65.1679C53.403 70.0163 46.3274 72.6904 39.0004 72.6875Z" fill="#38B6FF"/>
<path id="Vector_2" d="M66.2327 34.1875C65.9838 34.1876 65.741 34.1104 65.5378 33.9667C65.3346 33.8229 65.181 33.6197 65.0981 33.3851C63.32 28.3604 60.1286 23.9561 55.9075 20.7017C55.66 20.505 55.5 20.2188 55.4619 19.905C55.4238 19.5912 55.5107 19.275 55.7039 19.0248C55.897 18.7746 56.1809 18.6105 56.4941 18.5679C56.8073 18.5253 57.1247 18.6076 57.3777 18.7972C61.9657 22.3341 65.4335 27.1217 67.3636 32.5838C67.4276 32.765 67.4473 32.9588 67.4209 33.1492C67.3946 33.3395 67.3231 33.5208 67.2124 33.6778C67.1017 33.8348 66.9549 33.963 66.7845 34.0517C66.614 34.1404 66.4248 34.187 66.2327 34.1875Z" fill="#38B6FF"/>
<path id="Vector_3" d="M11.3281 35.5386C11.2116 35.5383 11.0957 35.5213 10.984 35.4881C10.8326 35.4429 10.6915 35.3683 10.5689 35.2685C10.4462 35.1688 10.3445 35.0458 10.2694 34.9067C10.1943 34.7676 10.1474 34.6151 10.1313 34.4578C10.1152 34.3006 10.1302 34.1417 10.1755 33.9902C11.9715 27.953 15.6269 22.6366 20.6211 18.7984C20.7455 18.6958 20.8892 18.6194 21.0437 18.5735C21.1982 18.5276 21.3604 18.5132 21.5206 18.5312C21.6808 18.5492 21.8357 18.5992 21.9762 18.6783C22.1167 18.7573 22.2399 18.8638 22.3384 18.9913C22.4369 19.1189 22.5088 19.265 22.5498 19.4209C22.5908 19.5768 22.6001 19.7393 22.577 19.8988C22.554 20.0584 22.4991 20.2117 22.4156 20.3496C22.3322 20.4875 22.2219 20.6073 22.0913 20.7017C17.4969 24.2338 14.1338 29.1252 12.4807 34.6796C12.4067 34.9278 12.2545 35.1454 12.0468 35.3002C11.8392 35.455 11.5871 35.5386 11.3281 35.5386Z" fill="#38B6FF"/>
<path id="Vector_4" d="M39 34.1875C36.1445 34.1875 33.3532 33.3408 30.979 31.7543C28.6047 30.1679 26.7542 27.9131 25.6615 25.275C24.5688 22.6369 24.2828 19.734 24.8399 16.9334C25.397 14.1328 26.772 11.5603 28.7912 9.54115C30.8103 7.52203 33.3828 6.14699 36.1834 5.58992C38.984 5.03284 41.8869 5.31876 44.525 6.4115C47.1631 7.50424 49.4179 9.35473 51.0043 11.729C52.5908 14.1032 53.4375 16.8945 53.4375 19.75C53.4334 23.5778 51.9109 27.2476 49.2043 29.9543C46.4976 32.6609 42.8278 34.1834 39 34.1875ZM39 7.71876C36.6204 7.71876 34.2943 8.42438 32.3158 9.74639C30.3373 11.0684 28.7952 12.9474 27.8846 15.1458C26.974 17.3443 26.7357 19.7634 27.1999 22.0972C27.6642 24.431 28.81 26.5748 30.4926 28.2574C32.1752 29.94 34.319 31.0859 36.6528 31.5501C38.9867 32.0143 41.4057 31.7761 43.6042 30.8654C45.8026 29.9548 47.6816 28.4127 49.0036 26.4342C50.3256 24.4557 51.0313 22.1296 51.0313 19.75C51.0278 16.5602 49.7591 13.502 47.5035 11.2465C45.248 8.99096 42.1898 7.72226 39 7.71876Z" fill="#38B6FF"/>
<path id="Vector_5" d="M65.4351 61.8594H63.0962C62.548 61.8589 62.0188 61.6582 61.6081 61.2951C61.1973 60.932 60.9333 60.4315 60.8656 59.8875L60.7056 58.6218C60.3711 58.5015 60.0366 58.3643 59.713 58.2115L58.706 58.9947C58.2725 59.3304 57.7315 59.4967 57.1843 59.4624C56.6371 59.428 56.1212 59.1955 55.7331 58.8083L54.0812 57.1564C53.6937 56.7685 53.4611 56.2525 53.4272 55.7053C53.3933 55.1581 53.5604 54.6173 53.8971 54.1846L54.6791 53.1776C54.5257 52.8535 54.3887 52.5218 54.2689 52.1838L53.002 52.0262C52.4584 51.9572 51.9585 51.6926 51.5958 51.2819C51.2331 50.8712 51.0324 50.3424 51.0312 49.7944V47.4556C51.0324 46.9078 51.2329 46.3792 51.5954 45.9685C51.9578 45.5578 52.4574 45.293 53.0008 45.2238L54.2689 45.0662C54.3892 44.7221 54.5287 44.3888 54.6791 44.0712L53.8971 43.0642C53.5604 42.6314 53.3933 42.0907 53.4272 41.5435C53.4611 40.9963 53.6937 40.4803 54.0812 40.0924L55.7343 38.4405C56.1219 38.0533 56.6374 37.8206 57.1843 37.7863C57.7312 37.752 58.2718 37.9183 58.7048 38.2541L59.713 39.0385C60.0368 38.8852 60.3681 38.7483 60.7056 38.6282L60.8656 37.3601C60.9339 36.8166 61.1981 36.3166 61.6088 35.954C62.0195 35.5913 62.5483 35.391 63.0962 35.3906H65.4351C65.9833 35.3911 66.5125 35.5918 66.9232 35.9549C67.3339 36.318 67.5979 36.8185 67.6657 37.3625L67.8257 38.6282C68.1601 38.7485 68.4946 38.8857 68.8183 39.0385L69.8253 38.2553C70.2586 37.9193 70.7997 37.7529 71.3469 37.7872C71.8942 37.8216 72.4102 38.0543 72.7982 38.4417L74.4501 40.0936C74.8376 40.4815 75.0701 40.9975 75.104 41.5447C75.1379 42.0919 74.9708 42.6327 74.6342 43.0654L73.8521 44.0712C74.0025 44.39 74.1397 44.7233 74.2624 45.0662L75.5293 45.2238C76.0729 45.2928 76.5727 45.5574 76.9354 45.9681C77.2981 46.3788 77.4988 46.9076 77.5 47.4556V49.7944C77.4988 50.3422 77.2983 50.8708 76.9359 51.2815C76.5734 51.6922 76.0739 51.957 75.5305 52.0262L74.2624 52.1838C74.1421 52.5279 74.0025 52.86 73.8521 53.1776L74.6342 54.1858C74.9708 54.6186 75.1379 55.1593 75.104 55.7065C75.0701 56.2537 74.8376 56.7697 74.4501 57.1576L72.797 58.8095C72.409 59.196 71.8935 59.4282 71.3469 59.4625C70.8002 59.4968 70.2598 59.331 69.8265 58.9959L68.8183 58.2115C68.4945 58.3648 68.1632 58.5017 67.8257 58.6218L67.6657 59.8899C67.5974 60.4334 67.3331 60.9334 66.9225 61.296C66.5118 61.6587 65.9829 61.859 65.4351 61.8594ZM63.2358 59.4531H65.2955L65.4495 58.2247C65.5001 57.8113 65.6651 57.4201 65.9259 57.0954C66.1867 56.7706 66.533 56.525 66.9257 56.3864C67.2499 56.2748 67.5669 56.1434 67.875 55.9929C68.2503 55.8142 68.6681 55.7437 69.0813 55.7894C69.4944 55.8351 69.8867 55.9952 70.2139 56.2516L71.1884 57.0096L72.6466 55.5538L71.8874 54.5769C71.6313 54.2487 71.4719 53.8556 71.427 53.4418C71.3822 53.0279 71.4537 52.6098 71.6336 52.2344C71.7852 51.922 71.9174 51.6006 72.0294 51.2719C72.1676 50.8796 72.4128 50.5338 72.7372 50.2735C73.0617 50.0133 73.4524 49.849 73.8654 49.7993L75.0938 49.6549V47.5951L73.8654 47.4411C73.4516 47.391 73.0601 47.226 72.7352 46.9649C72.4103 46.7038 72.165 46.357 72.027 45.9637C71.916 45.6389 71.7846 45.3214 71.6336 45.0132C71.4553 44.6379 71.3849 44.2205 71.4301 43.8075C71.4754 43.3944 71.6345 43.0021 71.8898 42.6743L72.6502 41.6962L71.1932 40.2404L70.2187 40.9984C69.891 41.2557 69.4978 41.4162 69.0836 41.4617C68.6694 41.5072 68.2508 41.4359 67.875 41.2559C67.5656 41.1059 67.2474 40.9749 66.9221 40.8636C66.5292 40.7249 66.1828 40.4791 65.922 40.1541C65.6612 39.8291 65.4963 39.4377 65.4459 39.0241L65.2955 37.7969H63.2358L63.0817 39.0253C63.0312 39.4387 62.8662 39.8299 62.6054 40.1546C62.3446 40.4794 61.9983 40.725 61.6055 40.8636C61.2797 40.975 60.9611 41.1064 60.6514 41.2571C60.276 41.4353 59.8583 41.5054 59.4453 41.4598C59.0322 41.4141 58.64 41.2543 58.3126 40.9984L57.338 40.2404L55.881 41.6962L56.639 42.6719C56.8959 42.9999 57.0562 43.3929 57.1019 43.807C57.1476 44.221 57.0768 44.6396 56.8977 45.0156C56.746 45.328 56.6138 45.6494 56.5019 45.9781C56.3637 46.3704 56.1185 46.7162 55.794 46.9765C55.4696 47.2367 55.0788 47.401 54.6659 47.4507L53.4375 47.5951V49.6549L54.6659 49.8089C55.0797 49.859 55.4712 50.024 55.796 50.2851C56.1209 50.5462 56.3663 50.893 56.5043 51.2863C56.6153 51.6111 56.7467 51.9286 56.8977 52.2368C57.0762 52.6121 57.1466 53.0297 57.1012 53.4428C57.0557 53.8559 56.8961 54.2482 56.6402 54.5757L55.8798 55.5538L57.338 57.0096L58.3126 56.2516C58.6402 55.9941 59.0334 55.8334 59.4476 55.7879C59.8618 55.7424 60.2805 55.8138 60.6562 55.9941C60.9656 56.1441 61.2838 56.2751 61.6091 56.3864C62.0021 56.5251 62.3485 56.7709 62.6093 57.0959C62.8701 57.4209 63.035 57.8123 63.0854 58.2259L63.2358 59.4531Z" fill="#38B6FF"/>
<path id="Vector_6" d="M64.2656 54.6406C63.0759 54.6406 61.9128 54.2878 60.9235 53.6268C59.9343 52.9658 59.1632 52.0263 58.7079 50.9271C58.2526 49.8279 58.1335 48.6183 58.3656 47.4514C58.5977 46.2845 59.1706 45.2126 60.0119 44.3713C60.8532 43.53 61.9251 42.9571 63.092 42.725C64.259 42.4929 65.4685 42.612 66.5677 43.0673C67.6669 43.5226 68.6064 44.2936 69.2674 45.2829C69.9284 46.2722 70.2813 47.4352 70.2813 48.625C70.2793 50.2199 69.6449 51.7488 68.5172 52.8766C67.3895 54.0043 65.8605 54.6387 64.2656 54.6406ZM64.2656 45.0156C63.5518 45.0156 62.8539 45.2273 62.2604 45.6239C61.6668 46.0205 61.2042 46.5842 60.931 47.2438C60.6578 47.9033 60.5863 48.629 60.7256 49.3292C60.8649 50.0293 61.2086 50.6724 61.7134 51.1772C62.2182 51.682 62.8613 52.0258 63.5615 52.165C64.2616 52.3043 64.9873 52.2328 65.6469 51.9596C66.3064 51.6864 66.8701 51.2238 67.2667 50.6303C67.6633 50.0367 67.875 49.3389 67.875 48.625C67.875 47.6677 67.4947 46.7497 66.8178 46.0728C66.141 45.3959 65.2229 45.0156 64.2656 45.0156Z" fill="#38B6FF"/>
<path id="Vector_7" d="M10.125 51.0312C8.53014 51.0293 7.00116 50.3949 5.87342 49.2672C4.74569 48.1395 4.11129 46.6105 4.10938 45.0156V42.6094C4.10938 41.0139 4.74316 39.4838 5.87131 38.3557C6.99946 37.2275 8.52956 36.5938 10.125 36.5938C11.7204 36.5938 13.2505 37.2275 14.3787 38.3557C15.5068 39.4838 16.1406 41.0139 16.1406 42.6094V45.0156C16.1387 46.6105 15.5043 48.1395 14.3766 49.2672C13.2488 50.3949 11.7199 51.0293 10.125 51.0312ZM10.125 39C9.16773 39 8.24968 39.3803 7.57279 40.0572C6.8959 40.7341 6.51562 41.6521 6.51562 42.6094V45.0156C6.51562 45.9729 6.8959 46.8909 7.57279 47.5678C8.24968 48.2447 9.16773 48.625 10.125 48.625C11.0823 48.625 12.0003 48.2447 12.6772 47.5678C13.3541 46.8909 13.7344 45.9729 13.7344 45.0156V42.6094C13.7344 41.6521 13.3541 40.7341 12.6772 40.0572C12.0003 39.3803 11.0823 39 10.125 39Z" fill="#38B6FF"/>
<path id="Vector_8" d="M18.5469 60.6562C18.2278 60.6562 17.9218 60.5295 17.6961 60.3039C17.4705 60.0782 17.3438 59.7722 17.3438 59.4531V55.8438C17.3438 55.2056 17.0902 54.5935 16.639 54.1423C16.1877 53.691 15.5757 53.4375 14.9375 53.4375H5.3125C4.67432 53.4375 4.06228 53.691 3.61102 54.1423C3.15976 54.5935 2.90625 55.2056 2.90625 55.8438V59.4531C2.90625 59.7722 2.77949 60.0782 2.55386 60.3039C2.32823 60.5295 2.02221 60.6562 1.70312 60.6562C1.38404 60.6562 1.07802 60.5295 0.852387 60.3039C0.626757 60.0782 0.5 59.7722 0.5 59.4531V55.8438C0.5 54.5674 1.00703 53.3433 1.90955 52.4408C2.81207 51.5383 4.03615 51.0312 5.3125 51.0312H14.9375C16.2139 51.0312 17.4379 51.5383 18.3405 52.4408C19.243 53.3433 19.75 54.5674 19.75 55.8438V59.4531C19.75 59.7722 19.6232 60.0782 19.3976 60.3039C19.172 60.5295 18.866 60.6562 18.5469 60.6562Z" fill="#38B6FF"/>
<ellipse id="Ellipse 8" cx="38.3004" cy="46.0001" rx="8.4" ry="8.4" fill="#99DAFF"/>
<path id="Vector_9" d="M39 19.75C38.6809 19.75 38.3749 19.6232 38.1493 19.3976C37.9236 19.172 37.7969 18.866 37.7969 18.5469V12.5312C37.7969 12.2122 37.9236 11.9061 38.1493 11.6805C38.3749 11.4549 38.6809 11.3281 39 11.3281C39.3191 11.3281 39.6251 11.4549 39.8507 11.6805C40.0764 11.9061 40.2031 12.2122 40.2031 12.5312V18.5469C40.2031 18.866 40.0764 19.172 39.8507 19.3976C39.6251 19.6232 39.3191 19.75 39 19.75Z" fill="#38B6FF"/>
<path id="Vector_10" d="M36.5935 22.1564C36.3556 22.1563 36.123 22.0857 35.9252 21.9535C35.7274 21.8213 35.5732 21.6334 35.4822 21.4136C35.3912 21.1938 35.3673 20.9519 35.4137 20.7186C35.4601 20.4852 35.5747 20.2709 35.7429 20.1026L38.1491 17.6964C38.376 17.4772 38.68 17.3559 38.9954 17.3587C39.3109 17.3614 39.6126 17.488 39.8357 17.711C40.0588 17.9341 40.1853 18.2359 40.188 18.5513C40.1908 18.8668 40.0695 19.1707 39.8504 19.3976L37.4441 21.8038C37.2185 22.0295 36.9126 22.1563 36.5935 22.1564Z" fill="#38B6FF"/>
<path id="Vector_11" d="M39 55.8438C37.0964 55.8438 35.2355 55.2793 33.6526 54.2217C32.0698 53.164 30.8362 51.6608 30.1077 49.9021C29.3792 48.1433 29.1886 46.2081 29.5599 44.341C29.9313 42.4739 30.848 40.7589 32.1941 39.4129C33.5402 38.0668 35.2552 37.1501 37.1223 36.7787C38.9893 36.4073 40.9246 36.5979 42.6833 37.3264C44.4421 38.0549 45.9453 39.2886 47.0029 40.8714C48.0605 42.4542 48.625 44.3151 48.625 46.2188C48.6221 48.7706 47.6072 51.2171 45.8027 53.0215C43.9983 54.8259 41.5518 55.8409 39 55.8438ZM39 39C37.5723 39 36.1766 39.4234 34.9895 40.2166C33.8024 41.0098 32.8771 42.1372 32.3307 43.4563C31.7844 44.7753 31.6414 46.2268 31.92 47.6271C32.1985 49.0274 32.886 50.3136 33.8956 51.3232C34.9051 52.3327 36.1914 53.0203 37.5917 53.2988C38.992 53.5773 40.4434 53.4344 41.7625 52.888C43.0816 52.3416 44.209 51.4164 45.0022 50.2293C45.7954 49.0422 46.2188 47.6465 46.2188 46.2188C46.2168 44.3048 45.4557 42.4698 44.1023 41.1164C42.749 39.7631 40.914 39.0019 39 39Z" fill="#38B6FF"/>
<path id="Vector_12" d="M37.7967 49.8282C37.4777 49.8282 37.1717 49.7014 36.9461 49.4757L34.5399 47.0695C34.3207 46.8426 34.1995 46.5386 34.2022 46.2232C34.2049 45.9077 34.3315 45.606 34.5545 45.3829C34.7776 45.1598 35.0794 45.0333 35.3948 45.0306C35.7103 45.0278 36.0142 45.1491 36.2411 45.3682L37.7967 46.9239L41.7586 42.962C41.9855 42.7428 42.2895 42.6216 42.6049 42.6243C42.9204 42.6271 43.2221 42.7536 43.4452 42.9767C43.6683 43.1997 43.7948 43.5015 43.7975 43.8169C43.8003 44.1324 43.679 44.4363 43.4598 44.6632L38.6474 49.4757C38.4218 49.7014 38.1158 49.8282 37.7967 49.8282Z" fill="#38B6FF"/>
</g>
<defs>
<clipPath id="clip0_4231_20">
<rect width="77" height="77" fill="white" transform="translate(0.5 0.5)"/>
</clipPath>
</defs>
</svg>
