<svg width="84" height="84" viewBox="0 0 84 84" fill="none" xmlns="http://www.w3.org/2000/svg">
<g id="Layer_1">
<circle id="Ellipse 8" cx="42.7004" cy="39.1999" r="16.8" fill="#99DAFF"/>
<g id="Service_Time">
<path id="Vector" d="M73.2183 48.6375C73.0542 48.2101 72.5739 47.9985 72.1465 48.1615L68.6582 49.5082C72.324 44.7386 73.7032 38.7387 72.439 32.8335C71.2932 27.4821 68.1102 22.9034 63.477 19.9395C63.0917 19.6924 62.5785 19.8046 62.3318 20.191C62.0852 20.5774 62.198 21.089 62.5833 21.3362C71.9254 27.3109 74.1242 40.0126 67.1168 48.7862L67.441 44.6547C67.4772 44.1981 67.1361 43.7998 66.6795 43.7631C66.2289 43.7469 65.8241 44.0686 65.7885 44.5252L65.2548 51.3262C65.2061 51.9349 65.8095 52.3814 66.3794 52.1649L72.7433 49.7093C73.1702 49.5442 73.3829 49.0639 73.2183 48.6375Z" fill="#38B6FF"/>
<path id="Vector_2" d="M12.8766 40.0103C13.0714 45.4794 15.4071 50.5427 19.4525 54.2697C19.7895 54.5793 20.3142 54.5587 20.6242 54.2211C20.9345 53.8844 20.9129 53.3598 20.5762 53.05C16.8583 49.6263 14.7125 44.9743 14.5334 39.952C14.3316 34.2877 16.6439 28.9744 20.899 25.2302L19.8589 29.2415C19.744 29.6852 20.01 30.1374 20.4536 30.2518C20.8879 30.3663 21.347 30.1079 21.4639 29.6582L23.1758 23.0547C23.3268 22.4689 22.8207 21.9182 22.2141 22.0325L15.5188 23.3407C15.0698 23.4292 14.7768 23.8642 14.8647 24.3132C14.9516 24.7633 15.385 25.0493 15.8372 24.9684L19.5052 24.2517C15.0654 28.3104 12.6616 33.9767 12.8766 40.0103Z" fill="#38B6FF"/>
<path id="Vector_3" d="M10.8319 62.5849L13.8088 72.9759C14.2288 74.4401 15.7727 75.3103 17.2687 74.8518L19.9028 74.0434C21.3503 73.5987 22.1706 72.0585 21.7323 70.61L18.5714 60.1628C18.1176 58.661 16.5031 57.8345 15.0155 58.3614L12.5648 59.2249C11.193 59.7095 10.432 61.185 10.8319 62.5849ZM13.1169 60.7878C15.6008 59.9331 15.607 59.8606 15.9346 59.8606C16.3894 59.8606 16.8362 60.1536 16.9848 60.6421L20.1457 71.0892C20.3205 71.6677 19.993 72.2819 19.416 72.4589L16.7824 73.2673C16.1965 73.4456 15.5726 73.1137 15.403 72.5183L12.4261 62.1284C12.2664 61.5703 12.5702 60.981 13.1169 60.7878Z" fill="#38B6FF"/>
<path id="Vector_4" d="M67.9012 59.1365C67.1655 58.0392 65.9224 57.4878 64.6858 57.5555C64.3361 54.815 61.1486 53.4313 58.9436 55.0058L45.1502 63.7001C44.4469 64.1422 44.7616 65.2317 45.5911 65.2317C46.0448 65.2317 48.6195 63.3716 59.8654 56.3831C61.1838 55.4423 63.0646 56.3853 63.0646 58.0291C63.0646 58.0345 63.0631 58.0396 63.063 58.0449C62.5266 58.3611 55.5872 62.9574 51.5986 65.5803C51.216 65.8318 51.1107 66.3466 51.3628 66.7287C51.6153 67.1119 52.1297 67.2166 52.5107 66.964L63.8116 59.5143C64.709 58.9228 65.926 59.1667 66.5245 60.0605C67.1031 60.9229 66.9088 62.0907 66.0998 62.706L48.0804 75.6863C46.9541 76.5433 45.4846 76.7711 44.1429 76.2929L21.1899 68.7829C20.7559 68.6318 20.2848 68.8638 20.1364 69.2967C19.9869 69.7295 20.2173 70.2012 20.6502 70.3501L43.5946 77.8569C45.4616 78.5247 47.5144 78.1996 49.067 77.0183L67.0863 64.0379C68.6098 62.8797 68.9676 60.7275 67.9012 59.1365Z" fill="#38B6FF"/>
<path id="Vector_5" d="M46.5239 70.706C45.7576 70.814 44.9265 70.651 44.1213 70.2451L33.2451 64.748C32.8382 64.5386 32.3385 64.7048 32.1312 65.1139C31.9245 65.5219 32.0886 66.0205 32.4971 66.2267L43.3733 71.7239C44.4125 72.2495 45.5828 72.5085 46.7501 72.3488C49.098 72.025 49.9331 70.3099 49.3027 68.0076C48.9028 66.5451 47.9481 65.292 46.613 64.477L37.8988 59.158C28.483 53.1557 18.2794 60.5028 18.2001 60.5654C17.8379 60.845 17.771 61.3663 18.0506 61.7279C18.3318 62.0916 18.8509 62.1586 19.2136 61.8779C19.2837 61.824 28.5645 55.1697 37.0213 60.5655L45.7495 65.8932C46.722 66.4857 47.416 67.3924 47.7031 68.4448C48.1235 69.9749 47.6883 70.545 46.5239 70.706Z" fill="#38B6FF"/>
<path id="Vector_6" d="M44.5202 19.8349C44.9778 19.8349 45.3491 19.4636 45.3491 19.0059C45.3491 18.5483 44.9778 18.177 44.5202 18.177H40.4931C40.0355 18.177 39.6642 18.5483 39.6642 19.0059C39.6642 19.4636 40.0355 19.8349 40.4931 19.8349H41.8423V21.6128C32.3252 21.9696 24.8564 29.7849 24.8564 39.2288C24.8564 48.9163 32.7326 56.8796 42.5067 56.8796C52.1752 56.8796 60.1569 49.0218 60.1569 39.2288C60.1569 29.8797 52.8531 22.154 43.5002 21.6295V19.8349H44.5202ZM51.7692 29.9668C52.093 30.2906 52.6175 30.2907 52.9414 29.9668L54.3682 28.5404C56.7522 31.1833 58.2616 34.6163 58.457 38.3999H56.4347C55.977 38.3999 55.6058 38.7712 55.6058 39.2288C55.6058 39.6865 55.977 40.0578 56.4347 40.0578H58.457C58.2616 43.8415 56.7522 47.2749 54.3679 49.918L52.9414 48.4919C52.6175 48.1681 52.093 48.1681 51.7692 48.4919C51.4454 48.8157 51.4454 49.3402 51.7692 49.6641L53.1957 51.0903C50.5526 53.4747 47.1194 54.9843 43.3356 55.1797V53.1579C43.3356 52.7003 42.9643 52.329 42.5067 52.329C42.049 52.329 41.6777 52.7003 41.6777 53.1579V55.1797C37.8939 54.9843 34.4607 53.4747 31.8176 51.0903L33.2441 49.6641C33.5679 49.3402 33.5679 48.8157 33.2441 48.4919C32.9203 48.1681 32.3958 48.1681 32.072 48.4919L30.6454 49.918C28.2611 47.2749 26.7517 43.8415 26.5563 40.0578H28.5786C29.0363 40.0578 29.4076 39.6865 29.4076 39.2288C29.4076 38.7712 29.0363 38.3999 28.5786 38.3999H26.5563C26.7517 34.6163 28.2611 31.1833 30.6451 28.5404L32.072 29.9668C32.3958 30.2906 32.9203 30.2907 33.2441 29.9668C33.5679 29.643 33.5679 29.1185 33.2441 28.7947L31.8173 27.3682C34.4604 24.9839 37.8938 23.4744 41.6777 23.279V25.3008C41.6777 25.7584 42.049 26.1297 42.5067 26.1297C42.9643 26.1297 43.3356 25.7584 43.3356 25.3008V23.279C47.1195 23.4744 50.5529 24.9839 53.196 27.3682L51.7692 28.7947C51.4454 29.1185 51.4454 29.643 51.7692 29.9668Z" fill="#38B6FF"/>
<path id="Vector_7" d="M44.0973 37.4122V31.7132C44.0973 31.2556 43.726 30.8843 43.2684 30.8843C42.8107 30.8843 42.4394 31.2556 42.4394 31.7132V37.4716C41.0688 38.0171 40.3977 39.6567 41.1914 41.0427L37.0971 44.7594C36.7577 45.0671 36.7329 45.5916 37.0405 45.9305C37.3485 46.2701 37.8718 46.2946 38.211 45.9877L42.451 42.1389C44.1248 42.7963 45.8766 41.5435 45.8766 39.803C45.8766 38.674 45.1236 37.7283 44.0973 37.4122ZM43.3639 40.659C42.8928 40.659 42.509 40.2747 42.509 39.803C42.509 39.3313 42.8928 38.9482 43.3639 38.9482C43.835 38.9482 44.2188 39.3313 44.2188 39.803C44.2188 40.2747 43.835 40.659 43.3639 40.659Z" fill="#38B6FF"/>
<path id="Vector_8" d="M31.5062 15.839C31.5062 15.3813 31.1349 15.01 30.6773 15.01H20.9598C20.5022 15.01 20.1309 15.3813 20.1309 15.839C20.1309 16.2966 20.5022 16.6679 20.9598 16.6679H30.6773C31.1349 16.6679 31.5062 16.2966 31.5062 15.839Z" fill="#38B6FF"/>
<path id="Vector_9" d="M43.6867 10.085H29.7332C29.2756 10.085 28.9043 10.4563 28.9043 10.9139C28.9043 11.3716 29.2756 11.7429 29.7332 11.7429H43.6867C44.1443 11.7429 44.5156 11.3716 44.5156 10.9139C44.5156 10.4563 44.1443 10.085 43.6867 10.085Z" fill="#38B6FF"/>
<path id="Vector_10" d="M31.8665 5.80103H19.408C18.9504 5.80103 18.5791 6.17232 18.5791 6.62997C18.5791 7.08762 18.9504 7.45892 19.408 7.45892H31.8665C32.3242 7.45892 32.6955 7.08762 32.6955 6.62997C32.6955 6.17232 32.3242 5.80103 31.8665 5.80103Z" fill="#38B6FF"/>
</g>
</g>
</svg>
