<svg width="80" height="56" viewBox="0 0 80 56" fill="none" xmlns="http://www.w3.org/2000/svg">
<path id="Vector" fill-rule="evenodd" clip-rule="evenodd" d="M33.657 37.954C33.657 38.2499 33.5395 38.5337 33.3303 38.7429C33.121 38.9521 32.8373 39.0697 32.5414 39.0697H9.80561C9.50973 39.0697 9.22596 38.9521 9.01674 38.7429C8.80752 38.5337 8.68998 38.2499 8.68998 37.954C8.68998 37.6582 8.80752 37.3744 9.01674 37.1652C9.22596 36.956 9.50973 36.8384 9.80561 36.8384H32.5412C32.6877 36.8384 32.8328 36.8673 32.9682 36.9233C33.1035 36.9794 33.2265 37.0616 33.3301 37.1652C33.4337 37.2688 33.5159 37.3918 33.5719 37.5271C33.628 37.6625 33.657 37.8075 33.657 37.954ZM35.0917 32.1945C35.0917 32.4903 34.9742 32.7741 34.765 32.9833C34.5558 33.1926 34.272 33.3101 33.9761 33.3101H8.37088C8.075 33.3101 7.79124 33.1926 7.58202 32.9833C7.3728 32.7741 7.25526 32.4903 7.25526 32.1945C7.25526 31.8986 7.3728 31.6148 7.58202 31.4056C7.79124 31.1964 8.075 31.0788 8.37088 31.0788H33.976C34.1225 31.0788 34.2675 31.1077 34.4029 31.1638C34.5382 31.2198 34.6612 31.302 34.7648 31.4056C34.8684 31.5092 34.9506 31.6322 35.0067 31.7675C35.0627 31.9029 35.0917 32.048 35.0917 32.1945ZM10.4673 17.8772H18.2737V25.6843H10.4673V17.8772ZM9.35165 27.9164H19.3898C19.6856 27.9161 19.9692 27.7985 20.1784 27.5893C20.3876 27.3802 20.5052 27.0966 20.5054 26.8008V16.7616C20.5052 16.4658 20.3876 16.1822 20.1784 15.973C19.9693 15.7638 19.6856 15.6462 19.3898 15.646H9.35132C9.05544 15.646 8.77167 15.7635 8.56245 15.9727C8.35323 16.182 8.2357 16.4657 8.2357 16.7616V26.8004C8.2357 27.0963 8.35323 27.3801 8.56245 27.5893C8.77167 27.7985 9.05544 27.916 9.35132 27.916L9.35165 27.9164ZM20.4388 5.71872C20.5987 5.71876 20.7549 5.76618 20.8878 5.85499C21.0206 5.94381 21.1242 6.07003 21.1853 6.2177C21.2465 6.36536 21.2625 6.52785 21.2313 6.6846C21.2001 6.84136 21.1231 6.98534 21.0101 7.09836C20.8971 7.21137 20.7531 7.28834 20.5964 7.31953C20.4396 7.35072 20.2771 7.33473 20.1295 7.27358C19.9818 7.21243 19.8556 7.10887 19.7668 6.97599C19.6779 6.84311 19.6305 6.68689 19.6305 6.52706C19.6305 6.31267 19.7157 6.10707 19.8672 5.95548C20.0188 5.80389 20.2244 5.71872 20.4388 5.71872ZM20.4388 9.56664C21.0401 9.56661 21.6278 9.38829 22.1277 9.05422C22.6276 8.72016 23.0172 8.24536 23.2473 7.68986C23.4773 7.13437 23.5375 6.52314 23.4201 5.93345C23.3028 5.34377 23.0132 4.80212 22.588 4.37701C22.1629 3.9519 21.6212 3.66242 21.0315 3.54518C20.4418 3.42793 19.8305 3.48819 19.2751 3.71833C18.7196 3.94847 18.2449 4.33815 17.9109 4.8381C17.5769 5.33805 17.3987 5.92581 17.3987 6.52706C17.3995 7.33305 17.7201 8.1058 18.2901 8.67568C18.86 9.24556 19.6328 9.56599 20.4388 9.56664ZM6.98078 5.7202C7.14062 5.7202 7.29686 5.76759 7.42976 5.85639C7.56266 5.94519 7.66625 6.07139 7.72742 6.21906C7.78859 6.36672 7.80461 6.52921 7.77344 6.68598C7.74227 6.84274 7.66531 6.98675 7.5523 7.09978C7.43929 7.21281 7.29531 7.28979 7.13855 7.32099C6.98179 7.3522 6.8193 7.33622 6.67162 7.27507C6.52394 7.21393 6.39771 7.11037 6.30889 6.97749C6.22007 6.8446 6.17264 6.68837 6.17261 6.52853C6.17296 6.31429 6.25821 6.10891 6.40969 5.9574C6.56117 5.80588 6.76653 5.72059 6.98078 5.7202ZM6.98078 9.56812C7.58203 9.56809 8.16976 9.38976 8.66966 9.0557C9.16955 8.72164 9.55916 8.24684 9.78921 7.69134C10.0193 7.13585 10.0794 6.52461 9.96208 5.93493C9.84474 5.34524 9.55517 4.8036 9.12999 4.37849C8.70481 3.95338 8.16312 3.6639 7.57341 3.54665C6.98371 3.42941 6.37248 3.48966 5.81703 3.7198C5.26157 3.94994 4.78683 4.33963 4.45285 4.83958C4.11887 5.33953 3.94064 5.92729 3.9407 6.52853C3.94201 7.33431 4.26275 8.10669 4.83263 8.67635C5.40251 9.24601 6.17501 9.56647 6.98078 9.56746V9.56812ZM13.7096 5.7202C13.8695 5.72023 14.0257 5.76765 14.1586 5.85647C14.2915 5.94528 14.395 6.07151 14.4562 6.21917C14.5173 6.36684 14.5333 6.52932 14.5021 6.68608C14.4709 6.84283 14.394 6.98682 14.2809 7.09983C14.1679 7.21285 14.0239 7.28982 13.8672 7.32101C13.7104 7.3522 13.5479 7.3362 13.4003 7.27505C13.2526 7.21391 13.1264 7.11035 13.0376 6.97747C12.9488 6.84459 12.9013 6.68836 12.9013 6.52853C12.9017 6.31426 12.9869 6.10886 13.1384 5.95734C13.29 5.80582 13.4954 5.72055 13.7096 5.7202ZM13.7096 9.56812C14.3109 9.56809 14.8986 9.38976 15.3985 9.0557C15.8984 8.72164 16.288 8.24684 16.5181 7.69134C16.7481 7.13585 16.8083 6.52461 16.6909 5.93493C16.5736 5.34524 16.284 4.8036 15.8588 4.37849C15.4337 3.95338 14.892 3.6639 14.3023 3.54665C13.7126 3.42941 13.1013 3.48966 12.5459 3.7198C11.9904 3.94994 11.5157 4.33963 11.1817 4.83958C10.8477 5.33953 10.6695 5.92729 10.6696 6.52853C10.6707 7.33442 10.9914 8.10697 11.5613 8.67677C12.1312 9.24658 12.9038 9.56712 13.7096 9.56812ZM58.9558 49.1447C59.0624 49.1447 59.1666 49.1763 59.2552 49.2355C59.3439 49.2947 59.413 49.3789 59.4538 49.4773C59.4946 49.5758 59.5053 49.6842 59.4846 49.7887C59.4638 49.8933 59.4125 49.9893 59.3371 50.0647C59.2617 50.1401 59.1657 50.1915 59.0612 50.2123C58.9566 50.2331 58.8482 50.2224 58.7497 50.1816C58.6512 50.1408 58.5671 50.0718 58.5078 49.9831C58.4486 49.8945 58.417 49.7903 58.417 49.6837C58.417 49.5408 58.4738 49.4037 58.5748 49.3027C58.6758 49.2016 58.8129 49.1448 58.9558 49.1447ZM58.9558 52.4541C59.5037 52.4541 60.0394 52.2916 60.495 51.9871C60.9506 51.6827 61.3057 51.25 61.5154 50.7437C61.7251 50.2375 61.78 49.6804 61.6731 49.143C61.5661 48.6055 61.3023 48.1119 60.9148 47.7244C60.5273 47.337 60.0336 47.0731 59.4962 46.9662C58.9587 46.8593 58.4017 46.9142 57.8954 47.1239C57.3892 47.3337 56.9565 47.6888 56.6521 48.1444C56.3477 48.6001 56.1852 49.1357 56.1853 49.6837C56.1859 50.4183 56.478 51.1226 56.9974 51.642C57.5169 52.1614 58.2212 52.4535 58.9558 52.4541ZM52.3375 49.1447C52.4441 49.1447 52.5483 49.1764 52.6369 49.2356C52.7256 49.2948 52.7946 49.379 52.8354 49.4774C52.8762 49.5759 52.8869 49.6843 52.8661 49.7888C52.8453 49.8934 52.794 49.9894 52.7186 50.0648C52.6432 50.1402 52.5472 50.1915 52.4426 50.2123C52.3381 50.2331 52.2297 50.2224 52.1313 50.1816C52.0328 50.1408 51.9486 50.0717 51.8894 49.9831C51.8302 49.8945 51.7986 49.7903 51.7986 49.6837C51.7986 49.5408 51.8554 49.4037 51.9565 49.3027C52.0575 49.2016 52.1946 49.1448 52.3375 49.1447ZM52.3375 52.4541C52.8855 52.454 53.4211 52.2914 53.8766 51.987C54.3322 51.6825 54.6873 51.2498 54.8969 50.7435C55.1066 50.2372 55.1614 49.6802 55.0544 49.1428C54.9475 48.6054 54.6835 48.1117 54.2961 47.7243C53.9086 47.3369 53.4149 47.0731 52.8775 46.9662C52.34 46.8593 51.783 46.9142 51.2767 47.124C50.7705 47.3337 50.3379 47.6888 50.0335 48.1445C49.7291 48.6001 49.5666 49.1357 49.5666 49.6837C49.5673 50.4183 49.8594 51.1227 50.3789 51.6421C50.8984 52.1616 51.6029 52.4536 52.3375 52.4541ZM69.0422 49.6835C69.0425 49.3878 69.1602 49.1042 69.3693 48.895C69.5785 48.6859 69.862 48.5683 70.1578 48.5679H74.231C74.5269 48.5679 74.8106 48.6854 75.0198 48.8947C75.2291 49.1039 75.3466 49.3876 75.3466 49.6835C75.3466 49.9794 75.2291 50.2632 75.0198 50.4724C74.8106 50.6816 74.5269 50.7992 74.231 50.7992H70.158C69.8621 50.7992 69.5783 50.6816 69.3691 50.4724C69.1599 50.2632 69.0422 49.9794 69.0422 49.6835ZM62.4234 49.6835C62.4234 49.537 62.4523 49.392 62.5083 49.2566C62.5644 49.1212 62.6466 48.9983 62.7502 48.8947C62.8538 48.7911 62.9767 48.7089 63.1121 48.6528C63.2475 48.5968 63.3925 48.5679 63.539 48.5679H67.6117C67.9076 48.5679 68.1914 48.6854 68.4006 48.8947C68.6098 49.1039 68.7273 49.3876 68.7273 49.6835C68.7273 49.9794 68.6098 50.2632 68.4006 50.4724C68.1914 50.6816 67.9076 50.7992 67.6117 50.7992H63.539C63.3925 50.7992 63.2475 50.7703 63.1121 50.7142C62.9767 50.6582 62.8538 50.576 62.7502 50.4724C62.6466 50.3688 62.5644 50.2458 62.5083 50.1105C62.4523 49.9751 62.4234 49.83 62.4234 49.6835ZM45.379 49.1447C45.4856 49.1447 45.5898 49.1763 45.6784 49.2355C45.7671 49.2947 45.8362 49.3789 45.877 49.4773C45.9178 49.5758 45.9285 49.6842 45.9077 49.7887C45.887 49.8933 45.8356 49.9893 45.7603 50.0647C45.6849 50.1401 45.5889 50.1915 45.4843 50.2123C45.3798 50.2331 45.2714 50.2224 45.1729 50.1816C45.0744 50.1408 44.9902 50.0718 44.931 49.9831C44.8718 49.8945 44.8402 49.7903 44.8402 49.6837C44.8405 49.5409 44.8973 49.404 44.9983 49.303C45.0993 49.202 45.2361 49.1451 45.379 49.1447ZM45.379 52.4541C45.9269 52.4541 46.4626 52.2916 46.9182 51.9872C47.3739 51.6828 47.729 51.2501 47.9387 50.7438C48.1484 50.2376 48.2033 49.6805 48.0964 49.1431C47.9895 48.6056 47.7256 48.1119 47.3382 47.7245C46.9507 47.337 46.457 47.0731 45.9196 46.9662C45.3821 46.8593 44.8251 46.9142 44.3188 47.1239C43.8126 47.3336 43.3799 47.6888 43.0754 48.1444C42.771 48.6 42.6086 49.1357 42.6086 49.6837C42.6092 50.4183 42.9013 51.1227 43.4208 51.6421C43.9403 52.1615 44.6447 52.4535 45.3793 52.4541H45.379ZM52.3375 33.6502C52.444 33.6503 52.5481 33.6819 52.6366 33.7411C52.7251 33.8003 52.7941 33.8844 52.8348 33.9828C52.8756 34.0812 52.8862 34.1895 52.8654 34.2939C52.8447 34.3984 52.7934 34.4943 52.7181 34.5696C52.6428 34.6449 52.5469 34.6962 52.4424 34.717C52.338 34.7379 52.2297 34.7272 52.1313 34.6865C52.0329 34.6458 51.9488 34.5769 51.8895 34.4884C51.8303 34.3999 51.7987 34.2958 51.7986 34.1893C51.7985 34.1185 51.8124 34.0484 51.8395 33.983C51.8666 33.9176 51.9062 33.8581 51.9563 33.8081C52.0064 33.758 52.0658 33.7183 52.1312 33.6912C52.1966 33.6641 52.2667 33.6502 52.3375 33.6502ZM52.3375 36.9592C52.8854 36.9591 53.421 36.7965 53.8765 36.492C54.3321 36.1875 54.6871 35.7548 54.8967 35.2485C55.1063 34.7423 55.161 34.1852 55.054 33.6479C54.9471 33.1105 54.6831 32.6169 54.2956 32.2295C53.9081 31.8422 53.4144 31.5784 52.877 31.4716C52.3396 31.3648 51.7826 31.4197 51.2764 31.6295C50.7702 31.8393 50.3376 32.1945 50.0333 32.6501C49.7289 33.1057 49.5666 33.6414 49.5666 34.1893C49.5674 34.9239 49.8596 35.6281 50.3791 36.1474C50.8986 36.6667 51.6029 36.9587 52.3375 36.9592ZM69.0422 34.1893C69.0424 33.8935 69.16 33.6099 69.3692 33.4007C69.5784 33.1915 69.862 33.0739 70.1578 33.0737H74.231C74.5269 33.0737 74.8106 33.1912 75.0198 33.4004C75.2291 33.6097 75.3466 33.8934 75.3466 34.1893C75.3466 34.4852 75.2291 34.769 75.0198 34.9782C74.8106 35.1874 74.5269 35.3049 74.231 35.3049H70.158C69.8621 35.3049 69.5783 35.1874 69.3691 34.9782C69.1599 34.769 69.0422 34.4852 69.0422 34.1893ZM62.4234 34.1893C62.4234 34.0428 62.4523 33.8977 62.5083 33.7624C62.5644 33.627 62.6466 33.504 62.7502 33.4004C62.8538 33.2968 62.9767 33.2147 63.1121 33.1586C63.2475 33.1025 63.3925 33.0737 63.539 33.0737H67.6117C67.9076 33.0737 68.1914 33.1912 68.4006 33.4004C68.6098 33.6097 68.7273 33.8934 68.7273 34.1893C68.7273 34.4852 68.6098 34.769 68.4006 34.9782C68.1914 35.1874 67.9076 35.3049 67.6117 35.3049H63.539C63.3925 35.3051 63.2474 35.2763 63.1119 35.2203C62.9765 35.1643 62.8535 35.0821 62.7499 34.9785C62.6463 34.8748 62.5641 34.7518 62.5081 34.6164C62.452 34.481 62.4233 34.3358 62.4234 34.1893ZM55.8048 34.1893C55.8048 33.8934 55.9223 33.6097 56.1316 33.4004C56.3408 33.1912 56.6245 33.0737 56.9204 33.0737H60.9936C61.2895 33.0737 61.5732 33.1912 61.7825 33.4004C61.9917 33.6097 62.1092 33.8934 62.1092 34.1893C62.1092 34.4852 61.9917 34.769 61.7825 34.9782C61.5732 35.1874 61.2895 35.3049 60.9936 35.3049H56.9203C56.7737 35.3051 56.6286 35.2763 56.4931 35.2203C56.3577 35.1643 56.2347 35.0821 56.1311 34.9785C56.0274 34.8749 55.9453 34.7518 55.8892 34.6164C55.8332 34.481 55.8045 34.3359 55.8046 34.1893H55.8048ZM45.379 33.6502C45.4855 33.6502 45.5896 33.6818 45.6781 33.741C45.7666 33.8002 45.8356 33.8843 45.8764 33.9827C45.9172 34.0811 45.9278 34.1894 45.9071 34.2938C45.8863 34.3983 45.8351 34.4942 45.7598 34.5696C45.6845 34.6449 45.5886 34.6962 45.4841 34.717C45.3797 34.7379 45.2714 34.7273 45.173 34.6866C45.0746 34.6459 44.9904 34.5769 44.9312 34.4884C44.8719 34.3999 44.8403 34.2958 44.8402 34.1893C44.8403 34.0464 44.8972 33.9095 44.9981 33.8084C45.0991 33.7073 45.2361 33.6505 45.379 33.6502ZM45.379 36.9592C45.9269 36.9592 46.4625 36.7967 46.9181 36.4922C47.3737 36.1878 47.7288 35.7551 47.9385 35.2489C48.1481 34.7426 48.203 34.1856 48.096 33.6482C47.9891 33.1108 47.7252 32.6171 47.3377 32.2297C46.9502 31.8423 46.4566 31.5785 45.9191 31.4716C45.3817 31.3648 44.8247 31.4197 44.3184 31.6295C43.8122 31.8392 43.3796 32.1944 43.0752 32.65C42.7709 33.1057 42.6085 33.6414 42.6086 34.1893C42.6093 34.9238 42.9015 35.6281 43.421 36.1474C43.9404 36.6667 44.6448 36.9587 45.3793 36.9592H45.379ZM69.0419 18.6939C69.0419 18.3981 69.1594 18.1143 69.3686 17.9051C69.5778 17.6958 69.8616 17.5783 70.1575 17.5783H74.2307C74.5265 17.5783 74.8103 17.6958 75.0195 17.9051C75.2287 18.1143 75.3463 18.3981 75.3463 18.6939C75.3463 18.9898 75.2287 19.2736 75.0195 19.4828C74.8103 19.692 74.5265 19.8096 74.2307 19.8096H70.158C69.8622 19.8093 69.5786 19.6917 69.3694 19.4825C69.1602 19.2733 69.0426 18.9897 69.0423 18.6939H69.0419ZM62.4231 18.6939C62.4231 18.3981 62.5406 18.1143 62.7498 17.9051C62.9591 17.6958 63.2428 17.5783 63.5387 17.5783H67.6117C67.9076 17.5783 68.1914 17.6958 68.4006 17.9051C68.6098 18.1143 68.7273 18.3981 68.7273 18.6939C68.7273 18.9898 68.6098 19.2736 68.4006 19.4828C68.1914 19.692 67.9076 19.8096 67.6117 19.8096H63.539C63.3925 19.8096 63.2475 19.7807 63.1121 19.7246C62.9767 19.6686 62.8538 19.5864 62.7502 19.4828C62.6466 19.3792 62.5644 19.2562 62.5083 19.1209C62.4523 18.9855 62.4234 18.8404 62.4234 18.6939H62.4231ZM55.8045 18.6939C55.8045 18.3981 55.922 18.1143 56.1312 17.9051C56.3404 17.6958 56.6242 17.5783 56.9201 17.5783H60.9933C61.2892 17.5783 61.5729 17.6958 61.7821 17.9051C61.9914 18.1143 62.1089 18.3981 62.1089 18.6939C62.1089 18.9898 61.9914 19.2736 61.7821 19.4828C61.5729 19.692 61.2892 19.8096 60.9933 19.8096H56.9203C56.6244 19.8096 56.3406 19.692 56.1314 19.4828C55.9222 19.2736 55.8046 18.9898 55.8046 18.6939H55.8045ZM49.1857 18.6939C49.1857 18.3981 49.3032 18.1143 49.5125 17.9051C49.7217 17.6958 50.0054 17.5783 50.3013 17.5783H54.3743C54.6702 17.5783 54.954 17.6958 55.1632 17.9051C55.3724 18.1143 55.49 18.3981 55.49 18.6939C55.49 18.9898 55.3724 19.2736 55.1632 19.4828C54.954 19.692 54.6702 19.8096 54.3743 19.8096H50.3015C50.0056 19.8096 49.7218 19.692 49.5126 19.4828C49.3034 19.2736 49.1857 18.9898 49.1857 18.6939ZM45.3794 18.155C45.4861 18.1549 45.5903 18.1865 45.679 18.2457C45.7677 18.3049 45.8369 18.389 45.8777 18.4875C45.9186 18.586 45.9293 18.6944 45.9086 18.799C45.8878 18.9036 45.8365 18.9997 45.7612 19.0751C45.6858 19.1506 45.5897 19.202 45.4852 19.2228C45.3806 19.2436 45.2722 19.233 45.1737 19.1922C45.0751 19.1515 44.9909 19.0824 44.9316 18.9938C44.8724 18.9051 44.8407 18.8009 44.8407 18.6943C44.8408 18.5514 44.8976 18.4144 44.9986 18.3133C45.0996 18.2122 45.2366 18.1553 45.3794 18.155ZM45.3794 21.4648C45.9274 21.4648 46.4631 21.3022 46.9187 20.9977C47.3743 20.6933 47.7295 20.2605 47.9391 19.7542C48.1488 19.248 48.2036 18.6909 48.0967 18.1534C47.9898 17.6159 47.7258 17.1223 47.3383 16.7348C46.9508 16.3473 46.4571 16.0835 45.9197 15.9766C45.3822 15.8697 44.8251 15.9246 44.3188 16.1344C43.8126 16.3441 43.3799 16.6993 43.0754 17.1549C42.771 17.6106 42.6086 18.1463 42.6086 18.6943C42.6095 19.4288 42.9018 20.1329 43.4212 20.6523C43.9406 21.1717 44.6448 21.4639 45.3793 21.4648H45.3794ZM73.024 28.2015H44.9529V24.6814H73.024V28.2015ZM77.1437 31.5853C77.1434 31.2798 77.0219 30.9869 76.8058 30.771C76.5898 30.555 76.2969 30.4335 75.9914 30.4333H41.9812C41.676 30.4337 41.3834 30.5553 41.1677 30.7712C40.952 30.9871 40.8307 31.2798 40.8305 31.585V36.7936C40.8309 37.0988 40.9523 37.3913 41.1681 37.607C41.3839 37.8228 41.6764 37.9441 41.9815 37.9445H75.9906C76.296 37.9446 76.589 37.8234 76.8052 37.6076C77.0214 37.3918 77.1432 37.0991 77.1437 36.7936V31.5853ZM73.0225 43.6959H44.9514V40.1761H73.0225V43.6959ZM77.1437 47.0803C77.1433 46.7749 77.0217 46.482 76.8057 46.266C76.5897 46.05 76.2969 45.9285 75.9914 45.928H41.9812C41.676 45.9288 41.3835 46.0505 41.1678 46.2665C40.9521 46.4824 40.8308 46.7751 40.8305 47.0803V52.2885C40.8309 52.5936 40.9523 52.8862 41.1681 53.1019C41.3839 53.3176 41.6764 53.439 41.9815 53.4394H75.9906C76.296 53.4393 76.5889 53.3181 76.805 53.1022C77.0211 52.8864 77.1428 52.5936 77.1433 52.2882V47.0803H77.1437ZM2.85625 41.5455C2.85747 42.4563 3.21989 43.3295 3.86403 43.9734C4.50817 44.6173 5.38142 44.9794 6.29221 44.9804H39.3344C39.6502 44.5802 40.0524 44.2568 40.511 44.0342C40.9695 43.8117 41.4725 43.6959 41.9822 43.6954H42.7205V40.1761H41.9822C41.0853 40.1752 40.2254 39.8186 39.5911 39.1845C38.9568 38.5504 38.6 37.6905 38.5989 36.7936V31.5855C38.5999 30.6885 38.9565 29.8285 39.5907 29.1941C40.2249 28.5597 41.0847 28.2028 41.9817 28.2015H42.72V24.6814H41.9817C41.0848 24.6802 40.2249 24.3234 39.5908 23.6891C38.9566 23.0548 38.5999 22.1949 38.5989 21.2979V16.0904C38.5998 15.1934 38.9565 14.3334 39.5906 13.699C40.2248 13.0646 41.0847 12.7077 41.9817 12.7065H54.1658V12.6399H2.85625V41.5455ZM6.29221 2.56019C5.38123 2.56132 4.50788 2.92373 3.86375 3.56792C3.21962 4.21212 2.85729 5.0855 2.85625 5.99648V10.4078H54.1656V5.99664C54.1646 5.0855 53.8022 4.21198 53.1579 3.56774C52.5136 2.9235 51.64 2.56115 50.7289 2.56019H6.29221ZM77.1437 16.0904C77.1434 15.7849 77.0219 15.492 76.8059 15.276C76.5898 15.0599 76.2969 14.9385 75.9914 14.9382H41.9812C41.676 14.9387 41.3834 15.0603 41.1676 15.2763C40.9519 15.4923 40.8307 15.785 40.8305 16.0903V21.2979C40.8308 21.6032 40.9521 21.8958 41.1679 22.1118C41.3837 22.3277 41.6763 22.4492 41.9815 22.4497H75.9906C76.2961 22.4494 76.5891 22.328 76.8052 22.112C77.0213 21.896 77.1429 21.6031 77.1433 21.2976V16.0904H77.1437ZM75.9914 24.6814C76.8884 24.6805 77.7485 24.3237 78.3828 23.6895C79.0172 23.0552 79.374 22.1952 79.375 21.2981V16.0904C79.374 15.1932 79.0171 14.333 78.3826 13.6986C77.7481 13.0642 76.8878 12.7075 75.9906 12.7066H56.3972V5.99648C56.3954 4.49367 55.7976 3.05294 54.7349 1.99037C53.6722 0.927802 52.2313 0.330176 50.7285 0.328613H6.29221C4.78962 0.330524 3.34913 0.92833 2.28671 1.9909C1.22429 3.05347 0.626693 4.49405 0.625 5.99664V41.5455C0.626823 43.048 1.22447 44.4884 2.28684 45.5508C3.34922 46.6132 4.7896 47.2109 6.29205 47.2127H38.5989V52.2884C38.5999 53.1852 38.9566 54.045 39.5907 54.6792C40.2248 55.3134 41.0846 55.6702 41.9814 55.6713H75.9915C76.8885 55.6704 77.7485 55.3137 78.3828 54.6794C79.0171 54.0452 79.3739 53.1853 79.375 52.2884V47.0803C79.3739 46.1831 79.0169 45.323 78.3825 44.6885C77.748 44.0541 76.8878 43.6973 75.9906 43.6962H75.2542V40.1761H75.9909C76.8879 40.1754 77.748 39.8188 78.3824 39.1847C79.0169 38.5506 79.3738 37.6906 79.375 36.7936V31.5853C79.374 30.6881 79.0171 29.8279 78.3826 29.1935C77.7481 28.5592 76.8878 28.2025 75.9906 28.2017H75.2542V24.6814H75.9914ZM27.9485 5.65917H47.7588C47.9777 5.65917 48.1875 5.74609 48.3423 5.90082C48.497 6.05556 48.5839 6.26542 48.5839 6.48424C48.5839 6.70306 48.497 6.91292 48.3423 7.06765C48.1875 7.22238 47.9777 7.30931 47.7588 7.30931H27.9485C27.7296 7.30931 27.5198 7.22238 27.365 7.06765C27.2103 6.91292 27.1234 6.70306 27.1234 6.48424C27.1234 6.26542 27.2103 6.05556 27.365 5.90082C27.5198 5.74609 27.7296 5.65917 27.9485 5.65917ZM27.9485 9.54089C27.1378 9.54089 26.3603 9.21885 25.7871 8.64562C25.2139 8.07238 24.8918 7.29491 24.8918 6.48424C24.8918 5.67356 25.2139 4.89609 25.7871 4.32286C26.3603 3.74963 27.1378 3.42759 27.9485 3.42759H47.7587C48.5694 3.42759 49.3468 3.74963 49.9201 4.32286C50.4933 4.89609 50.8153 5.67356 50.8153 6.48424C50.8153 7.29491 50.4933 8.07238 49.9201 8.64562C49.3468 9.21885 48.5694 9.54089 47.7587 9.54089H27.9485Z" fill="#38B6FF"/>
</svg>
