<svg width="33" height="32" viewBox="0 0 33 32" fill="none" xmlns="http://www.w3.org/2000/svg">
<g id="icon / content">
<path id="Vector" d="M22.4149 23.9841L19.0175 25.1201C18.8575 25.1788 18.6869 25.2054 18.4949 25.2054C18.0682 25.2054 17.6575 25.0348 17.3589 24.7361C16.9322 24.3094 16.7829 23.6801 16.9749 23.1041L18.1055 19.7068C18.1962 19.4561 18.3242 19.2481 18.4949 19.0828L24.9055 12.6721C25.4869 12.0854 26.3135 11.7548 27.1669 11.7548C27.5349 11.7548 27.8975 11.8134 28.2335 11.9361V9.6001H13.7429L12.1429 11.2001H3.7002V26.6668C3.7002 26.9601 3.9402 27.2001 4.23353 27.2001H27.7002C27.9935 27.2001 28.2335 26.9601 28.2335 26.6668V18.3894L23.0175 23.6054C22.8522 23.7761 22.6442 23.9041 22.4149 23.9841ZM7.96686 12.2668H20.7669C21.0602 12.2668 21.3002 12.5068 21.3002 12.8001C21.3002 13.0934 21.0602 13.3334 20.7669 13.3334H7.96686C7.67353 13.3334 7.43353 13.0934 7.43353 12.8001C7.43353 12.5068 7.67353 12.2668 7.96686 12.2668ZM7.96686 14.9334H17.0335C17.3269 14.9334 17.5669 15.1734 17.5669 15.4668C17.5669 15.7601 17.3269 16.0001 17.0335 16.0001H7.96686C7.67353 16.0001 7.43353 15.7601 7.43353 15.4668C7.43353 15.1734 7.67353 14.9334 7.96686 14.9334ZM7.96686 17.6001H17.5669C17.8602 17.6001 18.1002 17.8401 18.1002 18.1334C18.1002 18.4268 17.8602 18.6668 17.5669 18.6668H7.96686C7.67353 18.6668 7.43353 18.4268 7.43353 18.1334C7.43353 17.8401 7.67353 17.6001 7.96686 17.6001ZM14.9002 24.0001H7.96686C7.67353 24.0001 7.43353 23.7601 7.43353 23.4668C7.43353 23.1734 7.67353 22.9334 7.96686 22.9334H14.9002C15.1935 22.9334 15.4335 23.1734 15.4335 23.4668C15.4335 23.7601 15.1935 24.0001 14.9002 24.0001ZM14.9002 21.3334H7.96686C7.67353 21.3334 7.43353 21.0934 7.43353 20.8001C7.43353 20.5068 7.67353 20.2668 7.96686 20.2668H14.9002C15.1935 20.2668 15.4335 20.5068 15.4335 20.8001C15.4335 21.0934 15.1935 21.3334 14.9002 21.3334Z" fill="#CDCDCD"/>
<path id="Vector_2" d="M25.657 13.4241L24.5264 14.5547L27.545 17.5734L28.6757 16.4427C29.0757 16.0374 29.2997 15.5041 29.2997 14.9334C29.2997 14.3627 29.0757 13.8294 28.6757 13.4241C27.8704 12.6187 26.4624 12.6187 25.657 13.4241Z" fill="#CDCDCD"/>
<path id="Vector_3" d="M17.9878 23.44C17.9238 23.632 17.9718 23.84 18.1158 23.984C18.2171 24.0853 18.3558 24.1387 18.4944 24.1387C18.5478 24.1387 18.6064 24.1333 18.6598 24.112L22.0571 22.9813C22.1318 22.9547 22.2064 22.912 22.2651 22.8533L26.7931 18.3307L23.7744 15.312L19.2464 19.8347C19.1878 19.8933 19.1451 19.968 19.1184 20.0427L17.9878 23.44Z" fill="#CDCDCD"/>
<path id="Vector_4" d="M13.3002 8.53338H28.2335V5.33338C28.2335 5.04005 27.9935 4.80005 27.7002 4.80005H4.23353C3.9402 4.80005 3.7002 5.04005 3.7002 5.33338V10.1334H11.7002L13.3002 8.53338ZM6.63353 8.53338H6.1002C5.80686 8.53338 5.56686 8.29338 5.56686 8.00005C5.56686 7.70672 5.80686 7.46672 6.1002 7.46672H6.63353C6.92686 7.46672 7.16686 7.70672 7.16686 8.00005C7.16686 8.29338 6.92686 8.53338 6.63353 8.53338ZM8.76686 8.53338H8.23353C7.9402 8.53338 7.7002 8.29338 7.7002 8.00005C7.7002 7.70672 7.9402 7.46672 8.23353 7.46672H8.76686C9.0602 7.46672 9.3002 7.70672 9.3002 8.00005C9.3002 8.29338 9.0602 8.53338 8.76686 8.53338ZM10.9002 8.53338H10.3669C10.0735 8.53338 9.83353 8.29338 9.83353 8.00005C9.83353 7.70672 10.0735 7.46672 10.3669 7.46672H10.9002C11.1935 7.46672 11.4335 7.70672 11.4335 8.00005C11.4335 8.29338 11.1935 8.53338 10.9002 8.53338Z" fill="#CDCDCD"/>
</g>
</svg>
