<svg width="33" height="32" viewBox="0 0 33 32" fill="none" xmlns="http://www.w3.org/2000/svg">
<g id="icon / ecom">
<path id="Vector" d="M10.2497 2.44531C8.91484 2.44531 7.82324 3.53125 7.82324 4.86608V17.3659C7.82324 18.7063 8.91484 19.7923 10.2497 19.7923H22.7495C24.0843 19.7923 25.1702 18.7063 25.1702 17.3659V4.86608C25.1702 3.53125 24.0843 2.44531 22.7495 2.44531H19.0759V7.57588C19.0759 7.88867 18.8231 8.14147 18.5103 8.14147H14.4849C14.1727 8.14147 13.9193 7.88867 13.9193 7.57588V2.44531H10.2497Z" fill="#CDCDCD"/>
<path id="Vector_2" d="M15.0518 2.44531H17.9462V7.01011H15.0518V2.44531Z" fill="#CDCDCD"/>
<path id="Vector_3" d="M30.0747 22.1628V10.3751C30.0747 8.91579 28.8863 7.72803 27.4277 7.72803H26.3021V8.85921H27.4277C28.2642 8.85921 28.9435 9.53796 28.9435 10.3751V21.5972H4.057V10.3694C4.057 9.53796 4.72949 8.85921 5.56149 8.85921H6.69271V7.72803H5.56149C4.10788 7.72803 2.92578 8.91016 2.92578 10.3694V23.661C2.92578 24.368 3.19671 25.0298 3.70065 25.5332C4.19274 26.0252 4.8709 26.308 5.56712 26.308H12.2808V28.4234H9.80915C9.49242 28.4234 9.24356 28.6779 9.24356 28.989C9.24356 29.3001 9.49242 29.5546 9.80915 29.5546H23.1913C23.5024 29.5546 23.7569 29.3001 23.7569 28.989C23.7569 28.6779 23.5024 28.4234 23.1913 28.4234H20.7196V26.308H27.4277C28.1228 26.308 28.8071 26.0252 29.2998 25.5332C29.7969 25.0298 30.0747 24.368 30.0747 23.661V22.1628Z" fill="#CDCDCD"/>
</g>
</svg>
