<svg width="33" height="32" viewBox="0 0 33 32" fill="none" xmlns="http://www.w3.org/2000/svg">
<g id="icon / ESP">
<path id="Vector" d="M22.1279 24.4614C22.6036 24.4614 22.9893 24.0758 22.9893 23.6001C22.9893 23.1244 22.6036 22.7388 22.1279 22.7388C21.6522 22.7388 21.2666 23.1244 21.2666 23.6001C21.2666 24.0758 21.6522 24.4614 22.1279 24.4614Z" fill="#CDCDCD"/>
<path id="Vector_2" d="M27.2672 25.5397V10.3982H5.73242V25.5397C5.73242 26.2159 6.28372 26.7672 6.95947 26.7672H26.0397C26.7155 26.7672 27.2672 26.2159 27.2672 25.5397ZM12.5167 14.1276C12.3483 13.9592 12.3483 13.6865 12.5167 13.5186C12.6847 13.3502 12.9574 13.3502 13.1257 13.5186L13.5896 13.9824L14.0539 13.5186C14.2223 13.3502 14.4945 13.3502 14.6629 13.5186C14.8313 13.6865 14.8313 13.9592 14.6629 14.1276L14.199 14.5915L14.6629 15.0553C14.8313 15.2237 14.8313 15.4963 14.6629 15.6643C14.5789 15.7487 14.4687 15.7905 14.3584 15.7905C14.2481 15.7905 14.1379 15.7487 14.0539 15.6643L13.5896 15.2004L13.1257 15.6643C13.0413 15.7487 12.9311 15.7905 12.8212 15.7905C12.711 15.7905 12.6007 15.7487 12.5167 15.6643C12.3483 15.4963 12.3483 15.2237 12.5167 15.0553L12.9806 14.5915L12.5167 14.1276ZM12.5603 22.909C12.3987 23.6929 11.7036 24.2838 10.8728 24.2838C9.92266 24.2838 9.15 23.5111 9.15 22.561C9.15 21.6109 9.92266 20.8382 10.8728 20.8382C11.6433 20.8382 12.2893 21.3495 12.509 22.0485C16.9744 21.5299 20.4514 17.8229 20.7047 13.3381L19.7356 14.3072C19.5676 14.4751 19.295 14.4751 19.1266 14.3072C18.9586 14.1388 18.9586 13.8662 19.1266 13.6982L20.8567 11.9681C20.8938 11.931 20.9368 11.9056 20.982 11.8849C20.9863 11.8833 20.9889 11.8789 20.9932 11.8772C21.15 11.8109 21.3378 11.8402 21.4657 11.9681L23.1954 13.6982C23.3638 13.8662 23.3638 14.1388 23.1954 14.3072C23.1114 14.3912 23.0011 14.4334 22.8909 14.4334C22.7811 14.4334 22.6708 14.3912 22.5864 14.3072L21.5687 13.289C21.3361 18.2485 17.4952 22.3603 12.5603 22.909ZM22.1273 25.3226C21.1771 25.3226 20.4045 24.55 20.4045 23.5999C20.4045 22.6498 21.1771 21.8771 22.1273 21.8771C23.0774 21.8771 23.8501 22.6498 23.8501 23.5999C23.8501 24.55 23.0774 25.3226 22.1273 25.3226Z" fill="#CDCDCD"/>
<path id="Vector_3" d="M10.8731 23.4224C11.3488 23.4224 11.7344 23.0367 11.7344 22.561C11.7344 22.0853 11.3488 21.6997 10.8731 21.6997C10.3974 21.6997 10.0117 22.0853 10.0117 22.561C10.0117 23.0367 10.3974 23.4224 10.8731 23.4224Z" fill="#CDCDCD"/>
<path id="Vector_4" d="M5.73242 9.53661H27.2672V6.45972C27.2672 5.78355 26.7159 5.23267 26.0397 5.23267H6.9599C6.28372 5.23267 5.73242 5.78355 5.73242 6.45972V9.53661ZM23.7755 7.384H24.3613C24.5994 7.384 24.7919 7.57651 24.7919 7.8147C24.7919 8.05285 24.5994 8.24539 24.3613 8.24539H23.7755C23.5373 8.24539 23.3448 8.05285 23.3448 7.8147C23.3448 7.57651 23.5373 7.384 23.7755 7.384ZM21.5687 7.384H22.1548C22.393 7.384 22.5855 7.57651 22.5855 7.8147C22.5855 8.05285 22.393 8.24539 22.1548 8.24539H21.5687C21.3309 8.24539 21.138 8.05285 21.138 7.8147C21.138 7.57651 21.3309 7.384 21.5687 7.384ZM19.3618 7.384H19.948C20.1861 7.384 20.3786 7.57651 20.3786 7.8147C20.3786 8.05285 20.1861 8.24539 19.948 8.24539H19.3618C19.124 8.24539 18.9311 8.05285 18.9311 7.8147C18.9311 7.57651 19.124 7.384 19.3618 7.384ZM8.63877 7.384H16.1078C16.346 7.384 16.5385 7.57651 16.5385 7.8147C16.5385 8.05285 16.346 8.24539 16.1078 8.24539H8.63877C8.40055 8.24539 8.20807 8.05285 8.20807 7.8147C8.20807 7.57651 8.40055 7.384 8.63877 7.384Z" fill="#CDCDCD"/>
</g>
</svg>
