<svg width="33" height="32" viewBox="0 0 33 32" fill="none" xmlns="http://www.w3.org/2000/svg">
<g id="icon / healthcare">
<path id="Vector" d="M26.5003 7.11101H23.167V6.00008C23.167 4.16648 21.6673 2.66675 19.8337 2.66675H13.167C11.3334 2.66675 9.83366 4.16648 9.83366 6.00008V7.11101H6.50033C4.66673 7.11101 3.16699 8.61075 3.16699 10.4443V26.0001C3.16699 27.8331 4.66673 29.3334 6.50033 29.3334H26.5003C28.3339 29.3334 29.8337 27.8331 29.8337 26.0001V10.4443C29.8337 8.61128 28.3339 7.11101 26.5003 7.11101ZM12.0561 6.00008C12.0561 5.38888 12.5563 4.88915 13.167 4.88915H19.8337C20.4449 4.88915 20.9446 5.38941 20.9446 6.00008V7.11101H12.0561V6.00008ZM22.0561 19.3334H17.6118V23.7777H15.3894V19.3334H10.9451V17.111H15.3894V12.6667H17.6118V17.111H22.0561V19.3334Z" fill="#CDCDCD"/>
</g>
</svg>
