<svg width="33" height="32" viewBox="0 0 33 32" fill="none" xmlns="http://www.w3.org/2000/svg">
<g id="icon / insurance">
<path id="Vector" d="M27.3963 5.37597C27.327 5.3813 20.239 5.9893 16.8683 2.81597C16.6657 2.61864 16.3457 2.61864 16.1377 2.81597C12.767 5.9893 5.68432 5.3813 5.60965 5.37597C5.46032 5.35997 5.31632 5.4133 5.20432 5.51464C5.09232 5.61597 5.02832 5.75464 5.02832 5.90397V10.848C5.02832 27.3653 16.3083 29.312 16.4203 29.328C16.447 29.3333 16.479 29.3333 16.5057 29.3333C16.5323 29.3333 16.559 29.3333 16.5857 29.328C16.6977 29.312 27.9777 27.3653 27.9777 10.848V5.90397C27.9777 5.75464 27.9137 5.61597 27.807 5.51464C27.695 5.4133 27.5457 5.35997 27.3963 5.37597ZM22.2017 17.3546C22.2017 17.648 21.9617 17.888 21.6683 17.888H18.383V21.1733C18.383 21.4666 18.143 21.7066 17.8497 21.7066H15.151C14.8577 21.7066 14.6177 21.4666 14.6177 21.1733V17.888H11.3323C11.039 17.888 10.799 17.648 10.799 17.3546V14.656C10.799 14.3626 11.039 14.1226 11.3323 14.1226H14.6177V10.8373C14.6177 10.544 14.8577 10.304 15.151 10.304H17.8497C18.143 10.304 18.383 10.544 18.383 10.8373V14.1226H21.6683C21.9617 14.1226 22.2017 14.3626 22.2017 14.656V17.3546Z" fill="#CDCDCD"/>
</g>
</svg>
