<svg width="33" height="32" viewBox="0 0 33 32" fill="none" xmlns="http://www.w3.org/2000/svg">
<g id="icon / logistic">
<path id="Vector" d="M13.8709 11.9041V8.41077C13.8709 8.11744 13.6309 7.87744 13.3376 7.87744H8.24427C7.9456 7.87744 7.71094 8.11744 7.71094 8.41077V11.9041H10.2549H11.3216H13.8709Z" fill="#CDCDCD"/>
<path id="Vector_2" d="M16.42 13.504C16.42 13.2107 16.18 12.9707 15.8866 12.9707H11.3213V16.9974H16.42V13.504Z" fill="#CDCDCD"/>
<path id="Vector_3" d="M5.16113 13.504V16.9974H10.2545V12.9707H5.69447C5.40113 12.9707 5.16113 13.2054 5.16113 13.504Z" fill="#CDCDCD"/>
<path id="Vector_4" d="M29.3001 18.0586H28.2015L27.5828 15.3333C27.5241 15.088 27.3108 14.9173 27.0601 14.9173H25.3588V12.3893C25.3588 12.0906 25.1241 11.856 24.8255 11.856H23.6255V9.80262C23.6255 9.50395 23.3908 9.26929 23.0921 9.26929C22.7988 9.26929 22.5588 9.50395 22.5588 9.80262V11.856H21.3588C21.0655 11.856 20.8255 12.0906 20.8255 12.3893V14.9173H19.1295C18.8788 14.9173 18.6601 15.088 18.6068 15.3333L17.9881 18.0586H3.70014C3.51348 18.0586 3.33748 18.16 3.24148 18.32C3.14548 18.48 3.14014 18.6826 3.23081 18.848L5.90281 23.84C5.99881 24.0106 6.17481 24.1226 6.37214 24.1226H25.2255C25.3855 24.1226 25.5348 24.048 25.6361 23.9253L29.7108 18.9333C29.8441 18.7733 29.8708 18.5493 29.7801 18.368C29.6948 18.1813 29.5081 18.0586 29.3001 18.0586Z" fill="#CDCDCD"/>
</g>
</svg>
