<svg width="74" height="13" viewBox="0 0 74 13" fill="none" xmlns="http://www.w3.org/2000/svg">
<g id="text">
<path id="Vector" d="M69.2935 0L67.1705 12H65.1191L67.2421 0H69.2935ZM67.6714 7.46875L67.091 7.47656C67.1493 6.98698 67.2686 6.5 67.4488 6.01562C67.629 5.52604 67.8702 5.08073 68.1724 4.67969C68.4745 4.27865 68.8429 3.95833 69.2776 3.71875C69.7175 3.47917 70.2237 3.36719 70.7962 3.38281C71.2786 3.39323 71.6788 3.48698 71.9968 3.66406C72.3149 3.84115 72.5613 4.08073 72.7363 4.38281C72.9165 4.67969 73.0358 5.02083 73.0941 5.40625C73.1524 5.78646 73.1577 6.1875 73.11 6.60938L72.2035 12H70.1363L71.0665 6.58594C71.0984 6.29427 71.0877 6.03385 71.0347 5.80469C70.987 5.57031 70.8784 5.38281 70.7087 5.24219C70.5391 5.10156 70.29 5.02865 69.9613 5.02344C69.6009 5.01302 69.2882 5.07812 69.0231 5.21875C68.7581 5.35417 68.5328 5.54167 68.3473 5.78125C68.1618 6.01562 68.0133 6.28125 67.902 6.57812C67.796 6.86979 67.7191 7.16667 67.6714 7.46875Z" fill="#38B6FF"/>
<path id="Vector_2" d="M60.9753 10.5391C61.2722 10.5443 61.5399 10.4896 61.7784 10.3751C62.0169 10.2553 62.2157 10.0912 62.3747 9.88288C62.5337 9.67454 62.6424 9.42975 62.7007 9.1485L64.6408 9.14069C64.5825 9.76048 64.3704 10.2995 64.0047 10.7579C63.6442 11.211 63.191 11.5626 62.6451 11.8126C62.0991 12.0574 61.5213 12.1719 60.9117 12.1563C60.2968 12.1459 59.7694 12.0235 59.3295 11.7891C58.8948 11.5548 58.5423 11.2423 58.272 10.8516C58.0069 10.4558 57.8214 10.0053 57.7154 9.50006C57.6094 8.99486 57.5829 8.46881 57.6359 7.92194L57.6677 7.66413C57.7313 7.08079 57.8718 6.52871 58.0891 6.00788C58.3117 5.48704 58.6086 5.02871 58.9796 4.63288C59.3507 4.23183 59.788 3.92194 60.2915 3.70319C60.8004 3.47923 61.3729 3.37506 62.009 3.39069C62.6557 3.40111 63.2122 3.54694 63.6787 3.82819C64.1452 4.10944 64.5003 4.49225 64.7441 4.97663C64.9933 5.45579 65.1152 6.00788 65.1099 6.63288L63.1778 6.62506C63.1831 6.34902 63.1407 6.09121 63.0506 5.85163C62.9658 5.60683 62.8253 5.40892 62.6292 5.25788C62.4383 5.10683 62.1839 5.0235 61.8659 5.00788C61.4948 4.99746 61.1794 5.07298 60.9197 5.23444C60.6599 5.39069 60.4453 5.60423 60.2756 5.87506C60.1113 6.14069 59.9841 6.42975 59.894 6.74225C59.8039 7.05475 59.7403 7.36204 59.7032 7.66413L59.6873 7.91413C59.6608 8.17454 59.6475 8.45319 59.6475 8.75006C59.6475 9.04694 59.6846 9.33079 59.7588 9.60163C59.8383 9.86725 59.9735 10.0886 60.1643 10.2657C60.3551 10.4376 60.6255 10.5287 60.9753 10.5391Z" fill="#38B6FF"/>
<path id="Vector_3" d="M53.0162 12.1562C52.4278 12.1458 51.9031 12.0339 51.4419 11.8203C50.9807 11.6068 50.5964 11.3151 50.289 10.9453C49.9816 10.5755 49.7563 10.1458 49.6132 9.65625C49.4753 9.16667 49.4276 8.64323 49.47 8.08594L49.5018 7.76562C49.5602 7.1875 49.7006 6.63542 49.9233 6.10938C50.1512 5.57812 50.4533 5.10677 50.8297 4.69531C51.2113 4.27865 51.6592 3.95312 52.1734 3.71875C52.6929 3.48438 53.268 3.375 53.8988 3.39062C54.4978 3.40104 55.0066 3.52344 55.4254 3.75781C55.8442 3.98698 56.1781 4.29688 56.4272 4.6875C56.6817 5.07292 56.8539 5.51042 56.9441 6C57.0342 6.48958 57.0501 7 56.9918 7.53125L56.8725 8.39844H50.3208L50.5514 6.97656L55.0278 6.98438L55.0597 6.80469C55.1074 6.4974 55.0915 6.20833 55.0119 5.9375C54.9377 5.66667 54.7973 5.44792 54.5905 5.28125C54.3891 5.10938 54.1161 5.01823 53.7716 5.00781C53.3899 4.9974 53.0666 5.07812 52.8015 5.25C52.5365 5.41667 52.3165 5.63802 52.1416 5.91406C51.972 6.1901 51.8395 6.49219 51.7441 6.82031C51.6486 7.14323 51.5824 7.45833 51.5453 7.76562L51.5135 8.07812C51.487 8.36979 51.4949 8.65885 51.5373 8.94531C51.585 9.23177 51.6725 9.49219 51.7997 9.72656C51.9322 9.96094 52.1151 10.151 52.3483 10.2969C52.5816 10.4427 52.8705 10.5208 53.215 10.5312C53.6497 10.5417 54.0472 10.4557 54.4077 10.2734C54.7734 10.0859 55.1047 9.84115 55.4015 9.53906L56.3636 10.6094C56.1198 10.9635 55.8177 11.2578 55.4572 11.4922C55.0968 11.7214 54.7045 11.8906 54.2804 12C53.8617 12.1094 53.4403 12.1615 53.0162 12.1562Z" fill="#38B6FF"/>
<path id="Vector_4" d="M47.4187 0.625L45.415 12H43.2841L45.2957 0.625H47.4187ZM50.9092 0.625L50.6071 2.32031H41.5508L41.8529 0.625H50.9092Z" fill="#38B6FF"/>
<path id="Vector_5" d="M36.6131 2.24219L31.5642 12H29.4492L35.6829 0.625H37.0425L36.6131 2.24219ZM37.7104 12L36.0725 2.03125L36.1917 0.625H37.456L39.6902 12H37.7104ZM38.2749 7.78125L37.9966 9.33594H31.8743L32.1526 7.78125H38.2749Z" fill="#176A02"/>
<path id="Vector_6" d="M28.6052 0.625L26.6015 12H24.6615L26.6731 0.625H28.6052ZM32.1276 0.625L31.8493 2.1875H22.9043L23.1826 0.625H32.1276Z" fill="#176A02"/>
<path id="Vector_7" d="M18.9295 2.24219L13.8806 12H11.7656L17.9993 0.625H19.3589L18.9295 2.24219ZM20.0268 12L18.3889 2.03125L18.5081 0.625H19.7724L22.0066 12H20.0268ZM20.5913 7.78125L20.313 9.33594H14.1907L14.469 7.78125H20.5913Z" fill="#176A02"/>
<path id="Vector_8" d="M2.89163 9.35938L6.49346 0.625H7.68613L7.20111 2.98438L3.39254 12H2.14422L2.89163 9.35938ZM2.60539 0.625L3.03474 9.46875L2.79621 12H1.50019L0.705078 0.625H2.60539ZM8.85494 9.26562L12.0036 0.625H13.9754L9.57053 12H8.25065L8.85494 9.26562ZM8.13139 0.625L8.95035 9.5625L8.89469 12H7.68613L6.7638 2.8125L6.97053 0.625H8.13139Z" fill="#176A02"/>
</g>
</svg>
