<svg width="33" height="32" viewBox="0 0 33 32" fill="none" xmlns="http://www.w3.org/2000/svg">
<g id="icon / management">
<path id="Vector" d="M12.02 6.82664C11.8066 6.9013 11.668 7.10397 11.668 7.32797V8.67197C11.668 8.89597 11.8066 9.09864 12.02 9.1733L12.5 9.34397L12.7186 9.88264L12.5053 10.336C12.404 10.544 12.4466 10.784 12.6066 10.944L13.556 11.8933C13.716 12.0533 13.9613 12.0906 14.164 11.9946L14.6173 11.7813L15.156 12L15.3266 12.48C15.4013 12.6933 15.604 12.832 15.828 12.832H17.172C17.396 12.832 17.5986 12.6933 17.6733 12.48L17.844 12L18.3826 11.7813L18.836 11.9946C19.0386 12.0906 19.284 12.0533 19.444 11.8933L20.3933 10.944C20.5533 10.784 20.596 10.544 20.4946 10.336L20.2813 9.88264L20.5 9.34397L20.98 9.1733C21.1933 9.09864 21.332 8.89597 21.332 8.67197V7.32797C21.332 7.10397 21.1933 6.9013 20.98 6.82664L20.5 6.65597L20.2813 6.1173L20.4946 5.66397C20.596 5.45597 20.5533 5.21597 20.3933 5.05597L19.444 4.10664C19.284 3.94664 19.0386 3.90397 18.836 4.0053L18.3826 4.21864L17.844 3.99997L17.6733 3.51997C17.5986 3.30664 17.396 3.16797 17.172 3.16797H15.828C15.604 3.16797 15.4013 3.30664 15.3266 3.51997L15.156 3.99997L14.6173 4.21864L14.164 4.0053C13.9613 3.90397 13.716 3.94664 13.556 4.10664L12.6066 5.05597C12.4466 5.21597 12.404 5.45597 12.5053 5.66397L12.7186 6.1173L12.5 6.65597L12.02 6.82664ZM16.5 6.9333C17.0866 6.9333 17.5666 7.4133 17.5666 7.99997C17.5666 8.58664 17.0866 9.06664 16.5 9.06664C15.9133 9.06664 15.4333 8.58664 15.4333 7.99997C15.4333 7.4133 15.9133 6.9333 16.5 6.9333Z" fill="#CDCDCD"/>
<path id="Vector_2" d="M16.4999 20.6721C18.4145 20.6721 19.9665 19.12 19.9665 17.2054C19.9665 15.2908 18.4145 13.7388 16.4999 13.7388C14.5853 13.7388 13.0332 15.2908 13.0332 17.2054C13.0332 19.12 14.5853 20.6721 16.4999 20.6721Z" fill="#CDCDCD"/>
<path id="Vector_3" d="M10.6338 24.3786V28.288C10.6338 28.5813 10.8738 28.8213 11.1671 28.8213H21.8338C22.1271 28.8213 22.3671 28.5813 22.3671 28.288V24.3786C22.3671 23.1893 21.5831 22.1546 20.4525 21.856L18.5805 21.3706C18.3885 21.3226 18.1858 21.3813 18.0525 21.5306C17.6418 21.9786 17.0925 22.2293 16.5005 22.2293C15.9085 22.2293 15.3591 21.9786 14.9485 21.5306C14.8151 21.3813 14.6125 21.3226 14.4205 21.3706L12.5431 21.856C11.4178 22.1546 10.6338 23.1893 10.6338 24.3786Z" fill="#CDCDCD"/>
<path id="Vector_4" d="M24.4997 22.432C25.9724 22.432 27.1663 21.2381 27.1663 19.7653C27.1663 18.2925 25.9724 17.0986 24.4997 17.0986C23.0269 17.0986 21.833 18.2925 21.833 19.7653C21.833 21.2381 23.0269 22.432 24.4997 22.432Z" fill="#CDCDCD"/>
<path id="Vector_5" d="M27.6897 23.2107H27.6843L26.1857 22.8374C25.9937 22.7894 25.8017 22.8534 25.6683 22.992C25.0657 23.6374 23.935 23.6374 23.3323 22.992C23.2683 22.9227 23.1883 22.8694 23.0977 22.848C23.3163 23.3174 23.4337 23.8347 23.4337 24.3787V28.288C23.4337 28.48 23.4017 28.6614 23.3323 28.832H28.767C29.0603 28.832 29.3003 28.5974 29.3003 28.2987V25.28C29.3003 24.304 28.639 23.456 27.6897 23.2107Z" fill="#CDCDCD"/>
<path id="Vector_6" d="M8.49967 22.432C9.97243 22.432 11.1663 21.2381 11.1663 19.7653C11.1663 18.2925 9.97243 17.0986 8.49967 17.0986C7.02692 17.0986 5.83301 18.2925 5.83301 19.7653C5.83301 21.2381 7.02692 22.432 8.49967 22.432Z" fill="#CDCDCD"/>
<path id="Vector_7" d="M4.23353 28.832H9.6682C9.59886 28.6614 9.56686 28.48 9.56686 28.288V24.3787C9.56686 23.8347 9.6842 23.3174 9.89753 22.848C9.8122 22.8747 9.7322 22.9227 9.6682 22.992C9.06553 23.6374 7.93486 23.6374 7.3322 22.992C7.19886 22.8534 7.00153 22.7894 6.81486 22.8374L5.31086 23.2107C4.36153 23.456 3.7002 24.304 3.7002 25.28V28.2987C3.7002 28.5974 3.9402 28.832 4.23353 28.832Z" fill="#CDCDCD"/>
</g>
</svg>
