<svg width="33" height="32" viewBox="0 0 33 32" fill="none" xmlns="http://www.w3.org/2000/svg">
<g id="icon / real_estate">
<path id="Vector" d="M3.16699 27.792C3.16699 28.64 3.85499 29.3333 4.70299 29.3333H28.2923C29.1403 29.3333 29.8337 28.64 29.8337 27.792V8H3.16699V27.792ZM9.29499 17.6267L16.1217 10.8053C16.223 10.704 16.3563 10.6453 16.5003 10.6453C16.639 10.6453 16.7777 10.704 16.879 10.8053L18.7083 12.6347V11.184C18.7083 10.8853 18.9483 10.6507 19.2417 10.6507H21.023C21.3217 10.6507 21.5563 10.8853 21.5563 11.184V15.488L23.7003 17.6267C23.9083 17.8347 23.9083 18.176 23.7003 18.384C23.599 18.4853 23.4603 18.5387 23.3217 18.5387C23.1883 18.5387 23.0497 18.4853 22.9483 18.384L22.4523 17.888V25.616C22.4523 25.9093 22.2123 26.1493 21.919 26.1493H18.0683C17.775 26.1493 17.535 25.9093 17.535 25.616V22.7627H15.4657V25.616C15.4657 25.9093 15.2257 26.1493 14.9323 26.1493H11.0817C10.7883 26.1493 10.5483 25.9093 10.5483 25.616V17.888L10.0523 18.384C9.84433 18.592 9.50833 18.592 9.29499 18.384C9.08699 18.176 9.08699 17.8347 9.29499 17.6267Z" fill="#CDCDCD"/>
<path id="Vector_2" d="M28.2923 2.66675H4.70299C3.85499 2.66675 3.16699 3.35475 3.16699 4.20275V6.93341H29.8337V4.20275C29.8337 3.35475 29.1403 2.66675 28.2923 2.66675ZM21.3537 5.86675H20.6443C20.351 5.86675 20.111 5.62675 20.111 5.33341C20.111 5.03475 20.351 4.80008 20.6443 4.80008H21.3537C21.647 4.80008 21.887 5.03475 21.887 5.33341C21.887 5.62675 21.647 5.86675 21.3537 5.86675ZM24.0203 5.86675H23.311C23.0177 5.86675 22.7777 5.62675 22.7777 5.33341C22.7777 5.03475 23.0177 4.80008 23.311 4.80008H24.0203C24.3137 4.80008 24.5537 5.03475 24.5537 5.33341C24.5537 5.62675 24.3137 5.86675 24.0203 5.86675ZM26.687 5.86675H25.9777C25.6843 5.86675 25.4443 5.62675 25.4443 5.33341C25.4443 5.03475 25.6843 4.80008 25.9777 4.80008H26.687C26.9803 4.80008 27.2203 5.03475 27.2203 5.33341C27.2203 5.62675 26.9803 5.86675 26.687 5.86675Z" fill="#CDCDCD"/>
</g>
</svg>
