<svg width="33" height="32" viewBox="0 0 33 32" fill="none" xmlns="http://www.w3.org/2000/svg">
<g id="icon / vr">
<path id="Vector" d="M22.943 8.03739H10.0576C10.9056 5.17339 13.2576 3.45605 16.5003 3.45605C19.743 3.45605 22.095 5.17339 22.943 8.03739Z" fill="#CDCDCD"/>
<path id="Vector_2" d="M22.084 15.8879C20.7827 18.7146 18.6867 20.4693 16.5 20.4693C14.3133 20.4693 12.2173 18.7146 10.916 15.8879H22.084Z" fill="#CDCDCD"/>
<path id="Vector_3" d="M29.7217 28.3412C29.6204 28.4745 29.4657 28.5492 29.3004 28.5492H3.70038C3.53505 28.5492 3.38038 28.4745 3.27905 28.3412C3.17771 28.2132 3.14571 28.0425 3.18305 27.8879L3.33771 27.2585C3.86038 25.1519 5.57771 23.5252 7.71105 23.1145L12.095 22.2719C12.879 22.1225 13.4497 21.4345 13.4497 20.6292V20.6025C14.4044 21.2052 15.439 21.5359 16.5004 21.5359C17.5617 21.5359 18.5964 21.2052 19.551 20.6025V20.6292C19.551 21.4345 20.1217 22.1225 20.9057 22.2719L25.2897 23.1145C27.423 23.5252 29.1404 25.1519 29.663 27.2585L29.8177 27.8879C29.855 28.0372 29.823 28.2079 29.7217 28.3412Z" fill="#CDCDCD"/>
<path id="Vector_4" d="M9.52917 14.8213H23.4705C24.2812 14.8213 24.9372 14.16 24.9372 13.3547V10.5707C24.9372 9.76 24.2812 9.104 23.4705 9.104H9.52917C8.7185 9.104 8.0625 9.76 8.0625 10.5707V13.3547C8.0625 14.16 8.7185 14.8213 9.52917 14.8213Z" fill="#CDCDCD"/>
</g>
</svg>
