<svg width="142" height="128" viewBox="0 0 142 128" fill="none" xmlns="http://www.w3.org/2000/svg">
<g id="Group">
<path id="Vector" fill-rule="evenodd" clip-rule="evenodd" d="M59.3331 63.7907C59.13 63.5875 58.9688 63.3463 58.8589 63.0809C58.749 62.8155 58.6924 62.531 58.6924 62.2438C58.6924 61.9565 58.749 61.672 58.8589 61.4066C58.9688 61.1412 59.13 60.9 59.3331 60.6969C59.5363 60.4938 59.7774 60.3326 60.0428 60.2227C60.3082 60.1128 60.5927 60.0562 60.88 60.0562C61.1673 60.0562 61.4517 60.1128 61.7172 60.2227C61.9826 60.3326 62.2237 60.4938 62.4269 60.6969L67.3331 65.6L78.3828 54.2435C78.7909 53.8445 79.3388 53.6209 79.9095 53.6202C80.4802 53.6196 81.0286 53.842 81.4376 54.24C81.8466 54.6381 82.0838 55.1802 82.0987 55.7507C82.1136 56.3212 81.9049 56.875 81.5172 57.2938L68.9203 70.2406C68.7184 70.4488 68.477 70.6146 68.2103 70.7283C67.9436 70.8421 67.6568 70.9015 67.3669 70.9031H67.3516C66.7725 70.9024 66.2173 70.672 65.8078 70.2625L59.3331 63.7907ZM52.7547 55.8375C52.7109 58.675 52.6703 61.9719 52.7366 65.2031L52.745 65.7719C52.7609 66.8188 52.7928 68.9872 52.9891 69.7594C54.7797 75.7594 60.5987 81.2153 70.2953 85.9813C80.6578 80.9188 86.53 75.2625 87.7512 69.1594C88.0169 67.825 88.0578 65.956 88.0894 64.4528L88.095 64.1281C88.1575 61.2938 88.1203 58.4563 88.0703 55.8156C88.0359 54.0125 87.98 52.1685 87.9266 50.3813C87.8887 49.1875 87.8519 47.9656 87.8203 46.7438C81.716 45.7384 75.8101 43.7701 70.3231 40.9125C65.7794 43.3594 60.0731 45.1653 52.9637 46.4031C52.9387 47.6625 52.9078 48.9219 52.8762 50.1531C52.8328 52.0188 52.7862 53.95 52.7547 55.8375ZM48.7706 70.9156C48.7743 70.9337 48.7794 70.9515 48.7859 70.9688C50.9891 78.4156 57.9075 84.9469 69.3547 90.3844C69.6469 90.5238 69.9665 90.5964 70.2903 90.5969C70.614 90.5974 70.9339 90.5259 71.2266 90.3875C83.4925 84.5872 90.4953 77.7344 92.0422 70.0188C92.3859 68.3028 92.4297 66.2188 92.4637 64.5438L92.4706 64.2219C92.5331 61.3091 92.495 58.4219 92.445 55.7344C92.4109 53.906 92.3544 52.0469 92.2984 50.2469C92.2456 48.4622 92.1856 46.6156 92.1547 44.8094C92.1443 44.2862 91.947 43.7841 91.5985 43.3937C91.25 43.0034 90.7733 42.7507 90.2547 42.6813C83.6245 41.8079 77.214 39.712 71.3484 36.5C71.0168 36.3188 70.644 36.2265 70.2662 36.2319C69.8884 36.2374 69.5184 36.3405 69.1922 36.5313C64.6016 39.2216 58.4766 41.1344 50.4734 42.3781C49.964 42.4586 49.4992 42.7161 49.1608 43.1053C48.8224 43.4945 48.632 43.9906 48.6231 44.5063C48.5956 46.35 48.5484 48.2281 48.5047 50.0469C48.4578 51.9219 48.4109 53.8625 48.3797 55.7688C48.3362 58.6469 48.2953 61.9906 48.3609 65.2906L48.3706 65.8372C48.4019 67.8406 48.4544 69.7344 48.7706 70.9156ZM136.875 119.19C136.874 120.151 136.492 121.072 135.812 121.751C135.133 122.43 134.212 122.812 133.252 122.813H130.177V116.356C130.177 115.776 129.946 115.22 129.536 114.809C129.126 114.399 128.569 114.169 127.989 114.169C127.409 114.169 126.852 114.399 126.442 114.809C126.032 115.22 125.802 115.776 125.802 116.356V122.813H104.511V116.356C104.511 115.776 104.28 115.22 103.87 114.809C103.46 114.399 102.904 114.169 102.323 114.169C101.743 114.169 101.187 114.399 100.777 114.809C100.366 115.22 100.136 115.776 100.136 116.356V122.813H97.4172C96.4569 122.812 95.5362 122.43 94.8571 121.751C94.1781 121.072 93.7962 120.151 93.7953 119.191V105.197C93.7981 102.875 94.722 100.649 96.3642 99.0073C98.0063 97.3657 100.233 96.4426 102.555 96.4406H128.117C130.439 96.4432 132.664 97.3666 134.306 99.0081C135.948 100.65 136.871 102.875 136.873 105.197V119.19H136.875ZM48.2059 119.19C48.2047 120.151 47.8225 121.072 47.1433 121.751C46.4641 122.43 45.5433 122.812 44.5828 122.813H41.5081V116.356C41.5081 115.776 41.2777 115.22 40.8674 114.809C40.4572 114.399 39.9008 114.169 39.3206 114.169C38.7405 114.169 38.1841 114.399 37.7738 114.809C37.3636 115.22 37.1331 115.776 37.1331 116.356V122.813H15.8391V116.356C15.8391 115.776 15.6086 115.22 15.1984 114.809C14.7881 114.399 14.2317 114.169 13.6516 114.169C13.0714 114.169 12.515 114.399 12.1048 114.809C11.6945 115.22 11.4641 115.776 11.4641 116.356V122.813H8.75C7.78926 122.812 6.86794 122.43 6.1883 121.751C5.50866 121.072 5.12624 120.151 5.125 119.191V105.197C5.12765 102.875 6.05107 100.65 7.69268 99.0081C9.33429 97.3666 11.56 96.4432 13.8816 96.4406H39.4441C41.7661 96.4425 43.9925 97.3656 45.6347 99.0072C47.2769 100.649 48.2007 102.875 48.2034 105.197V119.19H48.2059ZM128.118 92.0653H102.556C99.0737 92.0686 95.7352 93.4529 93.2728 95.9147C90.8103 98.3765 89.4251 101.715 89.4209 105.197V110.274H52.5797V105.197C52.5755 101.715 51.1903 98.3768 48.7279 95.9151C46.2654 93.4533 42.927 92.0689 39.445 92.0656H13.8825C10.4009 92.0694 7.06295 93.454 4.60097 95.9157C2.13899 98.3775 0.754053 101.715 0.75 105.197V119.19C0.7524 121.311 1.59611 123.344 3.09597 124.844C4.59582 126.343 6.62926 127.186 8.75 127.188H44.5844C46.7045 127.185 48.7372 126.342 50.2364 124.843C51.7356 123.343 52.5788 121.311 52.5812 119.191V114.65H89.4206V119.19C89.4229 121.31 90.2661 123.343 91.7653 124.842C93.2644 126.342 95.297 127.185 97.4172 127.188H133.252C135.372 127.185 137.404 126.342 138.904 124.843C140.403 123.343 141.246 121.311 141.248 119.191V105.197C141.244 101.715 139.859 98.3776 137.397 95.9159C134.936 93.4541 131.598 92.0695 128.116 92.0656L128.118 92.0653ZM136.875 27.516C136.873 28.4758 136.491 29.3958 135.812 30.0742C135.133 30.7526 134.213 31.134 133.253 31.1347H130.178V24.6778C130.178 24.0977 129.947 23.5413 129.537 23.131C129.127 22.7208 128.57 22.4903 127.99 22.4903C127.41 22.4903 126.854 22.7208 126.444 23.131C126.033 23.5413 125.803 24.0977 125.803 24.6778V31.1341H104.512V24.6778C104.512 24.0977 104.282 23.5413 103.871 23.131C103.461 22.7208 102.905 22.4903 102.325 22.4903C101.745 22.4903 101.188 22.7208 100.778 23.131C100.368 23.5413 100.137 24.0977 100.137 24.6778V31.1341H97.4184C96.4586 31.1333 95.5384 30.7518 94.8594 30.0735C94.1804 29.3951 93.7982 28.4751 93.7966 27.5153V13.5185C93.7994 11.1965 94.7232 8.97051 96.3654 7.32897C98.0076 5.68742 100.234 4.76442 102.556 4.76252H128.118C130.44 4.76508 132.666 5.68844 134.307 7.33C135.949 8.97156 136.872 11.1973 136.875 13.5188L136.875 27.516ZM122.733 76.866C122.733 81.2781 120.887 84.8691 115.343 84.8691C109.8 84.8691 107.954 81.2785 107.954 76.866C107.954 72.4535 109.8 68.866 115.343 68.866C120.887 68.866 122.733 72.4535 122.733 76.866ZM48.2047 27.5156C48.203 28.4754 47.8208 29.3954 47.1418 30.0738C46.4629 30.7521 45.5426 31.1336 44.5828 31.1344H41.5081V24.6778C41.5081 24.0977 41.2777 23.5413 40.8674 23.131C40.4572 22.7208 39.9008 22.4903 39.3206 22.4903C38.7405 22.4903 38.1841 22.7208 37.7738 23.131C37.3636 23.5413 37.1331 24.0977 37.1331 24.6778V31.1341H15.8391V24.6778C15.8391 24.0977 15.6086 23.5413 15.1984 23.131C14.7881 22.7208 14.2317 22.4903 13.6516 22.4903C13.0714 22.4903 12.515 22.7208 12.1048 23.131C11.6945 23.5413 11.4641 24.0977 11.4641 24.6778V31.1341H8.75C7.78973 31.1341 6.86869 30.7531 6.18905 30.0747C5.50942 29.3963 5.12674 28.4759 5.125 27.5156V13.5185C5.12765 11.1967 6.05125 8.97087 7.69314 7.32934C9.33503 5.6878 11.5611 4.76467 13.8828 4.76252H39.4453C41.7673 4.76442 43.9937 5.68747 45.6359 7.32908C47.2781 8.97069 48.202 11.1968 48.2047 13.5188V27.5156ZM34.0602 76.8656C34.0602 81.2778 32.2169 84.8688 26.6734 84.8688C21.13 84.8688 19.2835 81.2781 19.2835 76.8656C19.2835 72.4531 21.1294 68.8656 26.6734 68.8656C32.2175 68.8656 34.0599 72.4531 34.0602 76.8656ZM128.117 0.387207H102.554C99.0724 0.390515 95.7339 1.77498 93.2715 4.23682C90.8091 6.69866 89.4238 10.0368 89.4197 13.5188V17.275H52.5797V13.5185C52.5755 10.0366 51.1902 6.69854 48.7277 4.23682C46.2653 1.7751 42.9269 0.390745 39.445 0.38752H13.8825C10.4009 0.391324 7.06302 1.77597 4.60106 4.2377C2.1391 6.69943 0.754136 10.0372 0.75 13.5188V27.5156C0.753062 29.6359 1.5971 31.6683 3.09691 33.1669C4.59671 34.6655 6.62978 35.508 8.75 35.5094H24.6312V64.6156C17.6381 65.4716 14.9101 70.6375 14.9101 76.8656C14.9101 83.6903 18.7188 89.2438 26.675 89.2438C34.6313 89.2438 38.4365 83.6906 38.4365 76.8656C38.4365 70.7216 35.8559 65.6125 29.0062 64.6531V35.5091H44.5837C46.7034 35.5069 48.7357 34.6642 50.2348 33.1657C51.7339 31.6672 52.5776 29.6353 52.5806 27.5156V21.6497H89.4206V27.5156C89.4237 29.6353 90.2672 31.6672 91.7663 33.1657C93.2654 34.6642 95.2976 35.5071 97.4172 35.5094H113.037V64.65C106.17 65.6003 103.578 70.716 103.578 76.866C103.578 83.6906 107.387 89.2441 115.343 89.2441C123.299 89.2441 127.107 83.691 127.107 76.866C127.107 70.6438 124.39 65.4816 117.412 64.6191V35.5091H133.252C135.372 35.5069 137.404 34.6641 138.903 33.1656C140.402 31.6671 141.245 29.6352 141.248 27.5156V13.5185C141.244 10.037 139.859 6.69932 137.398 4.23761C134.936 1.7759 131.598 0.391177 128.117 0.387207Z" fill="#38B6FF"/>
<g id="Group_2">
<path id="Vector_2" fill-rule="evenodd" clip-rule="evenodd" d="M70.2948 85.9812C80.6573 80.9187 86.5295 75.2625 87.7508 69.1594C88.0164 67.825 88.0573 65.9559 88.0889 64.4528L88.0945 64.1281C88.157 61.2937 88.1198 58.4562 88.0698 55.8156C88.0355 54.0125 87.9795 52.1684 87.9261 50.3812C87.8883 49.1875 87.8514 47.9656 87.8198 46.7437C81.7156 45.7383 75.8097 43.7701 70.3227 40.9125C65.7789 43.3594 60.0727 45.1653 52.9633 46.4031C52.9383 47.6625 52.9073 48.9218 52.8758 50.1531C52.8323 52.0187 52.7858 53.95 52.7542 55.8375C52.7105 58.675 52.6698 61.9718 52.7361 65.2031L52.7445 65.7719C52.7605 66.8187 52.7923 68.9872 52.9886 69.7594C54.7792 75.7594 60.5983 81.2153 70.2948 85.9812ZM81.5167 57.2937L68.9198 70.2406C68.7179 70.4487 68.4766 70.6145 68.2098 70.7283C67.9431 70.842 67.6564 70.9015 67.3664 70.9031H67.3511C66.772 70.9023 66.2168 70.6719 65.8073 70.2625L59.3327 63.7906C58.9224 63.3803 58.6919 62.8239 58.6919 62.2437C58.6919 61.6635 58.9224 61.1071 59.3327 60.6969C59.7429 60.2866 60.2993 60.0561 60.8795 60.0561C61.4597 60.0561 62.0161 60.2866 62.4264 60.6969L67.3327 65.6L78.3823 54.2434C78.7904 53.8445 79.3383 53.6208 79.909 53.6202C80.4797 53.6195 81.0281 53.842 81.4371 54.24C81.8461 54.638 82.0834 55.1802 82.0982 55.7507C82.1131 56.3212 81.9044 56.8749 81.5167 57.2937Z" fill="#99DAFF"/>
</g>
</g>
</svg>
