<svg width="148" height="150" viewBox="0 0 148 150" fill="none" xmlns="http://www.w3.org/2000/svg">
<g id="Group">
<path id="Vector" fill-rule="evenodd" clip-rule="evenodd" d="M53.4471 67.4569C53.4471 67.1778 53.5021 66.9015 53.6089 66.6437C53.7157 66.3859 53.8722 66.1516 54.0695 65.9543C54.2668 65.757 54.5011 65.6004 54.7589 65.4936C55.0167 65.3868 55.2931 65.3319 55.5721 65.3319H62.9931C63.5566 65.3319 64.0971 65.5558 64.4957 65.9543C64.8942 66.3528 65.1181 66.8933 65.1181 67.4569C65.1181 68.0205 64.8942 68.561 64.4957 68.9595C64.0971 69.358 63.5566 69.5819 62.9931 69.5819H55.5724C55.0088 69.5819 54.4683 69.358 54.0698 68.9595C53.6713 68.561 53.4471 68.0205 53.4471 67.4569ZM27.0755 67.5316V67.3831C27.0755 67.1041 27.1305 66.8277 27.2373 66.5699C27.3441 66.3121 27.5006 66.0779 27.6979 65.8805C27.8953 65.6832 28.1295 65.5267 28.3873 65.4199C28.6452 65.3131 28.9215 65.2581 29.2005 65.2581C29.4796 65.2581 29.7559 65.3131 30.0138 65.4199C30.2716 65.5267 30.5058 65.6832 30.7032 65.8805C30.9005 66.0779 31.057 66.3121 31.1638 66.5699C31.2706 66.8277 31.3256 67.1041 31.3256 67.3831V67.5312C31.3256 67.8103 31.2706 68.0866 31.1638 68.3445C31.057 68.6023 30.9005 68.8365 30.7032 69.0339C30.5058 69.2312 30.2716 69.3877 30.0138 69.4945C29.7559 69.6013 29.4796 69.6562 29.2005 69.6562C28.9215 69.6562 28.6452 69.6013 28.3873 69.4945C28.1295 69.3877 27.8953 69.2312 27.6979 69.0339C27.5006 68.8365 27.3441 68.6023 27.2373 68.3445C27.1305 68.0866 27.0755 67.8106 27.0755 67.5316ZM19.2202 67.5316V67.3831C19.2202 66.8195 19.4441 66.279 19.8426 65.8805C20.2411 65.482 20.7817 65.2581 21.3452 65.2581C21.9088 65.2581 22.4493 65.482 22.8478 65.8805C23.2464 66.279 23.4702 66.8195 23.4702 67.3831V67.5312C23.4702 68.095 23.2463 68.6357 22.8476 69.0344C22.4489 69.4331 21.9082 69.657 21.3445 69.657C20.7807 69.657 20.24 69.4331 19.8413 69.0344C19.4426 68.6357 19.2187 68.095 19.2187 67.5312L19.2202 67.5316ZM11.3646 67.5316V67.3831C11.3646 66.8195 11.5885 66.279 11.987 65.8805C12.3855 65.482 12.926 65.2581 13.4896 65.2581C14.0532 65.2581 14.5937 65.482 14.9922 65.8805C15.3907 66.279 15.6146 66.8195 15.6146 67.3831V67.5312C15.6146 68.095 15.3906 68.6357 14.992 69.0344C14.5933 69.4331 14.0526 69.657 13.4888 69.657C12.925 69.657 12.3843 69.4331 11.9857 69.0344C11.587 68.6357 11.363 68.095 11.363 67.5312L11.3646 67.5316ZM48.1515 39.2284C48.1515 39.792 47.9276 40.3325 47.5291 40.731C47.1306 41.1296 46.5901 41.3534 46.0265 41.3534H38.6052C38.0417 41.3534 37.5011 41.1296 37.1026 40.731C36.7041 40.3325 36.4802 39.792 36.4802 39.2284C36.4802 38.6649 36.7041 38.1244 37.1026 37.7258C37.5011 37.3273 38.0417 37.1034 38.6052 37.1034H46.0268C46.5904 37.1034 47.1309 37.3273 47.5294 37.7258C47.9279 38.1244 48.1515 38.6649 48.1515 39.2284ZM30.8259 39.1547V39.3031C30.8259 39.8667 30.602 40.4072 30.2035 40.8057C29.8049 41.2042 29.2644 41.4281 28.7009 41.4281C28.1373 41.4281 27.5968 41.2042 27.1983 40.8057C26.7997 40.4072 26.5759 39.8667 26.5759 39.3031V39.1544C26.5759 38.5908 26.7997 38.0503 27.1983 37.6518C27.5968 37.2533 28.1373 37.0294 28.7009 37.0294C29.2644 37.0294 29.8049 37.2533 30.2035 37.6518C30.602 38.0503 30.8259 38.5911 30.8259 39.1547ZM22.9702 39.1547V39.3031C22.9702 39.5822 22.9153 39.8585 22.8085 40.1163C22.7017 40.3741 22.5452 40.6084 22.3478 40.8057C22.1505 41.0031 21.9163 41.1596 21.6584 41.2664C21.4006 41.3732 21.1243 41.4281 20.8452 41.4281C20.5662 41.4281 20.2899 41.3732 20.032 41.2664C19.7742 41.1596 19.54 41.0031 19.3426 40.8057C19.1453 40.6084 18.9888 40.3741 18.882 40.1163C18.7752 39.8585 18.7202 39.5822 18.7202 39.3031V39.1544C18.7202 38.5908 18.9441 38.0503 19.3426 37.6518C19.7411 37.2533 20.2817 37.0294 20.8452 37.0294C21.4088 37.0294 21.9493 37.2533 22.3478 37.6518C22.7464 38.0503 22.9702 38.5911 22.9702 39.1547ZM15.1184 39.1547V39.3031C15.1184 39.8667 14.8945 40.4072 14.496 40.8057C14.0974 41.2042 13.5569 41.4281 12.9934 41.4281C12.4298 41.4281 11.8893 41.2042 11.4908 40.8057C11.0922 40.4072 10.8684 39.8667 10.8684 39.3031V39.1544C10.8684 38.5908 11.0922 38.0503 11.4908 37.6518C11.8893 37.2533 12.4298 37.0294 12.9934 37.0294C13.5569 37.0294 14.0974 37.2533 14.496 37.6518C14.8945 38.0503 15.1184 38.5911 15.1184 39.1547ZM30.8259 10.9263V11.0747C30.8259 11.6383 30.602 12.1788 30.2035 12.5773C29.8049 12.9758 29.2644 13.1997 28.7009 13.1997C28.1373 13.1997 27.5968 12.9758 27.1983 12.5773C26.7997 12.1788 26.5759 11.6383 26.5759 11.0747V10.9263C26.5759 10.3627 26.7997 9.82216 27.1983 9.42365C27.5968 9.02513 28.1373 8.80125 28.7009 8.80125C29.2644 8.80125 29.8049 9.02513 30.2035 9.42365C30.602 9.82216 30.8259 10.3627 30.8259 10.9263ZM22.9702 10.9263V11.0747C22.9702 11.6383 22.7464 12.1788 22.3478 12.5773C21.9493 12.9758 21.4088 13.1997 20.8452 13.1997C20.2817 13.1997 19.7411 12.9758 19.3426 12.5773C18.9441 12.1788 18.7202 11.6383 18.7202 11.0747V10.9263C18.7202 10.3627 18.9441 9.82216 19.3426 9.42365C19.7411 9.02513 20.2817 8.80125 20.8452 8.80125C21.4088 8.80125 21.9493 9.02513 22.3478 9.42365C22.7464 9.82216 22.9702 10.3627 22.9702 10.9263ZM15.1184 10.9263V11.0747C15.1184 11.6383 14.8945 12.1788 14.496 12.5773C14.0974 12.9758 13.5569 13.1997 12.9934 13.1997C12.4298 13.1997 11.8893 12.9758 11.4908 12.5773C11.0922 12.1788 10.8684 11.6383 10.8684 11.0747V10.9263C10.8684 10.3627 11.0922 9.82216 11.4908 9.42365C11.8893 9.02513 12.4298 8.80125 12.9934 8.80125C13.5569 8.80125 14.0974 9.02513 14.496 9.42365C14.8945 9.82216 15.1184 10.3627 15.1184 10.9263ZM36.7012 67.4575C36.7012 67.1784 36.7561 66.9021 36.8629 66.6443C36.9697 66.3865 37.1262 66.1522 37.3236 65.9549C37.5209 65.7576 37.7552 65.601 38.013 65.4943C38.2708 65.3875 38.5471 65.3325 38.8262 65.3325H46.2474C46.811 65.3325 47.3515 65.5564 47.75 65.9549C48.1485 66.3534 48.3724 66.8939 48.3724 67.4575C48.3724 68.0211 48.1485 68.5616 47.75 68.9601C47.3515 69.3586 46.811 69.5825 46.2474 69.5825H38.8265C38.2629 69.5825 37.7224 69.3586 37.3239 68.9601C36.9254 68.5616 36.7015 68.0211 36.7015 67.4575H36.7012ZM65.9359 39.2291C65.9352 39.7924 65.7111 40.3326 65.3127 40.7309C64.9144 41.1293 64.3742 41.3534 63.8109 41.3541H56.3896C55.826 41.3541 55.2855 41.1302 54.887 40.7317C54.4885 40.3331 54.2646 39.7926 54.2646 39.2291C54.2646 38.6655 54.4885 38.125 54.887 37.7265C55.2855 37.3279 55.826 37.1041 56.3896 37.1041H63.8112C64.3746 37.1046 64.9148 37.3286 65.3132 37.727C65.7116 38.1254 65.9357 38.6656 65.9362 39.2291H65.9359ZM65.4959 11C65.4959 11.5636 65.272 12.1041 64.8735 12.5026C64.4749 12.9011 63.9345 13.125 63.3709 13.125H55.949C55.3854 13.125 54.8449 12.9011 54.4464 12.5026C54.0479 12.1041 53.824 11.5636 53.824 11C53.824 10.4364 54.0479 9.89591 54.4464 9.4974C54.8449 9.09888 55.3854 8.875 55.949 8.875H63.3702C63.9338 8.875 64.4743 9.09888 64.8728 9.4974C65.2714 9.89591 65.4952 10.4364 65.4952 11H65.4959ZM47.4102 11C47.4102 11.5636 47.1864 12.1041 46.7878 12.5026C46.3893 12.9011 45.8488 13.125 45.2852 13.125H37.864C37.5849 13.125 37.3086 13.07 37.0508 12.9632C36.793 12.8565 36.5587 12.6999 36.3614 12.5026C36.1641 12.3053 36.0075 12.071 35.9007 11.8132C35.7939 11.5554 35.739 11.2791 35.739 11C35.739 10.7209 35.7939 10.4446 35.9007 10.1868C36.0075 9.92898 36.1641 9.69472 36.3614 9.4974C36.5587 9.30007 36.793 9.14355 37.0508 9.03676C37.3086 8.92996 37.5849 8.875 37.864 8.875H45.2852C45.8488 8.875 46.3893 9.09888 46.7878 9.4974C47.1864 9.89591 47.4102 10.4364 47.4102 11ZM120.24 8.04219C120.242 7.96103 120.276 7.88385 120.333 7.82652C120.391 7.7692 120.468 7.73611 120.549 7.73406H142.893C142.974 7.73611 143.051 7.76922 143.109 7.82659C143.167 7.88397 143.2 7.96123 143.202 8.0425V30.3891C143.2 30.4704 143.166 30.5476 143.109 30.6049C143.051 30.6622 142.973 30.6952 142.892 30.6972H120.548C120.467 30.6952 120.39 30.6621 120.332 30.6048C120.274 30.5475 120.241 30.4703 120.238 30.3891V8.04219H120.24ZM120.24 49.3053C120.242 49.2242 120.276 49.1472 120.333 49.09C120.391 49.0328 120.468 48.9998 120.549 48.9978H142.893C142.974 48.9999 143.051 49.0331 143.109 49.0905C143.167 49.148 143.2 49.2253 143.202 49.3066V71.6528C143.2 71.7342 143.166 71.8115 143.109 71.869C143.051 71.9264 142.974 71.9595 142.892 71.9616H120.548C120.467 71.9597 120.39 71.9268 120.332 71.8696C120.274 71.8124 120.241 71.7352 120.238 71.6541V49.3066L120.24 49.3053ZM70.7668 43.9719V34.4856C70.7665 33.9535 70.5549 33.4433 70.1786 33.067C69.8023 32.6908 69.2921 32.4793 68.7599 32.4791H6.80399C6.27215 32.4797 5.76226 32.6912 5.38608 33.0672C5.0099 33.4431 4.7981 33.9529 4.79711 34.4847V43.9722C4.7981 44.5041 5.00993 45.0139 5.38617 45.3899C5.76241 45.7659 6.27238 45.9775 6.8043 45.9781H68.7593C69.2915 45.9778 69.8018 45.7663 70.1782 45.39C70.5546 45.0137 70.7663 44.5035 70.7668 43.9712V43.9719ZM63.2606 56.4569H12.3062V50.2294H63.2606V56.4569ZM70.7668 62.7134C70.7662 62.1814 70.5545 61.6713 70.1782 61.2952C69.8019 60.9191 69.2917 60.7078 68.7596 60.7075H6.80399C6.27218 60.7081 5.76229 60.9195 5.3861 61.2954C5.00991 61.6713 4.7981 62.181 4.79711 62.7128V72.2003C4.7981 72.7322 5.00993 73.2421 5.38617 73.6181C5.76241 73.9941 6.27238 74.2056 6.8043 74.2063H68.7593C69.2914 74.2062 69.8018 73.9949 70.1782 73.6187C70.5546 73.2426 70.7663 72.7324 70.7668 72.2003V62.7128V62.7134ZM12.3062 22H63.2606V28.2275H12.3062V22ZM4.79711 15.7444C4.79827 16.2762 5.01016 16.7859 5.38637 17.1618C5.76259 17.5378 6.27246 17.7493 6.8043 17.75H68.7593C69.2914 17.7498 69.8017 17.5385 70.1781 17.1624C70.5545 16.7863 70.7662 16.2762 70.7668 15.7441V6.25688C70.7664 5.72483 70.5548 5.21471 70.1785 4.83859C69.8022 4.46247 69.292 4.2511 68.7599 4.25094H6.80399C6.27215 4.2516 5.76226 4.46308 5.38608 4.83903C5.0099 5.21497 4.7981 5.72473 4.79711 6.25656V15.7444ZM84.5065 81.83C84.509 81.7488 84.5425 81.6717 84.6001 81.6145C84.6577 81.5573 84.735 81.5242 84.8162 81.5222H107.161C107.243 81.5243 107.32 81.5575 107.378 81.6149C107.435 81.6723 107.469 81.7496 107.471 81.8309V104.178C107.469 104.259 107.435 104.336 107.377 104.393C107.32 104.45 107.242 104.482 107.161 104.484H84.8174C84.7364 104.482 84.659 104.45 84.6012 104.393C84.5435 104.336 84.5098 104.259 84.5071 104.178V81.83H84.5065ZM84.5065 123.094C84.509 123.013 84.5426 122.936 84.6002 122.879C84.6578 122.822 84.7351 122.789 84.8162 122.788H107.161C107.243 122.789 107.32 122.822 107.378 122.879C107.435 122.936 107.469 123.013 107.471 123.094V145.439C107.469 145.521 107.436 145.599 107.378 145.656C107.32 145.714 107.243 145.747 107.161 145.749H84.8174C84.7359 145.747 84.6581 145.714 84.6004 145.656C84.5426 145.599 84.5092 145.521 84.5071 145.44V123.094L84.5065 123.094ZM120.549 34.9481H142.893C144.102 34.947 145.261 34.4664 146.116 33.6118C146.971 32.7571 147.452 31.5983 147.454 30.3894V8.0425C147.452 6.8333 146.971 5.67417 146.116 4.81946C145.26 3.96475 144.101 3.48426 142.891 3.48344H120.548C119.338 3.48443 118.179 3.9651 117.324 4.81997C116.468 5.67485 115.987 6.83413 115.985 8.04344V17.09H92.4502C91.8867 17.09 91.3462 17.3139 90.9476 17.7124C90.5491 18.1109 90.3252 18.6514 90.3252 19.215V37.7212H75.0177V34.485C75.0159 32.8259 74.3559 31.2353 73.1826 30.0623C72.0092 28.8893 70.4184 28.2298 68.7593 28.2284H67.5121V22H68.7596C70.4187 21.9987 72.0095 21.3391 73.1828 20.1661C74.3561 18.9931 75.016 17.4025 75.0177 15.7434V6.25656C75.0159 4.59745 74.3559 3.00685 73.1826 1.83385C72.0092 0.660861 70.4184 0.00132344 68.7593 0H6.8043C5.14531 0.00190146 3.55479 0.661667 2.38157 1.8346C1.20834 3.00754 0.548175 4.59789 0.545859 6.25688V15.7444C0.548423 17.4031 1.20866 18.9931 2.3818 20.1658C3.55495 21.3385 5.14524 21.9981 6.80399 22H8.05399V28.2275H6.80399C5.14497 28.2295 3.55445 28.8893 2.38123 30.0623C1.20802 31.2353 0.547863 32.8257 0.545547 34.4847V43.9719C0.547532 45.6309 1.20747 47.2215 2.38061 48.3946C3.55375 49.5678 5.14429 50.2277 6.80336 50.2297H8.05336V56.4572H6.80336C5.14435 56.4592 3.55383 57.119 2.38061 58.292C1.20739 59.465 0.547237 61.0554 0.544922 62.7144V72.2012C0.547072 73.8602 1.2071 75.4505 2.38022 76.6235C3.55335 77.7964 5.14381 78.4562 6.80273 78.4581H46.7365V114.464C46.7365 115.028 46.9604 115.568 47.3589 115.967C47.7574 116.365 48.2979 116.589 48.8615 116.589H54.5918V134.268C54.5918 134.831 54.8157 135.372 55.2142 135.77C55.6127 136.169 56.1532 136.393 56.7168 136.393H80.2556V145.438C80.2567 146.647 80.7375 147.807 81.5925 148.662C82.4475 149.517 83.6069 149.999 84.8162 150H107.161C108.371 149.998 109.53 149.517 110.385 148.662C111.24 147.808 111.721 146.648 111.722 145.439V123.094C111.721 121.885 111.24 120.726 110.385 119.871C109.529 119.017 108.37 118.537 107.161 118.536H84.8174C83.6084 118.537 82.4489 119.017 81.5936 119.872C80.7382 120.726 80.2568 121.885 80.2549 123.094V132.143H58.8443V95.1284H80.2571V104.177C80.2584 105.386 80.7394 106.545 81.5944 107.399C82.4495 108.254 83.6086 108.734 84.8174 108.735H107.163C108.372 108.734 109.531 108.254 110.386 107.399C111.241 106.545 111.722 105.386 111.723 104.177V81.83C111.722 80.6211 111.24 79.4623 110.385 78.6077C109.53 77.7531 108.371 77.2725 107.162 77.2713H84.8187C83.6095 77.2723 82.45 77.753 81.5947 78.6078C80.7394 79.4626 80.258 80.6217 80.2562 81.8309V90.8775H56.7174C56.154 90.8779 55.6137 91.1019 55.2153 91.5004C54.8169 91.8988 54.5928 92.439 54.5924 93.0025V112.338H50.9874V78.4578H68.7596C70.4188 78.4566 72.0096 77.797 73.183 76.6239C74.3563 75.4508 75.0162 73.8601 75.0177 72.2009V62.7134C75.0158 61.0544 74.3558 59.4639 73.1825 58.2909C72.0091 57.118 70.4184 56.4585 68.7593 56.4572H67.5121V50.2294H68.7596C70.4188 50.2281 72.0096 49.5685 73.1829 48.3954C74.3562 47.2223 75.0161 45.6316 75.0177 43.9725V41.9725H90.3246V60.4791C90.3246 61.0426 90.5485 61.5831 90.947 61.9817C91.3455 62.3802 91.886 62.6041 92.4496 62.6041H115.988V71.6519C115.99 72.8608 116.471 74.0198 117.326 74.8746C118.181 75.7293 119.34 76.2102 120.549 76.2116H142.893C144.102 76.2103 145.261 75.7297 146.116 74.875C146.971 74.0203 147.452 72.8614 147.454 71.6525V49.3056C147.452 48.0965 146.97 46.9376 146.115 46.083C145.26 45.2284 144.1 44.748 142.891 44.7472H120.547C119.338 44.7482 118.179 45.2288 117.323 46.0836C116.468 46.9384 115.987 48.0976 115.985 49.3069V58.3547H94.5756V21.3409H115.988V30.3894C115.99 31.5983 116.471 32.7571 117.326 33.6118C118.181 34.4664 119.34 34.947 120.549 34.9481Z" fill="#38B6FF"/>
<path id="Vector_2" fill-rule="evenodd" clip-rule="evenodd" d="M143.205 30.3894V8.04281C143.202 7.96155 143.169 7.88428 143.111 7.82691C143.054 7.76953 142.976 7.73642 142.895 7.73438H120.551C120.47 7.73642 120.393 7.76951 120.335 7.82684C120.278 7.88416 120.244 7.96134 120.242 8.0425V30.3894C120.245 30.4706 120.278 30.5478 120.336 30.6051C120.394 30.6624 120.471 30.6955 120.552 30.6975H142.896C142.977 30.6951 143.054 30.6619 143.111 30.6047C143.169 30.5474 143.202 30.4704 143.205 30.3894Z" fill="#99DAFF"/>
<path id="Vector_3" fill-rule="evenodd" clip-rule="evenodd" d="M142.893 48.9976H120.549C120.468 48.9995 120.391 49.0325 120.333 49.0897C120.276 49.1469 120.243 49.224 120.24 49.3051V71.6526C120.243 71.7337 120.276 71.8109 120.334 71.8681C120.392 71.9253 120.469 71.9582 120.55 71.9601H142.894C142.975 71.958 143.053 71.9249 143.111 71.8675C143.168 71.81 143.202 71.7327 143.204 71.6513V49.3051C143.202 49.2237 143.168 49.1465 143.11 49.0893C143.052 49.0321 142.974 48.9993 142.893 48.9976Z" fill="#99DAFF"/>
<path id="Vector_4" fill-rule="evenodd" clip-rule="evenodd" d="M107.161 81.5219H84.8175C84.7363 81.5239 84.659 81.5569 84.6014 81.6142C84.5438 81.6714 84.5103 81.7485 84.5078 81.8297V104.177C84.5105 104.258 84.5442 104.335 84.6019 104.392C84.6597 104.449 84.737 104.481 84.8181 104.483H107.162C107.243 104.481 107.32 104.449 107.378 104.392C107.436 104.335 107.469 104.258 107.472 104.177V81.8306C107.469 81.7491 107.436 81.6717 107.378 81.6143C107.32 81.5568 107.243 81.5237 107.161 81.5219Z" fill="#99DAFF"/>
</g>
</svg>
