<svg width="156" height="146" viewBox="0 0 156 146" fill="none" xmlns="http://www.w3.org/2000/svg">
<g id="Group">
<path id="Vector" fill-rule="evenodd" clip-rule="evenodd" d="M61.1997 57.9213V45.1147C63.3159 46.3161 65.7103 46.9415 68.1437 46.9282C70.5772 46.915 72.9646 46.2637 75.0677 45.0393C77.1707 43.8149 78.9158 42.0603 80.1288 39.9507C81.3417 37.841 81.98 35.4501 81.98 33.0166C81.98 30.5831 81.3417 28.1921 80.1288 26.0825C78.9158 23.9728 77.1707 22.2182 75.0677 20.9938C72.9646 19.7694 70.5772 19.1181 68.1437 19.1049C65.7103 19.0917 63.3159 19.717 61.1997 20.9184V4.76781H109.075C109.972 4.76913 110.832 5.12634 111.467 5.76108C112.101 6.39583 112.458 7.25629 112.459 8.15375V57.9213H93.2684C92.8108 57.9213 92.3647 58.065 91.9929 58.3319C91.6212 58.5989 91.3425 58.9757 91.1962 59.4093C91.0499 59.843 91.0432 60.3116 91.1772 60.7492C91.3112 61.1868 91.5791 61.5714 91.9431 61.8488C93.5323 63.0569 94.7024 64.7333 95.2883 66.6417C95.8742 68.5501 95.8465 70.5943 95.209 72.4861C94.5715 74.3779 93.3565 76.022 91.7351 77.1866C90.1137 78.3512 88.1677 78.9777 86.1714 78.9777C84.1751 78.9777 82.2291 78.3512 80.6077 77.1866C78.9863 76.022 77.7713 74.3779 77.1338 72.4861C76.4963 70.5943 76.4686 68.5501 77.0545 66.6417C77.6405 64.7333 78.8105 63.0569 80.3997 61.8488C80.7636 61.5713 81.0314 61.1868 81.1653 60.7492C81.2992 60.3116 81.2925 59.843 81.1462 59.4095C80.9998 58.9759 80.7212 58.5991 80.3494 58.3322C79.9777 58.0653 79.5317 57.9217 79.0741 57.9216L61.1997 57.9213ZM56.8247 75.5888C54.7129 74.3299 52.3053 73.6531 49.8469 73.6273C47.3885 73.6016 44.9672 74.2277 42.8295 75.4421C40.6918 76.6565 38.9141 78.4156 37.6774 80.5405C36.4408 82.6653 35.7892 85.0799 35.7892 87.5384C35.7892 89.997 36.4408 92.4116 37.6774 94.5364C38.9141 96.6612 40.6918 98.4204 42.8295 99.6348C44.9672 100.849 47.3885 101.475 49.8469 101.45C52.3053 101.424 54.7129 100.747 56.8247 99.4881V109.732H8.57219C7.67479 109.731 6.8145 109.374 6.18 108.739C5.5455 108.104 5.18857 107.244 5.1875 106.347V62.2963H24.2141C24.6649 62.2962 25.1048 62.1569 25.4734 61.8973C25.842 61.6378 26.1215 61.2706 26.2734 60.8461C26.4254 60.4217 26.4425 59.9606 26.3224 59.526C26.2023 59.0915 25.9509 58.7046 25.6025 58.4184C24.0823 57.1714 22.9848 55.4849 22.4601 53.5899C21.9354 51.695 22.0092 49.6842 22.6714 47.8328C23.3336 45.9814 24.5519 44.38 26.1594 43.2477C27.767 42.1155 29.6852 41.5077 31.6514 41.5077C33.6177 41.5077 35.5358 42.1155 37.1434 43.2477C38.7509 44.38 39.9692 45.9814 40.6314 47.8328C41.2936 49.6842 41.3674 51.695 40.8428 53.5899C40.3181 55.4849 39.2205 57.1714 37.7003 58.4184C37.3519 58.7046 37.1005 59.0915 36.9804 59.5261C36.8603 59.9607 36.8774 60.4218 37.0294 60.8463C37.1814 61.2708 37.4609 61.6379 37.8296 61.8975C38.1983 62.157 38.6382 62.2963 39.0891 62.2963H56.8247V75.5888ZM8.57219 4.76781C7.67476 4.76913 6.81447 5.12628 6.17998 5.76095C5.54549 6.39562 5.18857 7.256 5.1875 8.15343V57.9213H19.5528C18.3514 55.805 17.7261 53.4106 17.7394 50.9771C17.7527 48.5436 18.4041 46.1562 19.6285 44.0531C20.8529 41.9501 22.6075 40.205 24.7172 38.9921C26.8269 37.7791 29.2179 37.1408 31.6514 37.1408C34.0849 37.1408 36.4759 37.7791 38.5856 38.9921C40.6953 40.205 42.4499 41.9501 43.6743 44.0531C44.8988 46.1562 45.5501 48.5436 45.5634 50.9771C45.5767 53.4106 44.9514 55.805 43.75 57.9213H56.8247V40.4544C56.8247 40.0036 56.964 39.5638 57.2236 39.1952C57.4831 38.8266 57.8502 38.5471 58.2746 38.3951C58.699 38.2431 59.16 38.226 59.5946 38.346C60.0291 38.466 60.416 38.7173 60.7022 39.0656C61.9493 40.5858 63.6357 41.6834 65.5307 42.2081C67.4256 42.7328 69.4364 42.6589 71.2878 41.9967C73.1392 41.3345 74.7406 40.1162 75.8729 38.5087C77.0052 36.9012 77.6129 34.983 77.6129 33.0167C77.6129 31.0505 77.0052 29.1323 75.8729 27.5247C74.7406 25.9172 73.1392 24.699 71.2878 24.0367C69.4364 23.3745 67.4256 23.3007 65.5307 23.8254C63.6357 24.3501 61.9493 25.4476 60.7022 26.9678C60.4159 27.316 60.0291 27.5672 59.5946 27.6872C59.1601 27.8071 58.6992 27.7899 58.2749 27.6379C57.8505 27.4859 57.4835 27.2066 57.224 26.838C56.9645 26.4695 56.8251 26.0298 56.825 25.5791V4.76656L8.57219 4.76781ZM86.1734 83.3525C88.6331 83.3497 91.0482 82.6956 93.173 81.4567C95.2979 80.2177 97.0567 78.4381 98.2707 76.2989C99.4847 74.1597 100.11 71.7371 100.084 69.2776C100.058 66.8181 99.3815 64.4093 98.1225 62.2963H114.645C114.723 62.2963 114.797 62.2922 114.869 62.285C115.408 62.23 115.908 61.977 116.271 61.5749C116.634 61.1728 116.835 60.6502 116.835 60.1084V8.15343C116.833 6.09612 116.014 4.12372 114.56 2.66895C113.105 1.21418 111.133 0.395831 109.075 0.393433H8.57219C6.51489 0.396079 4.54263 1.21455 3.08796 2.66934C1.63329 4.12412 0.814981 6.09645 0.8125 8.15375V106.346C0.814816 108.404 1.63319 110.376 3.08809 111.831C4.54299 113.286 6.51559 114.105 8.57312 114.107H59.0125C59.5927 114.107 60.1491 113.876 60.5593 113.466C60.9695 113.056 61.2 112.5 61.2 111.919C61.2002 111.916 61.2002 111.913 61.2 111.91V94.6363C61.2002 94.1784 61.0566 93.732 60.7897 93.3601C60.5227 92.9881 60.1458 92.7093 59.712 92.5629C59.2781 92.4165 58.8093 92.4099 58.3716 92.544C57.9338 92.6782 57.5492 92.9463 57.2719 93.3106C56.0636 94.8998 54.3871 96.0698 52.4787 96.6557C50.5702 97.2416 48.5261 97.2138 46.6342 96.5763C44.7424 95.9388 43.0983 94.7237 41.9337 93.1022C40.7691 91.4808 40.1426 89.5348 40.1426 87.5384C40.1426 85.5421 40.7691 83.5961 41.9337 81.9746C43.0983 80.3532 44.7424 79.1381 46.6342 78.5006C48.5261 77.8631 50.5702 77.8353 52.4787 78.4212C54.3871 79.0071 56.0636 80.1771 57.2719 81.7663C57.5492 82.1304 57.9338 82.3985 58.3715 82.5325C58.8092 82.6666 59.278 82.66 59.7117 82.5136C60.1454 82.3672 60.5223 82.0884 60.7893 81.7165C61.0562 81.3447 61.1998 80.8984 61.1997 80.4406V62.2963H74.2241C72.9651 64.4093 72.2881 66.8181 72.2621 69.2777C72.2361 71.7373 72.8619 74.1598 74.0759 76.2991C75.2899 78.4383 77.0488 80.2179 79.1737 81.4568C81.2986 82.6957 83.7137 83.3498 86.1734 83.3525ZM150.812 137.846C150.811 138.744 150.454 139.605 149.819 140.24C149.184 140.874 148.323 141.231 147.425 141.232H99.55V130.141C99.5501 129.744 99.442 129.354 99.2374 129.014C99.0328 128.674 98.7393 128.395 98.3885 128.209C98.0377 128.023 97.6429 127.935 97.2462 127.956C96.8496 127.978 96.4662 128.106 96.1372 128.329C94.3627 129.524 92.2966 130.213 90.1602 130.324C88.0238 130.435 85.8975 129.962 84.0091 128.957C82.1206 127.952 80.5411 126.452 79.4397 124.618C78.3383 122.784 77.7564 120.685 77.7564 118.546C77.7564 116.407 78.3383 114.308 79.4397 112.474C80.5411 110.64 82.1206 109.14 84.0091 108.135C85.8975 107.13 88.0238 106.657 90.1602 106.768C92.2966 106.879 94.3627 107.568 96.1372 108.763C96.4662 108.986 96.8496 109.114 97.2461 109.135C97.6427 109.156 98.0376 109.069 98.3883 108.883C98.739 108.696 99.0324 108.418 99.237 108.078C99.4416 107.737 99.5497 107.348 99.5497 106.951V94.1344H109.884C108.904 96.5875 108.541 99.2433 108.825 101.87C109.109 104.496 110.032 107.012 111.513 109.199C112.995 111.386 114.99 113.177 117.323 114.415C119.657 115.653 122.258 116.3 124.9 116.3C127.541 116.3 130.143 115.653 132.476 114.415C134.81 113.177 136.804 111.386 138.286 109.199C139.768 107.012 140.691 104.496 140.975 101.87C141.259 99.2433 140.895 96.5875 139.915 94.1344H150.812V137.846ZM153 89.7594C153.58 89.7599 154.136 89.9905 154.546 90.4006C154.956 90.8108 155.187 91.3669 155.188 91.9469V137.847C155.185 139.904 154.366 141.877 152.911 143.331C151.455 144.786 149.483 145.604 147.425 145.607H97.3628C96.7827 145.607 96.2263 145.376 95.816 144.966C95.4058 144.556 95.1753 143.999 95.1753 143.419V133.709C92.7307 134.614 90.1034 134.915 87.5176 134.585C84.9317 134.256 82.4639 133.306 80.3244 131.816C78.185 130.327 76.4373 128.342 75.2305 126.032C74.0236 123.721 73.3934 121.153 73.3934 118.546C73.3934 115.939 74.0236 113.371 75.2305 111.061C76.4373 108.75 78.185 106.766 80.3244 105.276C82.4639 103.787 84.9317 102.837 87.5176 102.507C90.1034 102.178 92.7307 102.478 95.1753 103.383V91.9456C95.1753 91.3655 95.4058 90.8091 95.816 90.3988C96.2263 89.9886 96.7827 89.7581 97.3628 89.7581H113.575C113.978 89.7585 114.373 89.8703 114.717 90.0811C115.061 90.2918 115.339 90.5934 115.522 90.9526C115.705 91.3117 115.785 91.7144 115.754 92.1162C115.722 92.5181 115.581 92.9034 115.344 93.2297C114.07 94.9904 113.306 97.069 113.139 99.2361C112.971 101.403 113.405 103.574 114.394 105.51C115.382 107.446 116.887 109.071 118.74 110.206C120.594 111.341 122.725 111.941 124.899 111.941C127.072 111.941 129.204 111.341 131.057 110.206C132.911 109.071 134.415 107.446 135.404 105.51C136.392 103.574 136.827 101.403 136.659 99.2361C136.491 97.069 135.728 94.9904 134.454 93.2297C134.218 92.903 134.076 92.5175 134.045 92.1156C134.014 91.7137 134.095 91.311 134.278 90.952C134.461 90.5929 134.74 90.2914 135.084 90.0807C135.427 89.87 135.823 89.7583 136.226 89.7578L153 89.7594Z" fill="#38B6FF"/>
<g id="Group_2">
<path id="Vector_2" fill-rule="evenodd" clip-rule="evenodd" d="M89.5495 106.753C87.7062 106.753 85.8887 107.185 84.2427 108.015C82.5967 108.845 81.1681 110.049 80.0716 111.53C78.9751 113.012 78.2411 114.73 77.9286 116.547C77.616 118.363 77.7337 120.228 78.272 121.991C78.8104 123.754 79.7545 125.366 81.0286 126.698C82.3026 128.03 83.8712 129.045 85.6084 129.661C87.3457 130.278 89.2031 130.478 91.0319 130.247C92.8606 130.015 94.6096 129.359 96.1386 128.329C96.4676 128.107 96.851 127.978 97.2477 127.957C97.6443 127.936 98.0392 128.023 98.39 128.209C98.7407 128.396 99.0342 128.674 99.2388 129.014C99.4434 129.355 99.5515 129.744 99.5514 130.142V141.232H147.426C148.324 141.231 149.185 140.874 149.82 140.24C150.455 139.605 150.812 138.744 150.813 137.846V94.1344H139.916C140.895 96.5875 141.259 99.2434 140.975 101.87C140.691 104.496 139.768 107.012 138.286 109.199C136.805 111.386 134.81 113.177 132.477 114.415C130.143 115.653 127.542 116.3 124.9 116.3C122.259 116.3 119.657 115.653 117.324 114.415C114.99 113.177 112.995 111.386 111.514 109.199C110.032 107.012 109.109 104.496 108.825 101.87C108.541 99.2434 108.905 96.5875 109.885 94.1344H99.5502V106.951C99.5502 107.348 99.4421 107.737 99.2375 108.078C99.0329 108.418 98.7395 108.696 98.3888 108.883C98.038 109.069 97.6432 109.156 97.2466 109.135C96.8501 109.114 96.4667 108.986 96.1377 108.763C94.1926 107.448 91.8974 106.748 89.5495 106.753Z" fill="#99DAFF"/>
<path id="Vector_3" fill-rule="evenodd" clip-rule="evenodd" d="M56.8247 57.9213V40.4544C56.8247 40.0036 56.964 39.5638 57.2236 39.1952C57.4831 38.8266 57.8502 38.5472 58.2746 38.3952C58.699 38.2432 59.16 38.226 59.5946 38.346C60.0291 38.466 60.416 38.7174 60.7022 39.0657C61.9493 40.5858 63.6357 41.6834 65.5307 42.2081C67.4256 42.7328 69.4364 42.659 71.2878 41.9967C73.1392 41.3345 74.7406 40.1162 75.8729 38.5087C77.0052 36.9012 77.6129 34.983 77.6129 33.0168C77.6129 31.0505 77.0052 29.1323 75.8729 27.5248C74.7406 25.9173 73.1392 24.699 71.2878 24.0368C69.4364 23.3745 67.4256 23.3007 65.5307 23.8254C63.6357 24.3501 61.9493 25.4477 60.7022 26.9679C60.4159 27.316 60.0291 27.5672 59.5946 27.6872C59.1601 27.8071 58.6992 27.7899 58.2749 27.6379C57.8505 27.486 57.4835 27.2066 57.224 26.8381C56.9645 26.4695 56.8251 26.0298 56.825 25.5791V4.7666H8.57219C7.67454 4.76793 6.81407 5.12525 6.17954 5.76019C5.54501 6.39513 5.18824 7.25583 5.1875 8.15348V57.9213H19.5528C18.3514 55.805 17.7261 53.4106 17.7394 50.9771C17.7527 48.5436 18.4041 46.1562 19.6285 44.0532C20.8529 41.9501 22.6075 40.205 24.7172 38.9921C26.8269 37.7792 29.2179 37.1408 31.6514 37.1408C34.0849 37.1408 36.4759 37.7792 38.5856 38.9921C40.6953 40.205 42.4499 41.9501 43.6743 44.0532C44.8988 46.1562 45.5501 48.5436 45.5634 50.9771C45.5767 53.4106 44.9514 55.805 43.75 57.9213H56.8247Z" fill="#99DAFF"/>
</g>
</g>
</svg>
