<svg width="160" height="160" viewBox="0 0 160 160" fill="none" xmlns="http://www.w3.org/2000/svg">
<path d="M124 48C124 65.6731 109.673 80 92 80C74.3269 80 60 65.6731 60 48C60 30.3269 74.3269 16 92 16C109.673 16 124 30.3269 124 48Z" fill="#99DAFF"/>
<path fill-rule="evenodd" clip-rule="evenodd" d="M128 48C128 67.8823 111.882 84 92 84C72.1178 84 56 67.8823 56 48C56 28.1178 72.1178 12 92 12C111.882 12 128 28.1178 128 48ZM92 80C109.673 80 124 65.6731 124 48C124 30.3269 109.673 16 92 16C74.3269 16 60 30.3269 60 48C60 65.6731 74.3269 80 92 80Z" fill="#38B6FF"/>
<path fill-rule="evenodd" clip-rule="evenodd" d="M81.3842 55.7944C81.3209 55.5283 81.311 55.2523 81.3549 54.9824C81.3988 54.7125 81.4957 54.4539 81.6401 54.2216C81.7844 53.9893 81.9732 53.7878 82.1957 53.6289C82.4182 53.4699 82.67 53.3565 82.9366 53.2953C83.2031 53.234 83.4791 53.2262 83.7487 53.2721C84.0183 53.318 84.2762 53.4169 84.5074 53.5629C84.7386 53.7089 84.9386 53.8993 85.0959 54.123C85.2533 54.3467 85.3648 54.5993 85.424 54.8663C86.4018 59.1197 90.8078 60.506 94.7407 59.9947C96.997 59.7 98.7213 58.5614 99.3536 56.948C99.8364 55.716 99.5715 54.4012 98.6085 53.2452C97.0495 51.373 95.358 51.1191 93.0169 50.7672C91.5273 50.5896 90.0604 50.2562 88.6404 49.7725C88.6185 49.7651 88.597 49.7567 88.5759 49.7471C84.8225 48.2271 82.6118 45.2981 82.6625 41.913C82.7141 38.4517 85.0724 35.3522 88.6698 34.0187C89.3118 33.779 89.9727 33.5934 90.6456 33.4637V30.3821C90.6427 30.108 90.6941 29.8362 90.797 29.5821C90.8998 29.3281 91.052 29.097 91.2447 28.9022C91.4375 28.7074 91.6669 28.5527 91.9198 28.4471C92.1727 28.3416 92.4441 28.2872 92.7181 28.2872C92.9922 28.2872 93.2635 28.3416 93.5164 28.4471C93.7693 28.5527 93.9988 28.7074 94.1915 28.9022C94.3842 29.097 94.5364 29.3281 94.6393 29.5821C94.7421 29.8362 94.7935 30.108 94.7906 30.3821V33.4107C98.6088 34.0856 101.872 36.7728 103.455 40.9527C103.551 41.2072 103.597 41.4782 103.588 41.7502C103.58 42.0222 103.518 42.2899 103.406 42.5379C103.294 42.786 103.135 43.0096 102.936 43.196C102.738 43.3824 102.505 43.5279 102.25 43.6242C101.996 43.7205 101.725 43.7657 101.453 43.7573C101.181 43.7489 100.913 43.687 100.665 43.5751C100.417 43.4632 100.193 43.3036 100.007 43.1053C99.8207 42.907 99.6752 42.674 99.5789 42.4195C97.9843 38.2098 94.18 36.3952 90.1103 37.9045C88.16 38.6276 86.8323 40.2649 86.8067 41.9761C86.7828 43.6244 87.9515 45.0157 90.1003 45.8955C91.2527 46.3121 92.4084 46.4849 93.6315 46.6693C96.2533 47.063 99.2246 47.5073 101.793 50.5933C103.739 52.9306 104.257 55.7977 103.213 58.4596C102.021 61.504 99.0533 63.6134 95.2755 64.1063C95.1147 64.127 94.953 64.1454 94.7904 64.1617V67.0608C94.7904 67.6105 94.572 68.1377 94.1833 68.5264C93.7946 68.9151 93.2675 69.1334 92.7178 69.1334C92.1681 69.1334 91.6409 68.9151 91.2522 68.5264C90.8635 68.1377 90.6452 67.6105 90.6452 67.0608V64.0109C86.4321 63.283 82.5191 60.7339 81.3834 55.7932L81.3842 55.7944ZM123.199 127.418C123.159 127.439 123.119 127.46 123.08 127.483L88.7011 147.733L65.8872 142.945C61.7305 142.073 57.3111 142.201 53.0383 142.328C52.6946 142.34 52.3563 142.349 52.0214 142.358C52.0283 142.229 52.0321 142.098 52.0321 141.964V108.854C52.0591 108.854 52.0854 108.852 52.1129 108.852C54.8658 108.813 59.9905 108.744 61.4802 109.389L80.125 117.465C80.3724 117.571 80.6376 117.628 80.9066 117.635C81.9157 117.656 83.0213 117.628 84.1916 117.6C88.5291 117.497 93.9263 117.366 96.325 119.715C97.2707 120.643 97.7275 121.967 97.7218 123.776C97.7218 124.658 97.4411 125.033 97.2299 125.24C96.8324 125.627 95.7292 126.268 92.7942 126.187H81.5258C81.2536 126.187 80.9841 126.24 80.7327 126.345C80.4812 126.449 80.2527 126.601 80.0603 126.794C79.8678 126.986 79.7151 127.215 79.611 127.466C79.5068 127.718 79.4532 127.987 79.4532 128.259C79.4532 128.532 79.5068 128.801 79.611 129.053C79.7151 129.304 79.8678 129.533 80.0603 129.725C80.2527 129.917 80.4812 130.07 80.7327 130.174C80.9841 130.278 81.2536 130.332 81.5258 130.332H92.713C92.9027 130.337 93.0892 130.339 93.2725 130.339C96.4084 130.339 98.653 129.641 100.122 128.209C100.767 127.579 101.25 126.802 101.531 125.945L116.732 116.711C119.827 114.829 122.183 115.428 123.614 116.262C124.632 116.873 125.472 117.74 126.05 118.777C126.628 119.813 126.924 120.984 126.909 122.171C126.861 123.734 126.179 125.915 123.199 127.417L123.199 127.418ZM44.6177 145.234H36.3536C35.4869 145.233 34.6561 144.888 34.0434 144.275C33.4306 143.662 33.0861 142.831 33.0854 141.964V108.508C33.0861 107.642 33.4306 106.811 34.0434 106.198C34.6561 105.585 35.4869 105.24 36.3536 105.238H44.6168C45.4836 105.239 46.3146 105.584 46.9275 106.197C47.5403 106.81 47.885 107.642 47.8857 108.508V141.964C47.885 142.831 47.5404 143.662 46.9276 144.275C46.3147 144.888 45.4846 145.233 44.6177 145.234ZM125.701 112.681C127.366 113.665 128.74 115.074 129.68 116.764C130.62 118.454 131.094 120.364 131.052 122.298C130.939 126.022 128.781 129.22 125.128 131.086L90.1129 151.713C89.7943 151.901 89.4314 152 89.0618 152C88.9187 151.999 88.7761 151.984 88.6359 151.956L65.0363 147.001C61.36 146.229 57.1921 146.353 53.1616 146.471C52.2672 146.498 51.3515 146.526 50.4445 146.542C49.7519 147.426 48.8676 148.141 47.8583 148.632C46.849 149.124 45.7411 149.379 44.6184 149.38H36.3536C34.3877 149.377 32.503 148.595 31.113 147.205C29.723 145.815 28.9413 143.93 28.9395 141.964V108.508C28.9412 106.542 29.7229 104.657 31.1129 103.267C32.5029 101.877 34.3877 101.095 36.3536 101.093H44.6168C45.9019 101.094 47.1647 101.428 48.2816 102.064C49.3984 102.7 50.3309 103.615 50.9877 104.72C51.3178 104.717 51.6747 104.713 52.0539 104.706C56.8508 104.639 60.9943 104.66 63.1261 105.583L81.3906 113.494C82.2102 113.5 83.1276 113.477 84.0901 113.454C89.2068 113.332 95.5744 113.178 99.2234 116.754C100.413 117.93 101.233 119.429 101.58 121.065L114.578 113.166C118.3 110.908 122.354 110.731 125.701 112.681Z" fill="#38B6FF"/>
</svg>
