<svg width="112" height="150" viewBox="0 0 112 150" fill="none" xmlns="http://www.w3.org/2000/svg">
<g id="Group">
<path id="Vector" fill-rule="evenodd" clip-rule="evenodd" d="M6.91283 16.1457V5.48946C11.8192 6.96232 17.2491 7.68712 23.1596 7.63279L6.91283 16.1457ZM9.59954 36.7277C9.59954 36.1673 9.3769 35.6298 8.98061 35.2335C8.58432 34.8372 8.04683 34.6146 7.4864 34.6146H6.91283V20.9154L34.1974 6.6215C34.6374 6.39001 34.9817 6.01077 35.1697 5.5505C35.3578 5.09022 35.3775 4.57839 35.2254 4.10502C35.0733 3.63165 34.7592 3.22707 34.3383 2.96243C33.9173 2.69779 33.4166 2.59005 32.9241 2.65815C22.3424 4.13373 13.1309 3.43368 5.54683 0.57188L5.51484 0.562824C5.46714 0.544711 5.41823 0.529919 5.36873 0.514523C5.34603 0.508025 5.32294 0.502983 5.2996 0.499429C5.25774 0.487389 5.21506 0.47841 5.1719 0.472562C5.14089 0.465817 5.10956 0.460678 5.07802 0.457167C5.043 0.451129 5.00708 0.44811 4.97115 0.445092C4.93523 0.442073 4.89508 0.439054 4.85704 0.439054C4.83803 0.439054 4.81901 0.436035 4.79939 0.436035C4.78701 0.436035 4.77433 0.439054 4.76165 0.439054C4.72422 0.439054 4.68648 0.442073 4.64935 0.445092C4.61444 0.445094 4.5796 0.448124 4.54521 0.454148C4.51573 0.456648 4.48641 0.460678 4.45736 0.466223C4.4151 0.472261 4.37344 0.481317 4.33268 0.490373C4.31218 0.49376 4.29199 0.498808 4.27231 0.505467C4.22312 0.516798 4.17463 0.531011 4.12711 0.548032C4.11512 0.550265 4.10353 0.554231 4.09269 0.559805C4.03882 0.57782 3.9861 0.599091 3.93481 0.623501C3.92696 0.625916 3.91911 0.629237 3.91126 0.632255C3.85736 0.656473 3.80485 0.683684 3.75399 0.713762C3.74543 0.717762 3.73741 0.722834 3.73014 0.728856C3.67985 0.757339 3.63117 0.788581 3.58433 0.822438C3.57437 0.828476 3.5641 0.837532 3.55414 0.843871C3.51067 0.876474 3.4672 0.910284 3.42615 0.943189C3.41469 0.954913 3.4026 0.965998 3.38992 0.976395C3.35158 1.01262 3.31385 1.04583 3.27823 1.08205C3.26759 1.09593 3.25599 1.10904 3.24351 1.1213C3.20879 1.16054 3.17438 1.19978 3.14208 1.23903C3.13272 1.2508 3.12427 1.26318 3.11521 1.27525C3.08171 1.32054 3.04971 1.36582 3.01892 1.4111C3.01348 1.41985 3.00835 1.42951 3.00292 1.43827C2.97061 1.49261 2.93982 1.54392 2.91235 1.60128C2.90976 1.60614 2.90754 1.61118 2.90571 1.61638C2.87537 1.67622 2.84836 1.7377 2.82481 1.80052V1.80354L2.823 1.80988C2.80005 1.87297 2.77952 1.93636 2.76262 1.99976C2.7602 2.00882 2.75809 2.01787 2.75568 2.02693C2.74149 2.08127 2.72911 2.13862 2.71975 2.19598C2.71673 2.21409 2.71402 2.22919 2.7116 2.2473C2.70466 2.2956 2.69892 2.34692 2.6953 2.39522C2.69349 2.41967 2.69289 2.44352 2.69168 2.47069C2.69047 2.49786 2.68776 2.52201 2.68776 2.54948V34.6146H2.11509C1.55465 34.6146 1.01717 34.8372 0.620878 35.2335C0.224588 35.6298 0.00195313 36.1673 0.00195312 36.7277C0.00195313 37.2881 0.224588 37.8256 0.620878 38.2219C1.01717 38.6182 1.55465 38.8408 2.11509 38.8408H7.48851C8.04895 38.8408 8.58643 38.6182 8.98272 38.2219C9.37902 37.8256 9.60165 37.2881 9.60165 36.7277H9.59954ZM89.6293 43.7101C91.2236 43.7096 92.7822 44.1819 94.108 45.0672C95.4338 45.9525 96.4674 47.2111 97.0778 48.6839C97.6883 50.1566 97.8483 51.7773 97.5376 53.341C97.2269 54.9047 96.4595 56.3412 95.3323 57.4687C94.2052 58.5962 92.7691 59.3641 91.2055 59.6753C89.6419 59.9865 88.0211 59.8271 86.5482 59.2171C85.0752 58.6071 83.8162 57.574 82.9305 56.2485C82.0447 54.923 81.5719 53.3645 81.5719 51.7702C81.5745 49.6339 82.4242 47.5857 83.9346 46.0748C85.445 44.5638 87.4929 43.7135 89.6293 43.7101ZM89.6293 64.0536C92.0596 64.0542 94.4354 63.334 96.4563 61.9841C98.4773 60.6342 100.052 58.7153 100.983 56.4701C101.913 54.225 102.156 51.7543 101.682 49.3707C101.208 46.9871 100.038 44.7976 98.3196 43.0792C96.6011 41.3608 94.4116 40.1906 92.0279 39.7167C89.6443 39.2428 87.1737 39.4864 84.9285 40.4168C82.6834 41.3471 80.7646 42.9224 79.4148 44.9434C78.0651 46.9644 77.345 49.3403 77.3456 51.7706C77.3496 55.0271 78.6451 58.1491 80.9479 60.4518C83.2507 62.7545 86.3727 64.0498 89.6293 64.0536ZM107.558 85.7197C103.289 88.9135 97.2786 90.4468 89.6773 90.272H89.5807C81.9858 90.4437 75.9691 88.9135 71.7005 85.7197C71.0334 78.9664 71.9269 74.3446 74.3631 71.9689C77.1316 69.7259 80.1712 68.6576 83.6126 68.7327C85.0525 70.2904 87.223 71.193 89.629 71.193C92.035 71.193 94.2085 70.2904 95.6484 68.7327C99.0962 68.6603 102.127 69.7259 104.895 71.9689C107.331 74.3446 108.228 78.9664 107.558 85.7197ZM42.9238 140.77C38.6552 143.967 32.6436 145.497 25.0436 145.325C25.0115 145.322 24.9793 145.322 24.9473 145.325C17.3526 145.5 11.3359 143.967 7.06769 140.77C6.39843 134.02 7.2938 129.395 9.72995 127.022C12.4979 124.779 15.5281 123.711 18.9783 123.786C20.4185 125.341 22.589 126.243 24.9956 126.243C27.4021 126.243 29.5729 125.341 31.0126 123.786C34.4582 123.711 37.4936 124.779 40.2615 127.022C42.6974 129.395 43.5924 134.017 42.9238 140.77ZM107.754 68.8565C111.334 72.2617 112.632 78.0638 111.717 86.5888C111.672 87.0187 111.541 87.4353 111.332 87.8134C111.122 88.1915 110.838 88.5235 110.497 88.7894C105.429 92.7715 98.4103 94.6851 89.6287 94.4979C89.2302 94.507 88.832 94.51 88.4393 94.51C84.7711 94.554 81.1142 94.0929 77.5717 93.1398L45.8643 127.952C47.3019 131.33 47.7028 135.855 47.0821 141.639C47.0377 142.07 46.9067 142.487 46.6971 142.865C46.4875 143.244 46.2035 143.577 45.8622 143.843C40.794 147.822 33.7748 149.738 24.9953 149.551C24.5956 149.557 24.198 149.563 23.805 149.563C15.58 149.563 8.9662 147.64 4.12892 143.843C3.78782 143.576 3.50394 143.244 3.29424 142.865C3.08454 142.487 2.95332 142.07 2.90843 141.639C1.99434 133.114 3.29241 127.315 6.87087 123.907C6.90921 123.871 6.94875 123.837 6.98951 123.804C8.80783 122.272 10.9105 121.113 13.1772 120.394C15.4439 119.675 17.8301 119.41 20.1994 119.614C20.5242 119.639 20.8389 119.739 21.119 119.905C21.399 120.072 21.6368 120.301 21.8138 120.574C22.3907 121.465 23.61 122.017 24.9956 122.017C26.3812 122.017 27.6005 121.465 28.1771 120.574C28.3541 120.301 28.5919 120.072 28.8719 119.905C29.152 119.739 29.4667 119.639 29.7915 119.614C32.1608 119.41 34.5471 119.675 36.8138 120.394C39.0806 121.113 41.1833 122.272 43.0016 123.804C43.0424 123.837 43.0819 123.871 43.12 123.907C43.2471 124.028 43.3645 124.16 43.4862 124.287L73.2977 91.5577C71.6856 90.8111 70.1643 89.8823 68.7635 88.7894C68.4223 88.5238 68.1384 88.1919 67.9287 87.8137C67.719 87.4356 67.5879 87.0189 67.5434 86.5888C66.798 79.6396 67.5225 74.5016 69.754 70.9941L17.2198 41.1532C16.9735 41.0189 16.7563 40.8368 16.5811 40.6176C16.4059 40.3985 16.276 40.1466 16.1992 39.8767C16.1223 39.6068 16.1 39.3243 16.1335 39.0457C16.167 38.7671 16.2557 38.498 16.3944 38.254C16.533 38.01 16.7188 37.7961 16.9411 37.6247C17.1633 37.4534 17.4174 37.328 17.6886 37.2558C17.9598 37.1837 18.2426 37.1664 18.5206 37.2047C18.7985 37.2431 19.0661 37.3365 19.3076 37.4794L72.8003 67.8636C76.2897 65.3623 80.5589 64.1919 84.8361 64.5638C85.1604 64.5882 85.4747 64.6873 85.7543 64.8533C86.034 65.0193 86.2714 65.2477 86.4481 65.5208C87.0247 66.4113 88.2446 66.9667 89.6299 66.9667C91.0152 66.9667 92.2354 66.4113 92.8117 65.5208C92.9891 65.2477 93.2271 65.0193 93.5072 64.8533C93.7874 64.6873 94.102 64.5882 94.4267 64.5638C96.7958 64.3597 99.1818 64.6244 101.448 65.3428C103.715 66.0613 105.818 67.2193 107.637 68.7508C107.676 68.784 107.715 68.8206 107.755 68.8565H107.754ZM16.9373 106.821C16.9373 108.415 17.41 109.973 18.2956 111.299C19.1813 112.624 20.4401 113.657 21.9129 114.267C23.3857 114.877 25.0063 115.037 26.5698 114.726C28.1333 114.415 29.5695 113.647 30.6968 112.52C31.824 111.393 32.5916 109.957 32.9026 108.393C33.2136 106.83 33.054 105.209 32.444 103.736C31.8339 102.263 30.8008 101.004 29.4754 100.119C28.1499 99.2332 26.5915 98.7605 24.9974 98.7605C22.8604 98.7628 20.8116 99.6127 19.3006 101.124C17.7895 102.635 16.9396 104.684 16.9373 106.821ZM37.2817 106.821C37.2817 104.391 36.5611 102.015 35.211 99.9946C33.861 97.9741 31.9421 96.3993 29.6971 95.4694C27.452 94.5395 24.9816 94.2962 22.5983 94.7702C20.215 95.2443 18.0258 96.4145 16.3075 98.1328C14.5892 99.8511 13.419 102.04 12.945 104.424C12.4709 106.807 12.7142 109.277 13.6441 111.522C14.574 113.767 16.1488 115.686 18.1693 117.036C20.1898 118.386 22.5653 119.107 24.9953 119.107C28.2526 119.103 31.3754 117.807 33.6786 115.504C35.9818 113.201 37.2774 110.078 37.2811 106.821H37.2817Z" fill="#38B6FF"/>
<g id="Group_2">
<path id="Vector_2" fill-rule="evenodd" clip-rule="evenodd" d="M89.6294 59.8273C91.2238 59.8279 92.7825 59.3556 94.1085 58.4701C95.4344 57.5847 96.468 56.3259 97.0784 54.853C97.6888 53.38 97.8487 51.7591 97.5378 50.1953C97.2268 48.6315 96.4591 47.1951 95.3316 46.0677C94.2042 44.9403 92.7677 44.1726 91.2039 43.8617C89.6401 43.5509 88.0192 43.7108 86.5463 44.3212C85.0734 44.9317 83.8146 45.9653 82.9292 47.2913C82.0438 48.6173 81.5716 50.1761 81.5723 51.7705C81.575 53.9065 82.4247 55.9542 83.9352 57.4646C85.4456 58.975 87.4934 59.8246 89.6294 59.8273Z" fill="#99DAFF"/>
<path id="Vector_3" fill-rule="evenodd" clip-rule="evenodd" d="M33.0538 106.82C33.0538 105.226 32.5811 103.668 31.6955 102.343C30.8098 101.017 29.551 99.984 28.0782 99.3739C26.6054 98.7639 24.9848 98.6043 23.4213 98.9153C21.8578 99.2263 20.4216 99.9939 19.2944 101.121C18.1671 102.248 17.3995 103.685 17.0885 105.248C16.7775 106.812 16.9371 108.432 17.5471 109.905C18.1572 111.378 19.1903 112.637 20.5158 113.522C21.8412 114.408 23.3996 114.881 24.9937 114.881C27.1307 114.878 29.1794 114.028 30.6904 112.517C32.2015 111.006 33.0514 108.957 33.0538 106.82Z" fill="#99DAFF"/>
<path id="Vector_4" fill-rule="evenodd" clip-rule="evenodd" d="M6.91211 16.1456L23.1588 7.63271C17.2484 7.68705 11.8185 6.96224 6.91211 5.48938V16.1456Z" fill="#99DAFF"/>
</g>
</g>
</svg>
