<svg width="156" height="156" viewBox="0 0 156 156" fill="none" xmlns="http://www.w3.org/2000/svg">
<g id="Group">
<path id="Vector" fill-rule="evenodd" clip-rule="evenodd" d="M70.0094 76.4528C69.5951 76.0632 69.0453 75.8502 68.4766 75.859C67.9079 75.8679 67.3651 76.0979 66.9631 76.5003C66.5611 76.9026 66.3317 77.4457 66.3234 78.0144C66.3151 78.5831 66.5287 79.1327 66.9187 79.5466L73.3906 86.0194C73.5936 86.2227 73.8348 86.384 74.1002 86.494C74.3656 86.604 74.6502 86.6605 74.9375 86.6603H74.9531C75.2425 86.6586 75.5287 86.5992 75.7948 86.4855C76.0609 86.3719 76.3018 86.2063 76.5031 85.9984L89.1006 73.0519C89.3078 72.8475 89.4721 72.6038 89.5839 72.3351C89.6957 72.0664 89.7528 71.7781 89.7518 71.4871C89.7508 71.1961 89.6917 70.9082 89.578 70.6402C89.4643 70.3723 89.2984 70.1298 89.0898 69.9268C88.8812 69.7239 88.6342 69.5646 88.3633 69.4583C88.0924 69.352 87.8029 69.3008 87.512 69.3078C87.2211 69.3148 86.9344 69.3797 86.6689 69.4988C86.4034 69.618 86.1643 69.7889 85.9656 70.0016L74.9156 81.3578L70.0094 76.4516V76.4528ZM153 75.8125C153.58 75.8125 154.137 76.043 154.547 76.4532C154.957 76.8634 155.188 77.4198 155.188 78C155.188 78.5802 154.957 79.1366 154.547 79.5468C154.137 79.957 153.58 80.1875 153 80.1875H138.975C138.395 80.1875 137.838 79.957 137.428 79.5468C137.018 79.1366 136.788 78.5802 136.788 78C136.787 50.5119 118.113 26.9688 91.375 20.7475C90.8169 20.6095 90.3356 20.2574 90.0351 19.7673C89.7346 19.2772 89.6391 18.6885 89.7693 18.1286C89.8994 17.5686 90.2448 17.0824 90.7307 16.7751C91.2166 16.4678 91.8039 16.3642 92.3656 16.4866C105.881 19.6451 117.98 27.1673 126.792 37.8906C135.605 48.6139 140.64 61.9411 141.119 75.8125H153ZM78 48.0916C83.9153 48.0917 89.6977 49.846 94.616 53.1325C99.5343 56.419 103.368 61.0901 105.631 66.5552C107.895 72.0203 108.487 78.0338 107.333 83.8354C106.179 89.637 103.33 94.9661 99.1472 99.1488C94.9644 103.331 89.6352 106.18 83.8336 107.334C78.0319 108.488 72.0184 107.895 66.5534 105.632C61.0884 103.368 56.4174 99.5345 53.131 94.6161C49.8447 89.6977 48.0906 83.9153 48.0906 78C48.0991 70.0702 51.2531 62.4677 56.8603 56.8606C62.4676 51.2535 70.0702 48.0998 78 48.0916ZM78 43.7166C84.7807 43.7167 91.409 45.7275 97.0469 49.4947C102.685 53.262 107.079 58.6164 109.674 64.881C112.268 71.1456 112.947 78.0389 111.624 84.6892C110.301 91.3396 107.036 97.4483 102.241 102.243C97.4466 107.038 91.3378 110.303 84.6874 111.625C78.037 112.948 71.1437 112.269 64.8792 109.674C58.6147 107.079 53.2604 102.685 49.4933 97.0471C45.7262 91.4091 43.7156 84.7807 43.7156 78C43.7255 68.9103 47.3407 60.1957 53.7682 53.7684C60.1956 47.341 68.9103 43.7262 78 43.7166ZM78 32.9269C102.853 32.9269 123.072 53.1456 123.072 78.0003C123.072 102.855 102.854 123.073 78 123.073C53.1463 123.073 32.925 102.853 32.925 78C32.925 53.1469 53.1441 32.9269 78 32.9269ZM78 28.5519C105.266 28.5519 127.447 50.7344 127.447 78C127.447 105.266 105.266 127.448 78 127.448C50.7344 127.448 28.55 105.266 28.55 78C28.55 50.7344 50.7344 28.5522 78 28.5519ZM64.6219 135.259C64.9017 135.324 65.166 135.443 65.3996 135.61C65.6332 135.778 65.8316 135.989 65.9835 136.233C66.1354 136.477 66.2377 136.748 66.2847 137.032C66.3317 137.315 66.3224 137.605 66.2573 137.885C66.1923 138.165 66.0728 138.429 65.9056 138.663C65.7384 138.896 65.5269 139.095 65.283 139.246C65.0392 139.398 64.7678 139.501 64.4844 139.548C64.201 139.595 63.9111 139.585 63.6313 139.52C50.1152 136.361 38.0161 128.837 29.204 118.113C20.3919 107.388 15.3575 94.0597 14.8787 80.1875H3C2.41984 80.1875 1.86344 79.957 1.4532 79.5468C1.04297 79.1366 0.8125 78.5802 0.8125 78C0.8125 77.4198 1.04297 76.8634 1.4532 76.4532C1.86344 76.043 2.41984 75.8125 3 75.8125H17.0219C17.602 75.8125 18.1584 76.043 18.5687 76.4532C18.9789 76.8634 19.2094 77.4198 19.2094 78C19.2094 105.493 37.885 129.038 64.6219 135.259ZM137.885 89.7412C137.319 89.6096 136.725 89.7079 136.232 90.0145C135.739 90.3211 135.388 90.8109 135.256 91.3762C129.038 118.114 105.491 136.788 78 136.788C77.4198 136.788 76.8634 137.019 76.4532 137.429C76.043 137.839 75.8125 138.395 75.8125 138.976V153C75.8125 153.58 76.043 154.137 76.4532 154.547C76.8634 154.957 77.4198 155.188 78 155.188C78.5802 155.188 79.1366 154.957 79.5468 154.547C79.957 154.137 80.1875 153.58 80.1875 153V141.121C94.0591 140.64 107.386 135.605 118.11 126.793C128.834 117.981 136.358 105.883 139.519 92.3678C139.65 91.803 139.551 91.2093 139.245 90.7171C138.939 90.2249 138.449 89.8745 137.885 89.7428V89.7412ZM16.4781 63.6322C16.3466 64.1972 16.4448 64.7914 16.7513 65.284C17.0578 65.7765 17.5475 66.1272 18.1125 66.2588C18.2754 66.2965 18.4421 66.3157 18.6094 66.3159C19.1034 66.3154 19.5827 66.148 19.9695 65.8408C20.3564 65.5336 20.6281 65.1048 20.7406 64.6237C26.9594 37.8859 50.5069 19.2116 78 19.2119C78.5802 19.2119 79.1366 18.9814 79.5468 18.5712C79.957 18.1609 80.1875 17.6045 80.1875 17.0244V3C80.1875 2.41984 79.957 1.86344 79.5468 1.4532C79.1366 1.04297 78.5802 0.8125 78 0.8125C77.4198 0.8125 76.8634 1.04297 76.4532 1.4532C76.043 1.86344 75.8125 2.41984 75.8125 3V14.8784C61.9403 15.3587 48.6124 20.3938 37.8879 29.2059C27.1634 38.018 19.6393 50.1165 16.4781 63.6322Z" fill="#38B6FF"/>
<path id="Vector_2" fill-rule="evenodd" clip-rule="evenodd" d="M48.0898 78C48.09 83.9151 49.8441 89.6973 53.1304 94.6155C56.4167 99.5337 61.0877 103.367 66.5525 105.631C72.0174 107.894 78.0307 108.486 83.8322 107.333C89.6337 106.179 94.9627 103.33 99.1454 99.1477C103.328 94.9652 106.177 89.6362 107.331 83.8348C108.485 78.0334 107.893 72.02 105.629 66.5551C103.366 61.0901 99.5327 56.4191 94.6146 53.1326C89.6965 49.8462 83.9143 48.0919 77.9992 48.0916C70.0695 48.1001 62.4671 51.2538 56.8598 56.8609C51.2526 62.4679 48.0986 70.0703 48.0898 78ZM76.5023 86C76.3004 86.2076 76.0593 86.3731 75.7929 86.4867C75.5265 86.6003 75.2402 86.6598 74.9505 86.6618C74.6609 86.6637 74.3738 86.6081 74.1059 86.4982C73.838 86.3882 73.5946 86.2261 73.3898 86.0212L66.918 79.5469C66.5279 79.133 66.3144 78.5834 66.3226 78.0147C66.3309 77.446 66.5604 76.9029 66.9623 76.5005C67.3643 76.0982 67.9072 75.8682 68.4759 75.8593C69.0445 75.8505 69.5943 76.0635 70.0086 76.4531L74.9149 81.3594L85.9648 70.0031C86.1635 69.7904 86.4026 69.6195 86.6681 69.5004C86.9336 69.3813 87.2203 69.3163 87.5112 69.3094C87.8022 69.3024 88.0916 69.3536 88.3625 69.4599C88.6334 69.5662 88.8804 69.7255 89.089 69.9284C89.2976 70.1314 89.4636 70.3739 89.5773 70.6418C89.6909 70.9097 89.75 71.1976 89.751 71.4886C89.752 71.7797 89.6949 72.068 89.5831 72.3367C89.4713 72.6053 89.307 72.849 89.0998 73.0534L76.5023 86Z" fill="#99DAFF"/>
</g>
</svg>
